<svg width="90" height="90" viewBox="0 0 90 90" fill="none" xmlns="http://www.w3.org/2000/svg">
<g clip-path="url(#clip0_340_5365)">
<path d="M67.9152 45.139C95.0613 45.3087 100.162 74.5261 66.1703 78.1231C66.1703 94.8527 35.266 89.8304 22.5486 87.0139C12.6834 83.9598 16.0724 35.366 19.4951 29.0542C31.5078 24.0659 77.4449 22.6067 67.9152 45.139ZM22.6492 34.4497C23.723 39.1666 21.3406 81.2111 29.4945 86.6067C68.5863 93.9365 59.2244 73.2027 63.1168 40.6936C50.8356 49.0754 34.0916 45.7159 22.6492 34.4497ZM62.0095 31.2939C60.0968 29.6989 13.7236 24.1677 26.3068 33.8729C32.7829 32.5494 60.6002 40.6597 62.0095 31.2939ZM66.7408 74.051C97.0075 72.9991 80.3306 35.1624 67.781 49.8559C81.7064 53.7244 86.8067 68.9269 67.1434 69.7074C67.0092 71.2345 66.9085 72.5579 66.7408 74.051ZM67.2776 66.0425C73.8209 65.6693 77.6797 54.8442 69.8614 52.5367C65.4321 51.7901 68.5192 61.5632 67.2776 66.0425Z" fill="#0C0E1E"/>
</g>
<defs>
<clipPath id="clip0_340_5365">
<rect width="74" height="64" fill="white" transform="translate(16 26)"/>
</clipPath>
</defs>
</svg>
