<svg width="90" height="90" viewBox="0 0 90 90" fill="none" xmlns="http://www.w3.org/2000/svg">
<g clip-path="url(#clip0_49_1610)">
<path d="M50.6757 32.6803C50.6757 32.6803 50.3759 33.8527 50.2407 34.3401C49.692 36.3171 48.8184 38.531 48.4034 39.2715C47.9885 40.012 47.4252 40.7771 47.2148 40.8764C47.2148 40.8764 47.3263 41.153 47.4059 41.7563C47.5682 42.9871 47.6573 44.1844 47.6113 45.3711C46.9125 44.6816 45.7514 43.5713 45.1584 43.2299C45.2619 43.3505 53.8811 52.2839 56.3274 63.4061C56.9633 66.297 57.351 69.2195 57.4565 72.1751C57.5723 75.4197 56.6941 76.0873 56.6941 76.0873C57.8633 77.7049 59.4238 79.1618 61.402 79.6847C62.5073 79.9769 63.6151 80.259 64.7218 80.5455C64.8495 80.5786 64.9823 80.5976 65.1045 80.645C65.7051 80.8783 65.8774 81.512 65.424 81.9787C65.2045 82.2047 64.8895 82.3919 64.5862 82.4676C63.9063 82.6374 63.2108 82.7923 62.5144 82.8363C60.2318 82.9805 57.9471 83.0826 55.6587 82.9088C55.2211 82.8755 54.9469 82.743 54.8619 82.2979C54.8579 82.2773 54.8488 82.2444 54.8415 82.2248C54.7359 81.9406 54.6852 81.5611 54.3184 81.5483C53.9192 81.5343 53.8936 81.9393 53.8103 82.2241C53.7029 82.5916 53.5054 82.7901 53.1057 82.7796C52.5342 82.7646 51.9616 82.7908 51.3905 82.7695C50.8806 82.7505 50.7383 82.6136 50.652 82.1031C50.4997 81.2016 50.4451 80.2966 50.5605 79.3835C50.6408 78.7478 50.6926 78.1085 50.7573 77.4697C50.7573 77.4697 49.4228 77.2466 48.6845 75.4197C48.2564 74.3602 48.0253 73.3743 47.845 72.0582C47.4511 69.1846 47.3238 68.0831 47.0799 65.1891C46.9199 63.291 46.2575 60.647 45.154 58.5662C44.745 57.7951 44.0177 56.8497 43.3389 56.1467C41.7634 54.5148 35.2419 48.4304 33.9488 46.7935C32.8457 45.3971 31.9103 43.8555 31.5855 42.0498C31.346 40.7184 31.4889 39.1264 32.096 37.8638C32.096 37.8638 31.9223 37.591 31.7699 36.9749C31.4701 35.7637 31.586 34.5306 31.7184 33.3003C31.925 31.3804 32.5283 29.8232 33.3409 28.0911C33.6201 27.496 33.6979 27.3312 33.6979 27.3312C33.554 27.3528 33.2625 27.3959 33.1321 27.4364C31.7513 27.8646 30.4808 28.5025 29.3743 29.4546C28.2475 30.4242 27.2464 31.5139 26.3607 32.7082C25.7208 33.5711 25.3526 34.5749 25.0183 35.5872C24.8167 36.1975 24.6538 36.8208 24.4633 37.435C24.1189 38.5457 23.2951 39.832 22.1371 40.553C22.1371 40.553 22.1041 41.078 21.9891 41.4104C21.5182 42.7723 21.1042 43.7215 20.317 44.9381C20.0302 45.3813 19.682 45.7874 19.3336 46.1853C19.1777 46.3634 18.9644 46.5028 18.7537 46.6145C18.6357 46.6771 18.4169 46.6856 18.3415 46.645C18.1565 46.5452 18.1921 46.3173 18.2321 46.1773C18.341 45.7956 18.509 45.4312 18.6519 45.0593C18.7191 44.8846 18.7824 44.7084 18.7462 44.4568C18.7462 44.4568 17.996 45.2771 17.5099 45.7145C16.7875 46.3645 15.922 46.7396 15.0154 47.0275C14.6944 47.1294 14.4878 47.1764 14.0552 47.1884C13.6227 47.2005 13.6837 46.7108 14.0138 46.4128C14.5056 45.969 15.0607 45.6025 15.5855 45.1991C15.7173 45.0978 16.294 44.6063 16.294 44.6063C16.294 44.6063 15.2227 45.1875 14.8691 45.3359C14.304 45.5731 13.7229 45.7738 13.1407 45.9655C12.9806 46.0182 12.7887 46.0099 12.618 45.9844C12.2293 45.9261 12.1048 45.5999 12.3821 45.3167C12.6091 45.085 12.8965 44.9138 13.2359 44.656C12.9389 44.656 12.7187 44.6637 12.4993 44.6538C12.2766 44.6437 12.0035 44.6215 12 44.3443C11.9981 44.1958 12.164 43.9888 12.3091 43.904C13.3166 43.3151 14.3361 42.7468 15.3568 42.1812C16.1461 41.7438 17.0773 41.1352 17.7777 40.5034C17.7777 40.5034 17.5095 40.284 17.4031 40.1607C16.2649 38.8421 16.2132 37.3108 16.5081 35.6994C16.8721 33.7108 17.7744 31.9731 18.9489 30.3687C19.8898 29.0833 20.8447 27.8069 21.8317 26.5574C24.487 23.1955 27.6396 21.1743 31.6007 19.7021C33.1037 19.1435 34.9561 18.6919 36.5272 18.5194C38.1017 18.3466 39.633 18.6839 41.138 19.1359C41.3762 19.2075 41.6141 19.2805 41.8815 19.3622C41.9849 19.3937 42.0945 19.3327 42.1214 19.2271C42.1785 19.0026 42.2136 18.7142 42.2136 18.7142C41.9103 18.8349 41.5918 18.8024 41.3195 18.5037C40.8368 17.9743 40.6148 18.0076 39.9192 17.9496C38.8512 17.8606 38.3058 17.0183 38.2384 16.3357C38.1757 15.7008 38.3832 15.1714 38.6449 14.7765C38.6449 14.7765 37.6082 14.1734 37.6082 12.8899C37.6082 11.0938 38.6368 10.238 39.5375 9.85284C39.846 9.72088 40.0308 9.56214 40.1433 9.23418C40.3192 8.72162 40.714 8.39023 41.2319 8.25315C41.5039 8.18116 41.6988 8.09732 41.8175 7.80326C42.0416 7.24868 42.5155 7.03687 43.0835 7.00459C43.6724 6.97112 44.2194 7.13351 44.7332 7.39949C45.1193 7.59934 45.4449 7.59815 45.8435 7.37549C46.818 6.83106 48.1174 7.26445 48.6074 8.26816C48.7763 8.61406 48.8492 9.11459 48.8492 9.11459C49.7558 9.16429 50.2556 9.85673 50.2661 10.4662C50.2799 11.2613 49.9348 11.8774 49.2934 12.3248C49.1331 12.4366 48.9512 12.5168 48.7564 12.624C48.6914 13.1712 48.8732 13.664 49.1077 14.1421C49.254 14.4404 49.43 14.7241 49.5713 15.0245C49.8172 15.547 49.7876 15.7867 49.3335 16.1184C48.9574 16.3932 48.8689 16.7198 48.9153 17.1542C48.9952 17.903 48.7815 18.4973 48.0377 18.8358C47.6005 19.0347 47.3446 19.2522 47.2823 19.5371C47.2119 19.8595 47.4191 20.1782 47.7347 20.2647C47.9933 20.3355 48.2573 20.4081 48.5252 20.4612C50.6813 20.8885 52.4335 22.0073 53.8895 23.6365C54.9728 24.8488 55.8097 26.2292 56.5736 27.6598C56.9387 28.3435 57.2781 29.0467 57.7062 29.6886C57.994 30.1199 58.5481 31.2185 60.0428 31.2253C60.5443 31.2276 61.0763 30.9194 61.4907 30.6596C62.3273 30.1351 63.0027 29.5162 63.7944 28.9207C64.2693 28.5635 64.8062 28.1465 65.2947 27.8112C65.954 27.3587 67.1115 27.1558 67.9655 27.3604C67.9655 27.3604 70.2719 25.7479 72.8862 24.7836C73.0655 24.7174 73.2675 24.6541 73.4573 24.6605C73.5824 24.6647 73.7632 24.7672 73.8099 24.8742C73.8576 24.9838 73.8172 25.1929 73.735 25.2865C73.5929 25.4482 73.393 25.561 73.2096 25.6824C72.6625 26.0444 72.1117 26.4008 71.5885 26.8644C71.5885 26.8644 71.777 26.929 72.3868 26.8603C73.8273 26.698 75.2676 26.5343 76.7082 26.3732C76.8824 26.3537 77.0609 26.3424 77.2348 26.3576C77.6091 26.3903 77.6832 26.7223 77.4805 26.9805C78.0885 27.1266 78.1861 27.5477 77.6494 27.8813C77.2438 28.1334 76.8605 28.2934 76.3309 28.4705C76.1512 28.5306 75.618 28.6905 75.618 28.6905C75.618 28.6905 76.4571 28.71 76.7471 28.7611C77.0586 28.816 77.4515 28.9463 77.4903 29.2141C77.5239 29.4456 77.0957 29.7026 76.7952 29.7936C76.355 29.9269 75.9012 30.0314 75.4459 30.0934C73.9437 30.2978 73.342 30.5054 71.8271 30.5558C71.0561 30.5814 70.5715 30.5953 70.5715 30.5953C70.5715 30.5953 70.7029 31.024 70.6372 31.7233C70.5713 32.4257 70.2612 32.9513 69.8141 33.5398C68.9073 34.7336 67.8161 35.7308 66.5494 36.5142C65.1366 37.3879 63.6119 38.0207 62.0165 38.4684C60.3537 38.935 58.5591 38.8962 56.929 38.4031C54.8202 37.7651 53.2328 36.4382 51.8793 34.6957C51.4512 34.1446 51.083 33.3888 50.6757 32.6804V32.6803ZM35.5477 24.7877C35.5121 24.8843 35.4872 24.9866 35.4395 25.0766C34.454 26.9381 33.5797 28.8459 32.923 30.8563C32.466 32.2555 32.0961 33.6649 32.0532 35.1434C32.0186 36.3347 32.3666 37.3425 33.3215 38.1443C34.0266 38.7363 34.8209 39.141 35.6046 39.5879C38.9482 41.4951 42.4428 41.7901 46.1136 40.734C47.4205 40.3581 48.1763 38.0676 48.641 37.0646C49.7006 34.7776 50.2626 32.3325 50.7649 29.8732C50.8075 29.6647 50.8616 29.4586 50.9188 29.2154C51.303 29.348 51.3038 29.5981 51.2687 29.9306C51.2198 30.3932 50.9041 31.891 50.9041 31.891C50.9041 31.891 51.1412 32.7669 51.6708 33.6127C52.5441 35.0075 53.7414 36.0917 55.1389 36.9269C55.9328 37.4014 56.7997 37.7269 57.7319 37.8587C59.2182 38.0689 60.6661 37.9176 62.0997 37.496C64.8444 36.6888 67.3285 35.2301 69.1524 33.07C70.7114 31.2238 69.5861 29.5012 69.3068 29.1596C68.4657 28.1309 67.7457 27.7444 67.2996 27.7436C66.6481 27.7423 65.9038 28.0427 65.3558 28.4472C64.7198 28.9166 64.0819 29.3932 63.5045 29.9318C62.6835 30.6976 61.8119 31.3259 60.7029 31.6052C59.619 31.8781 58.7493 31.6011 58.0684 30.724C57.8115 30.3931 57.5773 30.0409 57.364 29.6795C57.0378 29.1266 56.7651 28.5404 56.4226 27.9987C55.7137 26.8774 55.0331 25.7303 54.2341 24.6764C52.6187 22.5453 50.4656 21.2522 47.8466 20.7511C47.4777 20.6805 47.169 20.7261 46.8399 20.9067C45.1866 21.8145 43.7365 21.6617 42.2863 20.4114C41.5472 19.7742 40.7236 19.3372 39.7651 19.1873C39.2236 19.1026 38.6752 19.043 38.1279 19.0194C36.8225 18.963 35.5494 19.2243 34.267 19.4296C31.36 19.8949 28.261 21.6813 26.0299 23.6078C22.4997 26.656 20.1437 29.6418 17.9019 33.7578C17.5586 34.3882 17.3011 35.0404 17.1498 35.7367C16.9013 36.8799 16.88 38.1637 17.5588 39.2427C18.008 39.9565 18.4644 40.293 19.2749 40.5024C20.2889 40.7645 21.1356 40.4019 21.8956 39.7615C22.8797 38.9323 23.5685 37.9125 23.9868 36.6712C24.3819 35.4986 24.758 34.2814 25.3886 33.2352C27.2879 30.0839 30.0455 27.6082 34.0647 26.688C34.0647 26.688 34.7885 25.1534 35.5477 24.7877L35.5477 24.7877ZM56.1884 76.6003C54.6737 77.7267 52.6797 77.7289 51.2327 77.5902C51.2103 78.7925 51.1865 79.9441 51.1703 81.0958C51.1682 81.2496 51.196 81.4057 51.2254 81.5577C51.3392 82.1467 51.4008 82.1973 51.9894 82.2324C52.2089 82.2455 52.4277 82.2709 52.6472 82.2785C52.9551 82.2893 53.2043 82.2012 53.3314 81.8766C53.3867 81.7353 53.4805 81.603 53.5801 81.4869C54.1939 80.7712 55.086 80.8645 55.419 81.7466C55.6366 82.3232 55.9726 82.4724 56.5112 82.4515C58.4 82.3785 60.2899 82.3332 62.178 82.2461C62.8779 82.2138 63.5775 82.1173 64.2699 82.0046C64.5294 81.9624 64.8994 81.9031 64.8792 81.5202C64.8612 81.1805 64.519 81.1842 64.2729 81.1209C63.2726 80.8635 62.2683 80.6216 61.2697 80.3579C59.4623 79.8807 57.9995 78.8688 56.8326 77.4062C56.6275 77.1491 56.4218 76.8924 56.1883 76.6003H56.1884ZM48.2832 12.7141C47.7413 12.79 46.53 13.4465 45.902 13.9221C44.811 14.7484 43.676 15.0414 42.3914 14.4567C42.3314 14.4293 42.2718 14.3995 42.2094 14.3791C41.7364 14.224 41.4031 14.3373 41.2473 14.7226C41.1092 15.0641 41.2335 15.5307 41.6987 15.7486C41.7979 15.7951 41.904 15.8266 42.0066 15.866C42.8083 16.1737 42.8655 16.261 42.7952 17.1493C42.7375 17.8792 42.6774 18.6091 42.6032 19.3374C42.5575 19.7853 42.7182 20.1044 43.095 20.3421C43.8965 20.8477 44.7547 21.0331 45.6811 20.8289C46.4407 20.6614 46.5834 20.5146 46.6817 19.7329C46.7616 19.0971 47.0161 18.6411 47.6809 18.4979C48.1671 18.3932 48.3569 18.0456 48.3773 17.5765C48.3879 17.3327 48.3522 17.0788 48.4085 16.8471C48.4739 16.5776 48.565 16.2828 48.7369 16.0774C49.1659 15.5647 49.2047 15.5726 48.8916 15.0002C48.5458 14.3681 48.3063 13.7128 48.2763 12.9852C48.2721 12.8819 48.2832 12.714 48.2832 12.714V12.7141ZM14.3815 46.647C14.1929 46.7554 14.5425 46.7693 14.8148 46.672C15.5319 46.4159 16.1132 46.0239 16.7093 45.6195C17.4184 45.1384 18.0672 44.5672 18.7488 44.0439C18.9298 43.9049 19.1806 43.7135 19.3489 43.6654C19.5172 43.6173 19.49 44.1074 19.376 44.3537C19.1627 44.8149 19.105 44.9177 18.8851 45.3759C18.7873 45.5796 18.6639 45.9391 18.7974 46.0153C18.9309 46.0915 19.1457 45.8914 19.2088 45.8072C20.1417 44.5622 20.7145 43.5613 21.2543 42.0971C21.534 41.3384 21.4295 40.8647 21.4295 40.8647C21.4295 40.8647 20.9936 41.0742 20.3686 41.0838C18.8704 41.1069 18.1806 40.6699 18.1806 40.6699C17.3766 41.2439 15.9396 42.2614 15.0985 42.777C14.5006 43.1437 13.8471 43.4174 13.2228 43.741C13.1106 43.7991 12.5 44.0996 12.7251 44.145C13.0722 44.2151 15.1698 43.463 16.3792 42.9858C16.0428 43.2795 15.3561 43.7331 14.1776 44.5579C13.8424 44.7924 12.5514 45.4961 12.7251 45.5935C13.0176 45.7576 16.217 44.1379 17.645 43.1998C17.645 43.4106 17.1907 44.2512 17.0765 44.4056C16.294 45.4638 14.57 46.5387 14.3815 46.647ZM70.4264 30.0393C72.723 30.188 77.6083 29.3605 77.0172 29.2652C76.7905 29.2287 73.5191 29.0679 73.2706 29.0387C73.0221 29.0094 73.0366 28.8511 73.0366 28.8511C73.0366 28.8511 74.6582 28.5414 75.3976 28.3306C76.1526 28.1154 78.0567 27.423 77.4708 27.3945C76.8848 27.366 74.5742 28.1875 72.9792 28.0834C73.0698 27.7673 73.2949 27.7267 73.5392 27.6757C74.5273 27.4693 75.5128 27.2496 76.497 27.0251C76.6084 26.9996 76.9334 26.7573 76.7944 26.7227C76.6553 26.6881 76.3866 26.6849 76.1891 26.7127C74.9062 26.8931 73.6249 27.0856 72.3435 27.2768C71.9096 27.3416 71.0824 27.3116 71.0182 27.1392C70.943 26.9373 71.5086 26.5498 71.7879 26.3197C72.0698 26.0874 73.0961 25.4137 73.2633 25.2363C73.5587 24.9228 69.5963 26.5516 68.6255 27.7045C68.6255 27.7045 69.0366 27.9644 69.6708 28.7745C69.9686 29.1549 70.4264 30.0393 70.4264 30.0393ZM36.207 49.7391C37.4661 51.1815 41.4788 54.8784 43.1461 56.6048C43.9035 57.3889 44.6861 58.6568 44.9448 59.1722C40.5742 72.0236 32.8646 77.3497 30.9231 78.3755C30.9231 78.3755 31.609 78.9835 33.9736 79.3744C34.6019 79.4782 35.2376 79.5472 35.8582 79.6857C36.4507 79.8179 36.9694 80.1069 37.2976 80.6587C37.71 81.3521 37.5001 81.8776 36.7281 82.0477C36.4505 82.1088 36.163 82.1348 35.8785 82.151C33.2455 82.3002 30.6099 82.4114 27.9803 82.6071C27.2662 82.6603 26.7357 82.5181 26.3695 82.0306C26.2791 81.9103 26.1831 81.3249 25.904 81.2545C25.6249 81.1841 25.5041 81.703 25.4659 81.9998C25.3736 82.7181 25.2907 82.8059 24.5625 82.8393C24.1899 82.8564 23.8132 82.8755 23.4435 82.8395C22.9145 82.7882 22.6532 82.5349 22.5668 82.0034C22.3243 80.5107 22.1862 79.3362 22.28 78.0109C22.3017 77.781 22.3986 77.0562 22.3986 77.0562C22.0882 76.4636 21.5329 73.9377 23.604 72.3603C36.9597 62.1881 36.2264 50.0419 36.207 49.7391ZM22.9615 77.8421C22.8361 78.8165 22.9745 80.6353 23.249 81.85C23.3065 82.1047 23.4571 82.2319 23.7158 82.217C24.0411 82.1983 24.4036 82.2532 24.6765 82.1213C24.8286 82.0477 24.8362 81.6605 24.9 81.4122C25.0025 81.0143 25.238 80.732 25.6312 80.6302C26.0399 80.5243 26.764 81.5335 26.811 81.5995C27.0184 81.8909 27.3229 81.9772 27.7384 81.9508C29.8885 81.814 32.0409 81.7142 34.1925 81.6007C34.8731 81.5647 35.5561 81.5501 36.2328 81.4767C36.4129 81.4572 36.6739 81.2846 36.7164 81.1311C36.7619 80.9666 36.6471 80.6761 36.506 80.5585C36.2959 80.3834 36.0113 80.266 35.7405 80.2057C35.1833 80.0815 34.6147 80.0088 34.05 79.9195C32.9596 79.7471 31.2714 79.1727 30.3052 78.6119C30.3052 78.6119 30.0787 78.7278 29.6279 78.9054C28.225 79.458 26.8286 79.599 25.3457 79.2488C24.4999 79.0492 23.7544 78.4515 22.9615 77.8422L22.9615 77.8421Z" fill="#0C0E1E"/>
</g>
<defs>
<clipPath id="clip0_49_1610">
<rect width="66" height="76" fill="white" transform="translate(12 7)"/>
</clipPath>
</defs>
</svg>
