<svg width="90" height="90" viewBox="0 0 90 90" fill="none" xmlns="http://www.w3.org/2000/svg">
<g clip-path="url(#clip0_340_5407)">
<path d="M81.715 32.7321C84.3801 27.5956 98.4242 9.30781 82.3639 16.9014C61.7266 26.4723 84.3106 18.832 42.4218 16.7961C27.9491 17.0769 -3.26761 23.1962 0.347683 45.3685C0.614195 54.0736 3.54583 62.5096 10.3477 67.9269C22.6652 76.8544 34.1136 75.1227 49.5481 73.941C71.7614 72.7709 92.6304 58.6602 81.715 32.7321ZM81.6802 52.8802C75.8981 67.377 67.3002 70.5478 43.0476 72.2093C29.9074 73.7303 15.0754 73.0517 6.76715 61.2928C1.73818 54.6353 -1.01964 41.3787 4.36854 33.1416C17.277 17.0652 50.7185 14.9825 71.379 22.3772C77.6246 22.0379 82.8853 16.7259 89.1542 16.0004C89.1078 19.1011 84.4497 24.8109 81.7961 29.8655C77.6826 34.7211 87.7405 32.9661 81.6802 52.8802Z" fill="#0C0E1E"/>
<path d="M22.3062 46.8312C22.3757 44.2922 23.2332 42.4669 25.0524 41.1682C25.4927 40.8522 26.0837 40.6299 26.6283 40.5831C27.9377 40.4778 29.2471 40.6416 30.4637 41.1799C31.9238 41.8234 33.0246 42.9232 33.6851 44.3624C34.6237 46.445 34.2297 48.399 32.7696 50.1424C30.765 52.5293 27.9956 52.7516 25.3073 51.4177C23.3374 50.4466 22.3989 48.7266 22.3062 46.8312Z" fill="#0C0E1E"/>
<path d="M45.7938 40.7937C47.5087 40.8171 49.0035 41.718 50.1275 43.2859C50.8575 44.2921 50.9734 45.4622 50.8111 46.6556C50.3824 49.9317 47.0684 52.9036 43.3024 51.9793C41.1356 51.4528 39.6524 49.7211 39.4438 47.4044C39.2584 45.392 39.9421 43.7305 41.4253 42.3148C42.6188 41.1564 44.0093 40.8171 45.7938 40.7937Z" fill="#0C0E1E"/>
<path d="M55.8982 46.4918C55.8635 44.1284 57.0338 42.3967 58.853 41.098C60.2783 40.08 62.8623 39.846 64.4266 41.5894C64.6699 41.8585 64.9828 42.0808 65.2609 42.3265C66.3617 43.2742 66.8484 44.4794 66.6398 45.9185C66.5239 46.6791 66.3733 47.4513 66.0836 48.1533C65.0987 50.5519 63.094 51.523 60.707 51.4411C59.9307 51.4177 59.1195 51.2539 58.4127 50.938C56.7093 50.2009 56.0373 48.7149 55.8982 46.9365C55.8866 46.7961 55.8982 46.644 55.8982 46.4918Z" fill="#0C0E1E"/>
</g>
<defs>
<clipPath id="clip0_340_5407">
<rect width="90" height="60" fill="white" transform="translate(0 15)"/>
</clipPath>
</defs>
</svg>
