<?xml version="1.0" encoding="UTF-8"?>
<svg id="Calque_1" xmlns="http://www.w3.org/2000/svg" version="1.1" viewBox="0 0 87.1 89.9">
  <!-- Generator: Adobe Illustrator 30.5.1, SVG Export Plug-In . SVG Version: 2.1.4 Build 3)  -->
  <defs>
    <style>
      .st0 {
        fill: #0c0e1e;
      }
    </style>
  </defs>
  <path class="st0" d="M29.3,1.6c-1.6,0-3.2.3-4.6.7-.7-1-1.8-1.6-3.3-2-3.4-.7-6.4,0-9,2.2-1.9,1.6-2.8,3.3-2.5,6.1,0,1.4.7,2.7,1.3,4,0,0,0,0,0,0-6.7,12.4-1.2,31,18.6,32.2,28.5-.4,30.4-42.9-.5-43.2ZM41.1,22.9c.3.3.5.6.7,1,.2.4,0,.8-.4.9-1,.4-1.3,1.1-1.3,2.1s0,1,0,1.6c-.2,1.4-.8,1.9-2.2,2h-2.1c-1.4.1-2.1.8-2.3,2.2,0,.4,0,.8-.1,1.3-.2,1.9-1.9,3.3-4,3.1h-.2c-2.2-.1-3.8-1.3-4.8-3.3,0-.3,0-.6,0-.9.4-1.2.9-2.4,1.4-3.6.4-1,.7-2,.5-3.1.3,0,.7,0,1.3-.2,0,0,0,.1.2.2,1.5,1.7,3.4,2.2,5.5,2.5,1.2.2,2.4.3,3.6.4.6,0,1.1,0,1.4-.6,0-.3,0-.7,0-1-.3-.5-.8-.7-1.4-.6-.3,0-.5.2-.9.3-.1,0-.5.4-.5.4,0,0-3.1-.1-4.5-.7-.8-.3-1.6-.9-2.1-1.5.9-.7,1.7-2.3,1.2-3.7-.2-.6-.4-1.2-.8-1.6-.3-.4-.7-.6-.7-.6.9-.6,2.6-1.8,3.5-2.4,3.9-2.6,6-4.7,6.2-4.9,1.7,1.8,2.6,3.7,2.3,6.2,0,.9,0,1.9-.2,2.9,0,.7.4,1.2.8,1.6ZM11.9,14.3c1.2,3.5.8,5.1.8,5.1,0,0,1.9,0,3-1.9.5-.9.7-1.8,1-2.7.5-1.6.6-3.1,1.7-4.4.3-.4,1-.5,1.4-.3-.8,1.1-.4,2.3.5,2.5,0,0,0,.2-.2.3-1.4,2.1-1.6,4.4-1.3,6.8.5,3.1,1.8,5.8,4.4,7.7.3.2.9.5.9,1v1.2c-.2.8-.6,1.5-.9,2.3-.3.8-1,1.1-1.8,1.2-1.1.2-3,.5-4.1.7-1.3.3-2.5.7-3.6,1.2-4.4-5.9-5.1-14.1-1.8-20.7ZM43.1,38.1c-1.8-1.1-3.6-1.9-5.6-2.6-1.1-.4-2.2-.7-3.3-1h0c0-.3,0-.7.1-1,.3-1.7,1.2-2.5,2.9-2.6h1.7c.9,0,1.7-.5,1.9-1.5.2-.8.3-1.7.3-2.6s.2-1.4.9-1.8c.8-.5.9-1.4.3-2.1-.4-.5-.7-1.1-.8-1.6-.2-.8-.2-1.6-.2-2.4,0-2.7-.7-5.1-2.4-7.1-2-2.4-4.2-4.3-7.5-4.6-3.3-.3-4.6.3-4.6.3,0-.5-.1-1.2-1-1.2,0-.8,0-1.5-.3-2.2,1.5-.3,3.2-.5,5-.6,20.8.8,25.7,24.3,12.5,34.6Z"/>
  <path class="st0" d="M68.6,33.5c-27.5.4-25.8,38.1-.5,38.5,26.1-1.6,24.4-37.1.5-38.5ZM59.7,55.1c-.3-.4-.4-.5.8-1.8v-1.9c0-1.3-.2-2.6.5-3.8,3.2,5.3,7,6.1,9.3,6.6,1.2.2,2,.4,2,1.2s-.4,1-1,1.1c-1.4.4-1.3,1.7-1.2,3.2v2c-.8-.2-1.7-.2-2.7-.3-1.1,0-2.2,0-3.1-.4h0c-.2-.5-.4-1-1.1-1.1h-.3c-2.7,0-2.7-1.2-2.7-3.5v-.2c-.2-.6-.4-.9-.5-1.1ZM78.8,66.8c-1.5-.8-2.8-1.4-4-1.9-2.9-1.2-4.4-1.8-3.6-4.7h0c0-.4,0-.7.6-.8,2-.7,3.6-2.2,4.4-4.3.8-2.1.7-4.5-.3-6.5,1.9-.2,3.4-1.4,3.9-3.2.6-1.9-.2-4.1-1.8-5.3-1.9-1.3-4.6-1.4-6.5-.4-1.4.8-2.1,2.2-2.1,3.9-2.9-.7-6.8,0-9,3-1.6,2-1.5,3.2-1.4,4.4,0,1,.2,2-1,3.5,0,.4.2.6.4.8.2.1.4.3.5.5v1.1c0,.5-.1,1.1,0,1.8.3,1.1,1.1,1.1,1.9,1.2.5,0,1.1,0,1.6.4.5.6.6,1.3.4,2-.3.8-1.1,1.3-2,1.4h.1c-1.7.5-3.4,1.2-5,1.9-11.2-9.3-6.8-29.7,11.5-30.4,20.5.7,23.5,23,11.4,31.6Z"/>
  <path class="st0" d="M42.1,60.3c-2.7-7.5-9.7-13.6-21.2-13.7-26.9,1.5-28.8,41.5.5,43.2,16.3-.2,23.9-14.3,21.6-26.3.6-.3.9-.8,1-1.2,0-.4,0-.9-.4-1.2-.5-.4-.9-.6-1.5-.8ZM26.6,78.6h.1c0,.6-.2,1.4-.3,2.1-.3,1.3-1.1,2.2-2.4,2.6-1.2.4-2.4.4-3.6,0-1.3-.6-2.1-1.6-2-3,0-1.1.4-3.8.4-4,.2-1.6-.7-2.4-1.6-2.7-.7-.2-1.1-.7-1.5-1.3,0,0-.1-.3-.2-.4-.3-1.2,0-1.8,1.3-2.1.8,0,1.6-.2,2.4-.3,2.3-.3,4-1.5,5.2-3.6.5-.9.9-1.9,1.4-3,1.1,0,4.4.3,4.4.3v1.7c0,1,.2,1.6.3,2.6,0,.4.3.8.6,1.2.3.5.6.9.9,1.4.3.6.2.9-.4,1.3l-.9.6c-.6.5-1,1-1.1,1.9,0,.8-.2,1.7-.3,2.5,0,.8-.2.8-.9,1-.4,0-.7.2-1.1.3-.5.2-.7.5-.7,1ZM22.1,48.6c9.2.4,15.2,5.1,18,11.2-2.8-.6-6.7-.8-9.1-.8-.5-1.3-1.1-2.3-1.3-2.5-2.6-3.4-6.1-4.9-10.3-4.3-3.8.6-6.6,2.6-7.9,6.3-.3.9-.5,2.7-.5,2.7,0,0-2.2,1.2-1.4,5.2.1.5,0,.9-.6,1.2-1,.7-2.5,2.7-1.9,5.7.3,1.7,1.1,3.4,2.5,4.5,2.8,2.2,7.1,1.2,7.1,1.2v1.2c0,0-4.9,0-9.5,2.2C-3.8,71.8.4,49.3,22.1,48.6ZM35.9,82c-.5-.2-1.1-.3-1.6-.4-1.8-.5-3.6-.9-5.4-1.1h-1.4s0-1.2,0-1.8c0-.4.3-.7.7-.8.4,0,.8-.2,1.1-.3,1.2-.3,1.7-1.1,1.8-2.2v-1.8c0-.9.4-1.6,1.3-2.1,1-.5,1.3-1.6.6-2.6-.6-.8-1-1.7-1.2-2.8-.2-1-.1-2.9-.1-2.9,0,0,3.8.5,5.1.6,1.3.1,2.6.3,3.8.3s.6,0,.8,0c1.3,6.3-.5,13.2-5.6,18Z"/>
</svg>