<svg width="90" height="90" viewBox="0 0 90 90" fill="none" xmlns="http://www.w3.org/2000/svg">
<g clip-path="url(#clip0_340_5423)">
<path d="M33.8261 36.2178C35.3374 36.143 36.1633 35.6851 36.9044 34.328C39.3812 29.7794 42.0639 25.3634 44.6982 20.8871C44.9589 20.4436 45.3144 19.9446 45.7542 19.6746C46.5657 19.1491 47.5577 18.3031 48.3286 18.4212C48.9976 18.561 49.6515 19.7976 49.9402 20.6533C51.2777 24.6017 52.5205 28.6056 53.6882 32.5901C54.1689 34.1811 55.358 33.928 56.4544 33.9063C62.5836 33.8365 68.6984 33.6991 74.808 33.704C75.8364 33.6968 77.3391 34.0825 77.7421 34.808C78.1308 35.4661 77.6654 37.1173 76.9917 37.7898C72.6796 42.0588 67.8161 45.7396 63.0689 49.4661C62.6775 49.7964 62.4134 50.5581 62.4264 51.1197C62.7348 56.2396 63.1182 61.3788 63.5017 66.518C63.6706 69.4805 64.7631 73.4458 62.3716 75.2247C61.805 75.7333 60.412 76.0298 59.775 75.7068C53.9259 72.7539 48.1303 69.719 42.3811 66.5684C41.2163 65.9345 40.4956 66.0526 39.5429 66.7492C34.7578 70.1311 29.9388 73.5202 25.1055 76.8418C24.2403 77.4492 23.189 77.8494 22.2057 78.235C20.4016 78.9365 18.771 77.4492 19.2398 75.4798C20.9741 68.4436 23.4186 61.5737 25.4534 54.6146C25.5711 54.1662 25.1877 53.366 24.7957 53.0261C20.6597 49.7791 16.6792 46.4285 13.2365 42.4342C12.1678 41.2507 13.3356 39.0619 15.3703 38.2761C15.9943 38.0375 16.681 37.9266 17.3533 37.7483C18.1616 37.541 28.2856 36.5503 33.8261 36.2178ZM46.3697 24.2353C46.1711 24.1365 45.9725 24.0376 45.7739 23.9388C44.0898 26.8723 42.2894 29.7601 40.7627 32.766C40.036 34.1906 40.0285 35.9912 39.1712 37.3025C38.3674 38.5319 36.9396 39.9999 35.6197 40.1396C29.8668 40.976 24.2035 40.0648 18.5138 41.6991C21.7109 45.0401 25.1577 47.5518 28.6032 50.5578C29.8131 51.5702 30.6186 52.3512 29.2267 53.9879C28.3994 54.94 28.1431 56.4056 27.7417 57.6904C26.2096 62.6729 25.1531 67.5542 24.011 72.7006C24.5546 72.5849 24.8408 72.5945 25.0642 72.4764C29.7761 69.2512 34.4396 65.9657 39.1926 62.767C40.0649 62.1934 41.4396 61.4774 42.2197 61.8053C47.7018 64.2014 52.7388 67.0097 58.296 69.425C58.057 63.7965 57.7735 58.4597 57.6331 53.1276C57.5902 51.0908 57.8747 49.0901 59.8284 47.7571C61.3496 46.7278 62.8296 45.672 64.2613 44.556C66.6581 42.6348 69.0065 40.6534 71.632 38.4719C70.8199 38.3273 70.4299 38.1634 70.0758 38.1682C64.3418 38.2597 58.6275 38.2766 52.8883 38.5103C51.023 38.5899 50.2678 38.0451 49.8191 36.2709C48.8142 32.2165 47.5374 28.2199 46.3697 24.2353Z" fill="#0C0E1E"/>
</g>
<defs>
<clipPath id="clip0_340_5423">
<rect width="66" height="59" fill="white" transform="translate(8.58203 26.7393) rotate(-12.0151)"/>
</clipPath>
</defs>
</svg>
