<svg width="90" height="90" viewBox="0 0 90 90" fill="none" xmlns="http://www.w3.org/2000/svg">
<g clip-path="url(#clip0_11_1665)">
<mask id="mask0_11_1665" style="mask-type:alpha" maskUnits="userSpaceOnUse" x="-1" y="2" width="95" height="76">
<path d="M44.6265 76.1703C37.3055 76.1703 32.2371 74.4788 29.4213 72.7873C24.7283 74.4788 13.7655 77.8617 7.45811 77.8617C-0.4261 77.8617 -0.989258 68.2766 -0.989258 62.6383C-0.989258 57.0001 1.82653 47.9787 4.07916 43.4681C6.3318 38.9575 26.0423 16.4043 36.1792 7.94685C46.316 -0.510601 59.2686 3.43621 66.0265 5.1277C72.7844 6.81919 77.2897 32.7554 81.795 37.8298C86.3002 42.9043 93.0581 54.7447 93.0581 62.6383C93.0581 70.532 89.116 77.8617 78.9792 77.8617C70.8697 77.8617 63.5862 74.8546 60.9581 73.3511C60.0195 72.5993 57.8915 71.3957 56.8881 72.5952C55.6339 74.0946 51.9476 76.1703 44.6265 76.1703Z" fill="black"/>
</mask>
<g mask="url(#mask0_11_1665)">
<g clip-path="url(#clip1_11_1665)">
<path d="M17.9247 152.145C18.1864 152.341 18.1765 153.456 18.2619 154.074C18.3086 154.412 18.3243 154.756 18.3951 155.089C18.4849 155.511 18.6036 155.597 19.0225 155.614C20.2932 155.666 21.5639 155.724 22.8352 155.759C23.8975 155.788 24.0783 155.598 24.0589 154.55C24.024 152.661 23.9853 150.772 23.9515 148.882C23.9459 148.577 23.9906 147.23 23.9906 147.23C25.8852 145.973 26.3733 145.151 26.9506 144.092C28.659 140.957 29.0385 138.978 29.9419 136.466C31.4496 132.275 32.6204 127.987 33.6255 123.655C34.4144 120.256 35.1779 116.849 35.87 113.429C36.3014 111.297 36.5696 109.134 36.9294 106.988C37.1018 105.96 37.3532 104.944 37.5057 103.913C37.8454 101.617 38.1634 99.3184 38.4563 97.0165C38.7016 95.089 39.4208 90.3432 39.6334 89.9334C39.792 89.6276 40.0183 89.5958 40.326 89.7528C40.6398 89.913 40.9014 90.1357 41.0149 90.4835C41.1433 90.8769 41.2759 91.2697 41.3835 91.6689C42.8054 96.9415 43.8153 102.293 44.5804 107.696C44.7537 108.92 45.1123 110.119 45.4002 111.327C46.1267 114.373 46.8101 117.431 47.2154 120.537C47.4969 122.693 47.6839 124.864 47.8366 127.033C47.9982 129.33 48.0495 131.634 48.1852 133.933C48.325 136.303 48.6994 141.085 49.3559 142.808C50.0286 144.573 51.0384 145.092 51.0384 145.092C51.0384 145.092 51.4935 152.379 51.6703 154.403C51.7246 155.024 51.9137 155.635 52.0562 156.247C52.1591 156.689 52.4407 156.933 52.9163 156.904C53.3118 156.88 56.6306 156.513 56.6849 156.51C57.5082 156.458 57.7485 156.224 57.7608 155.409C57.7719 154.672 57.7398 153.933 57.7582 153.196C57.769 152.766 57.8196 152.335 57.8939 151.911C57.9447 151.622 58.0904 151.34 58.4288 151.302C58.7471 151.266 59.0509 151.371 59.249 151.637C59.3875 151.823 59.487 152.039 59.5927 152.247C59.8862 152.825 60.158 153.415 60.4673 153.985C60.9667 154.904 61.7062 155.548 62.6974 155.948C63.9495 156.454 68.1304 157.856 72.2727 157.911C73.9402 157.933 75.9578 157.669 76.6864 157.213C76.8983 157.08 77.0992 156.912 77.2616 156.724C77.6618 156.259 77.6564 155.713 77.2532 155.254C77.1003 155.079 76.9144 154.925 76.7198 154.797C75.9942 154.318 75.2533 153.863 74.5283 153.383C73.744 152.865 72.9738 152.325 72.1923 151.802C71.1537 151.107 70.107 150.424 69.0706 149.727C68.7261 149.495 68.3858 149.251 68.0721 148.981C66.7704 147.858 65.4662 146.737 64.1921 145.584C63.7395 145.175 62.6098 143.779 62.6098 143.779C62.6098 143.779 63.3695 143.091 63.6475 142.16C64.3923 140.041 64.697 137.688 64.6827 135.419C64.6624 132.191 64.4449 128.982 64.0151 125.786C63.737 123.718 63.4082 121.656 63.1411 119.586C62.9845 118.374 62.9312 117.148 62.7845 115.933C62.4158 112.879 62.068 109.821 61.6228 106.777C61.141 103.484 60.5405 100.208 60.03 96.9191C59.8702 95.89 59.8515 94.8403 59.7383 93.8032C59.4768 91.4066 59.2248 89.0084 58.9173 86.6174C58.5617 83.8518 58.1578 81.0922 57.7606 78.3319C57.5532 76.8897 57.3176 75.4514 57.0889 74.0121C57.0523 73.7819 56.817 72.9126 56.713 72.7106C56.713 72.7106 56.8141 72.6459 57.0412 72.2981C57.6262 71.4021 58.0889 70.4494 58.1125 69.33C58.2854 69.3153 62.1125 69.4037 63.621 69.3916C63.621 69.3916 65.483 71.7781 68.1987 73.5159C69.8602 74.5792 71.9856 75.9178 76.4742 75.9178C83.0636 75.9178 85.6716 73.1661 87.1262 71.3157C88.6448 69.3836 89.5026 67.1812 89.8519 64.8139C90.06 63.4037 89.9998 61.9358 89.9021 60.5044C89.7086 57.6702 89.0722 54.9195 87.978 52.2847C87.576 51.3168 87.0646 50.4032 86.4342 49.5611C86.1969 49.2441 85.9358 48.9412 85.6588 48.6573C85.2444 48.2326 84.7726 47.9048 84.1484 47.9935C84.1038 47.9465 83.7485 47.1328 83.5614 46.781C82.5319 44.8453 80.8686 43.4904 78.9162 42.4049C78.41 42.1235 77.0321 41.4252 77.0321 41.4252C77.0321 41.4252 77.0288 40.6175 77.0106 40.3321C76.9834 39.9039 76.9967 39.4642 76.8988 39.0512C76.6908 38.1738 76.1087 37.6412 75.1931 37.5421C73.5325 37.3624 70.0906 37.2513 70.006 37.2378C69.9944 37.0994 70.0995 31.3735 70.1215 30.5109C70.1425 29.6857 70.124 28.8596 70.1285 28.034C70.1297 27.7986 69.9731 27.7151 69.7869 27.6861C69.3212 27.6135 68.8544 27.5328 68.3849 27.5025C64.9728 27.2825 61.5554 27.2792 58.1381 27.2767C57.9414 27.2766 57.7448 27.2767 57.4786 27.2767C57.8648 25.3518 57.8117 23.4858 57.2791 21.5826C57.6147 21.6243 57.8763 21.6579 58.1382 21.6891C60.2626 21.9426 61.9977 21.2286 63.1845 19.4793C64.7192 17.2172 64.8767 14.7858 63.7581 12.2924C62.934 10.4556 61.5008 9.3309 59.5347 8.87404C58.3715 8.60377 57.2216 8.6769 56.114 9.13228C54.6946 9.71586 53.4916 10.5977 52.5284 11.7868C52.0685 12.3545 51.705 12.977 51.618 13.717C51.5891 13.9621 51.6134 14.2132 51.6134 14.5135C51.5069 14.4824 51.4268 14.4704 51.3572 14.4369C49.2189 13.4106 46.9563 12.8259 44.5942 13.1358C41.1046 13.5936 39.4937 15.0442 39.2949 15.2601C38.3624 16.2729 37.6585 17.4228 37.4128 18.8284C37.283 19.5706 37.2496 20.3292 37.1686 21.08C37.1396 21.348 37.0917 21.6141 37.0663 21.8823C37.0099 22.477 36.7746 22.9536 36.3358 23.3947C35.9368 23.796 35.6481 24.3171 35.3661 24.8161C35.1651 25.1717 35.1625 25.5929 35.3498 25.9628C35.448 26.1569 35.6298 26.34 35.8195 26.4521C36.3091 26.7413 36.3771 26.8253 36.3264 27.3789C36.3184 27.4661 36.2899 27.5515 36.266 27.6599C36.1496 27.6728 22.3133 27.8744 22.096 27.8758C21.8431 27.8773 21.5834 27.869 21.3393 27.9219C20.8992 28.0175 20.6921 28.2744 20.6671 28.7207C20.6531 28.971 20.7675 36.6539 20.7675 36.8759C20.524 36.8759 18.1819 36.91 16.6588 37.2159C16.2551 37.297 15.824 37.4296 15.4651 37.6327C14.8092 38.0037 14.5578 38.6669 14.579 39.4165C14.582 39.5235 14.5794 39.6307 14.5794 39.7806C14.3656 39.8905 12.8647 40.5974 12.3409 40.8465C10.6165 41.6667 9.22646 42.8954 8.08398 44.3896C7.66276 44.9405 7.38733 45.6007 7.0262 46.2452C6.46416 46.1451 5.96904 46.4099 5.57353 46.8288C5.10387 47.3263 4.64779 47.8453 4.25426 48.4024C3.39427 49.6198 2.80181 50.9727 2.32323 52.3769C1.21358 55.633 0.672653 58.9752 0.828598 62.4115C0.862495 63.1588 1.0046 63.9142 1.20149 64.638C1.44186 65.5215 1.73344 66.4015 2.10681 67.2375C3.22234 69.7352 4.94333 71.7368 7.44897 72.9258C9.63175 73.9617 11.9482 74.5573 14.4161 74.3644C16.9776 74.1641 19.9317 73.6397 22.2259 72.478C23.3362 71.9158 24.0707 71.3473 25.033 70.5542C25.7783 69.9399 26.3227 69.2773 26.3227 69.2773C27.2492 69.2642 29.2391 69.3062 29.2391 69.3062C29.1811 69.6912 29.1084 70.1272 29.0396 70.5152C28.7759 72.004 29.3503 72.6279 29.3503 72.6279C29.3503 72.6279 27.3095 77.0861 24.8777 90.475C24.0284 95.1506 22.9506 99.7779 21.8213 104.394C21.0599 107.505 20.2622 110.609 19.5485 113.731C18.947 116.363 18.5048 119.03 17.8809 121.656C17.0779 125.034 16.1532 128.385 15.3015 131.753C14.6483 134.335 14.0046 136.92 13.3906 139.512C12.4982 143.279 13.5598 144.523 13.5598 144.523C11.6707 146.203 9.03855 147.809 6.71254 148.778C4.26223 149.799 1.71452 150.529 -0.835602 151.252C-1.13248 151.336 -1.43347 151.408 -1.72639 151.503C-2.2131 151.662 -2.71339 151.942 -2.72334 152.449C-2.75114 153.864 -0.391602 154.21 0.134888 154.303C2.15381 154.657 12.8347 155.807 13.463 155.845C14.0095 155.877 14.5574 155.875 15.1087 155.807C15.3426 155.777 15.5777 155.75 15.8079 155.702C16.544 155.548 16.9735 155.069 17.1645 154.375C17.2739 153.976 17.3351 153.565 17.4254 153.162C17.5037 152.812 17.6631 151.949 17.9247 152.145ZM69.6416 59.1256C69.6416 59.1256 70.3228 60.1615 70.6132 60.607C71.8077 62.4395 73.3909 63.7709 75.5434 64.3781C76.2296 64.5717 76.9206 64.7034 77.6377 64.6577C78.4588 64.6054 79.1171 64.256 79.502 63.531C79.7271 63.107 79.9025 62.641 80.0067 62.1734C80.3927 60.4405 80.2573 58.7007 79.9542 56.9739C79.7243 55.6637 79.4324 54.3643 79.1685 53.06C79.0329 52.3895 79.3704 51.7122 79.9887 51.408C80.07 51.3681 80.1512 51.3265 80.2361 51.2954C81.3319 50.8942 82.3478 50.3412 83.334 49.726C83.6393 49.5356 83.9709 49.3793 84.3055 49.2436C84.8721 49.0139 85.4998 49.2302 85.7714 49.7219C86.0411 50.2101 86.3405 50.6884 86.5495 51.2019C86.9043 52.0736 87.1981 52.9694 87.5275 53.8514C88.0723 55.3099 88.5188 56.8046 88.7884 58.3366C89.2297 60.8439 89.3136 63.3505 88.741 65.8491C88.2341 68.0613 87.2648 70.0245 85.4791 71.5075C84.7429 72.1189 83.9696 72.6942 83.1698 73.2214C80.599 74.9158 77.7594 75.4719 74.7398 74.9337C73.1906 74.6575 68.7356 73.8428 64.9298 69.7592C64.8575 69.6687 64.8042 69.5631 64.6962 69.392C64.9547 69.392 65.1296 69.3924 65.3044 69.3919C65.9402 69.3904 66.5775 69.4138 67.2114 69.3784C67.6778 69.3525 68.1485 69.2847 68.6016 69.173C68.9391 69.0899 69.1857 68.8026 69.2003 68.4585C69.2503 67.2873 69.291 66.1156 69.3458 64.9447C69.4106 63.5618 69.4789 62.1791 69.5609 60.7973C69.5911 60.2881 69.6416 59.1256 69.6416 59.1256ZM24.9912 69.214C24.9508 69.3154 23.4974 70.6064 22.6981 71.0212C21.2912 71.7513 17.7451 73.9229 12.7783 73.3361C6.00155 72.5353 2.40235 67.3514 2.1282 63.6441C2.01625 62.1304 2.15006 60.6246 2.23405 59.115C2.32451 57.4899 2.56717 55.8939 3.01524 54.3312C3.6286 52.1918 4.47634 50.1507 5.72842 48.2921C5.9181 48.0105 6.1452 47.7428 6.39861 47.5166C6.75295 47.2003 7.03704 47.2267 7.43555 47.4813C8.2889 48.0264 9.15221 48.5561 10.0125 49.0906C10.3354 49.2913 10.6771 49.4661 10.9821 49.6902C11.7342 50.243 12.0753 50.9885 11.8788 51.9084C11.7403 52.557 11.5565 53.1996 11.3425 53.828C10.9682 54.9276 10.741 56.0489 10.69 57.2078C10.5907 59.4619 11.4072 61.2476 13.402 62.4345C14.1075 62.8543 14.859 62.9527 15.6553 62.7489C16.6077 62.505 17.6291 62.0442 18.3485 61.398C19.2209 60.6145 20.7713 58.7909 20.8995 58.651C20.9349 59.0689 21.0847 64.9181 21.1348 67.527C21.1428 67.9409 21.1511 68.355 21.1773 68.768C21.2053 69.2108 21.2671 69.2633 21.7032 69.2577C22.6118 69.2458 24.8185 69.214 24.9912 69.214ZM69.171 28.5631C69.2994 29.2544 68.8144 55.1092 68.6341 55.7885C68.5262 55.5531 68.4437 55.3835 68.3699 55.2102C67.5937 53.3883 66.8259 51.5629 66.0419 49.7443C65.0724 47.4953 63.8586 45.3966 62.124 43.6275C60.8313 42.3092 59.5218 41.0093 57.8763 40.1086C55.8852 39.0186 53.8521 38.0338 51.6124 37.5271C50.9566 37.3788 50.4653 36.9601 50.2778 36.3001C50.0646 35.5495 50.116 34.7758 50.1281 33.9629C53.5948 33.6733 55.7849 31.7716 57.0707 28.7297L69.171 28.5631ZM36.0777 28.8812C36.0777 29.272 36.0675 29.6306 36.0801 29.9884C36.099 30.5188 36.2918 30.994 36.7425 31.2854C37.1475 31.5473 37.5965 31.7585 38.0511 31.9247C38.4909 32.0855 38.9595 32.1768 39.4215 32.2686C39.9337 32.3704 40.234 32.6782 40.3097 33.1649C40.3726 33.5693 40.3715 33.9855 40.3732 34.3967C40.3742 34.647 40.3195 34.8969 40.3025 35.1479C40.2336 36.1654 39.9531 36.494 38.9279 36.7197C38.1309 36.8952 37.3212 37.0226 36.5343 37.234C31.7808 38.5109 28.1531 41.1881 25.9952 45.6494C25.494 46.6858 25.0573 47.7534 24.6094 48.8142C23.8043 50.7208 21.8429 55.3351 21.8429 55.3351C21.7391 46.6811 21.8207 37.7082 21.7772 29.066C22.3559 28.9532 35.5016 28.7859 36.0777 28.8812ZM45.7611 50.6778C47.4164 50.8958 51.5637 50.3072 52.0453 50.2201C52.6155 50.1169 53.1913 50.0217 53.7687 49.9867C54.2695 49.9563 54.6027 50.1613 54.652 50.4595C54.7186 50.8616 54.4557 51.1136 54.1436 51.2702C53.7255 51.4799 53.2907 51.6929 52.8378 51.7928C50.5616 52.2948 45.6049 52.4522 45.4303 52.4522L45.0884 53.9192C45.1791 53.9634 47.0871 54.4803 49.1115 54.3837C49.9252 54.3118 50.7382 54.2231 51.5477 54.1139C52.4288 53.9949 53.3029 53.8211 54.1856 53.7181C54.498 53.6816 54.846 53.7294 55.1437 53.8339C55.59 53.9905 55.7156 54.4186 55.4388 54.7982C55.2859 55.0078 55.0614 55.2025 54.8254 55.3079C54.4487 55.476 54.0456 55.6119 53.6366 55.6811C50.2 56.2627 46.914 55.8863 46.4545 55.8563C46.7396 56.412 46.9809 56.8914 47.2304 57.3665C47.4823 57.8462 47.8582 58.1409 48.4281 58.1748C49.0077 58.2093 52.1632 58.2931 53.1618 58.3163C53.5546 58.3254 54.5829 58.4137 54.6821 58.873C54.7813 59.3321 53.6688 59.5991 53.2827 59.6708C51.8281 59.941 48.2161 59.9378 47.9997 59.9378C48.2541 60.7083 48.4568 61.4531 48.7467 62.163C49.0447 62.8924 49.8224 63.022 50.6066 62.8565C51.1565 62.7406 51.6929 62.56 52.2438 62.4507C52.595 62.381 52.9684 62.3335 53.3203 62.3741C53.9417 62.4457 54.1483 63.0221 53.7228 63.481C53.5198 63.7 53.2499 63.8781 52.9784 64.0111C52.1036 64.4398 51.1697 64.6435 50.1918 64.666C49.212 64.6885 48.4926 64.3082 47.9935 63.4497C47.4126 62.4507 47.0932 61.3719 46.8622 60.2584C46.6686 59.3248 46.4913 58.388 46.1134 57.5036C45.8922 56.9858 45.6281 56.4951 45.2095 56.1049C44.5374 55.4785 43.56 55.521 42.9168 56.175C42.4391 56.6608 42.2123 57.2657 42.0726 57.8983C41.9215 58.582 41.8435 59.2813 41.7274 59.9728C41.5877 60.8051 41.4878 61.6478 41.2848 62.4651C41.0851 63.2697 40.4998 63.7287 39.6716 63.8863C38.7333 64.0648 37.7929 64.0657 36.8503 63.9454C36.1631 63.8577 35.4786 63.7316 34.8694 63.3916C34.577 63.2284 34.2865 63.0101 34.0865 62.7484C33.7995 62.3729 34.0112 61.9443 34.4796 61.8674C34.637 61.8415 34.8088 61.8512 34.9658 61.8838C35.2852 61.9501 35.5995 62.0411 35.9149 62.1253C36.6684 62.3263 37.4141 62.563 38.176 62.7242C39.5197 63.0084 39.9915 62.7329 40.4707 61.472C40.6736 60.9381 40.7918 59.4397 40.7918 59.4397C40.0769 59.558 39.122 59.7112 38.4053 59.7859C37.079 59.9243 35.7542 59.8107 34.4361 59.6504C33.8605 59.5804 33.2844 59.4814 32.7739 59.1714C32.4109 58.9511 32.2462 58.6582 32.3234 58.332C32.4113 57.9608 32.6988 57.8027 33.0388 57.7653C33.3049 57.736 33.584 57.7579 33.8498 57.8016C34.6377 57.9311 35.4173 58.1191 36.2087 58.2173C37.4617 58.3729 38.7117 58.3556 39.9249 57.9313C40.8226 57.6173 41.4341 57.0253 41.7336 56.1248C41.8883 55.6599 41.7872 55.5194 41.3078 55.5462C40.8179 55.5736 40.3286 55.6151 39.8383 55.6318C38.1319 55.6898 36.4249 55.8034 34.721 55.5786C33.9768 55.4805 33.2458 55.3477 32.639 54.8648C32.3796 54.6582 32.2415 54.392 32.3398 54.0563C32.4316 53.7428 32.6865 53.5788 32.9847 53.5489C33.3052 53.5167 33.6401 53.5269 33.9571 53.5832C34.4027 53.6622 34.8321 53.8327 35.2781 53.9069C36.0998 54.0437 36.9292 54.2359 37.7542 54.2308C39.3894 54.2208 41.0077 53.9569 42.6195 53.6843C42.8267 53.6492 43.0321 53.6039 43.2676 53.5577L43.078 52.3185C42.8534 52.3008 39.7119 52.0329 38.3536 51.7829C36.595 51.4591 34.1949 50.5988 33.8156 50.303C33.4665 50.0306 33.3731 49.5014 33.5749 49.158C33.7611 48.8412 34.0995 48.8502 34.5196 48.9553C35.1171 49.105 37.4357 50.2341 41.0377 50.6638C41.623 50.7445 42.2151 50.7764 42.8723 50.8369C42.854 50.2523 42.8153 49.7608 42.7085 49.2413C42.7085 49.2413 41.5649 49.2151 40.7363 49.133C39.4015 49.0008 37.6005 48.5061 36.4198 47.8785C36.0451 47.6793 35.7088 47.3869 35.4046 47.0877C35.2147 46.9008 35.1229 46.624 35.3088 46.3459C35.4863 46.0805 35.7652 45.9477 36.1119 46.0372C36.3903 46.1091 38.3807 47.2473 42.5632 47.5502L42.4496 46.0695C40.8891 45.9259 38.8828 45.5619 37.5664 45.0868C37.1306 44.9296 36.7121 44.6816 36.3435 44.4007C36.0983 44.2137 35.9039 43.9168 35.7798 43.6296C35.6102 43.2371 35.7848 42.95 36.2094 42.8792C36.4705 42.8356 36.7604 42.8387 37.0148 42.9053C37.4333 43.0149 37.8506 43.159 38.2382 43.349C39.3495 43.8938 42.1339 44.2342 42.3585 44.23C42.2714 43.3884 42.1938 42.62 42.1119 41.852C42.0061 40.8611 42.4112 40.3662 43.4053 40.3543C44.1124 40.3458 44.8207 40.3989 45.5277 40.4373C45.762 40.45 45.9978 40.4871 46.2265 40.5401C46.5628 40.618 46.771 40.8191 46.7575 41.1869C46.7357 41.7788 46.7271 42.3717 46.6851 42.9623C46.6488 43.4735 46.5738 43.9819 46.5126 44.5214C46.6823 44.5328 46.7702 44.5437 46.8579 44.5438C48.2823 44.545 49.6822 44.3968 51.0412 43.9375C51.3611 43.8294 51.7144 43.7952 52.0551 43.7776C52.3574 43.7619 52.6412 43.8688 52.7514 44.1897C52.8598 44.505 52.706 44.7534 52.4776 44.9544C52.3293 45.0849 52.1671 45.2074 51.9928 45.2996C51.7366 45.435 51.4717 45.5536 51.1999 45.6548C50.3599 45.968 49.484 46.1196 48.5917 46.1728C47.855 46.2166 47.1167 46.2367 46.3454 46.2687L46.255 47.3446C47.2502 47.4472 48.1885 47.4861 49.1323 47.4228C50.1474 47.3548 51.1633 47.297 52.1797 47.2495C52.4309 47.2378 52.695 47.2453 52.9352 47.3099C53.3548 47.4227 53.4963 47.8142 53.23 48.1521C53.0683 48.3573 52.8436 48.5517 52.6048 48.6513C52.1565 48.8383 51.6862 48.9969 51.2096 49.0897C49.629 49.3974 46.1508 49.2928 45.9955 49.2928L45.7611 50.6778ZM61.7064 144.467C61.8462 144.594 65.6662 148.571 66.8304 149.445C68.962 151.046 71.189 152.501 73.4977 153.836C74.1721 154.226 74.8436 154.622 75.5028 155.037C75.745 155.189 75.9767 155.378 76.1622 155.594C76.4666 155.947 76.3909 156.37 75.9876 156.602C75.7722 156.726 75.5224 156.829 75.2779 156.859C74.7212 156.927 74.1542 157.005 73.5985 156.97C72.6214 156.907 71.6482 156.774 70.6758 156.651C68.7631 156.41 66.8822 156.021 65.0287 155.487C63.244 154.972 61.8054 154.047 60.877 152.398C60.6074 151.92 60.2081 151.504 59.8245 151.099C59.4692 150.725 59.0058 150.507 58.4786 150.451C57.7803 150.376 57.2161 150.727 57.0191 151.395C56.9387 151.668 56.8966 151.96 56.8911 152.245C56.881 152.766 56.9147 153.288 56.9227 153.809C56.9269 154.079 56.9355 154.35 56.9068 154.617C56.8398 155.239 56.4986 155.593 55.8679 155.684C55.0724 155.798 54.2733 155.799 53.4787 155.67C53.0049 155.592 52.779 155.37 52.6885 154.901C52.6513 154.708 52.6515 154.508 52.6387 154.311C52.5759 153.342 52.5069 152.373 52.4544 151.403C52.3709 149.859 52.2872 146.109 52.3231 145.748C53.2968 146.1 55.4703 145.971 55.6154 145.965C57.7279 145.872 59.7348 145.361 61.7064 144.467ZM23.1192 147.602C23.1037 147.849 23.3009 150.974 23.3581 151.744C23.4139 152.497 23.5142 153.248 23.5207 154.001C23.5273 154.764 23.1916 155.083 22.4228 155.113C21.6791 155.143 19.8637 155.091 19.7046 155.057C19.1011 154.926 19.187 154.605 19.1142 153.996C19.0608 153.551 19.0606 153.099 19.0201 152.651C18.9976 152.402 18.9696 152.147 18.8944 151.91C18.7111 151.333 17.7394 151.237 17.351 151.7C17.0781 152.026 16.8777 152.42 16.6946 152.807C16.5105 153.197 16.3945 153.617 16.2368 154.019C15.9905 154.647 15.7302 155.01 15.0442 155.059C14.7013 155.084 14.3526 155.114 14.0127 155.08C12.947 154.974 11.8848 154.835 10.8203 154.716C8.18594 154.424 5.54771 154.162 2.91798 153.833C1.8046 153.694 0.706917 153.426 -0.393692 153.197C-0.67437 153.138 -0.944023 153.016 -1.20956 152.902C-1.4333 152.805 -1.6301 152.656 -1.61502 152.382C-1.60129 152.132 -1.39951 152.017 -1.19369 151.934C-0.992455 151.853 -0.785301 151.779 -0.574181 151.73C1.23501 151.311 3.902 150.704 5.60497 149.973C6.18722 149.724 6.78712 149.511 7.38637 149.303C9.83154 148.453 11.2182 147.333 13.3707 145.9C13.5515 145.779 14.2722 145.231 14.2722 145.231L14.6227 145.495C16.2729 146.738 18.1914 147.32 20.1904 147.676C20.7929 147.783 22.6528 147.671 23.1192 147.602ZM30.0274 69.3927C30.7272 69.3927 31.3234 69.3949 31.9196 69.3924C35.8429 69.3757 39.7663 69.3451 43.6895 69.344C48.0845 69.3426 57.2081 69.3499 57.3375 69.3654C57.349 69.4697 56.8657 71.2334 55.6586 72.2332C54.2643 73.3254 52.6764 74.0159 50.945 74.3644C47.3426 75.0895 43.7138 75.2985 40.0579 74.8183C37.5171 74.4845 35.0091 73.988 32.5458 73.2868C31.9919 73.129 31.4515 72.9013 30.9342 72.6471C30.3721 72.3709 30.0036 71.901 29.8817 71.2787C29.7544 70.6292 29.9752 70.0096 30.0274 69.3927ZM79.2243 50.9581C79.1077 51.0215 79.0005 51.0609 78.9163 51.1285C78.509 51.455 78.3234 51.9025 78.2924 52.4016C78.2355 53.3186 78.2451 54.2263 78.5572 55.1187C78.8775 56.0345 79.1447 56.9695 79.4063 57.904C79.7375 59.0869 79.6919 60.2936 79.5294 61.4925C79.3857 62.5527 78.8292 63.3459 77.7772 63.6989C76.8927 63.9957 76.0104 63.9945 75.1254 63.6063C73.7875 63.0194 72.6101 62.2195 71.7226 61.0711C71.0742 60.2321 69.7209 58.0451 69.7209 58.0451C69.7312 56.4988 69.763 52.6986 69.7836 52.4979C70.3008 52.5747 73.4594 52.3759 74.6082 52.2608C76.2008 52.1012 76.5577 51.4502 76.5349 50.0821C76.5315 49.8759 76.5344 49.6696 76.5344 49.3976C77.5836 49.7025 78.3971 50.2115 79.2243 50.9581ZM14.6882 47.8462C14.6882 48.1456 14.7255 49.2895 14.786 49.6233C14.9007 50.2566 15.279 50.7067 15.8873 50.9223C16.3115 51.0727 16.7556 51.2171 17.1999 51.253C18.2114 51.3347 19.2285 51.3491 20.2435 51.3879C20.4352 51.3952 20.6273 51.389 20.8321 51.389C20.8506 51.5501 20.8969 55.2646 20.8893 56.9726C20.8893 56.9726 19.5523 59.214 18.8392 59.9617C18.173 60.6603 17.4097 61.225 16.5253 61.6401C15.4228 62.1575 14.2339 61.9798 13.3189 61.1031C12.4861 60.3051 11.9517 59.3456 11.642 58.2495C11.4319 57.5056 11.3899 56.7624 11.6255 56.0184C11.8914 55.1785 12.1728 54.3433 12.434 53.502C12.5509 53.1255 12.6725 52.7442 12.7272 52.356C12.884 51.2433 12.5956 50.2201 12.0002 49.2577C12.7755 48.5875 13.6365 48.0992 14.6882 47.8462ZM39.4059 16.216C39.5013 16.4358 39.5635 16.5639 39.6134 16.6966C40.3471 18.646 41.4507 20.3652 42.9029 21.8649C43.4058 22.3843 43.9164 22.8972 44.4402 23.396C46.181 25.0537 48.1795 26.2371 50.5953 26.647C50.8262 26.6862 51.053 26.7613 51.2747 26.8394C51.4755 26.9101 51.6644 27.0098 51.7424 27.2956L37.1687 27.6256C37.2016 27.322 37.2616 27.0883 37.2438 26.8606C37.2149 26.4923 36.9655 26.2448 36.6663 26.0535C36.3428 25.8467 36.2785 25.5752 36.3709 25.2147C36.5111 24.6677 36.8308 24.2384 37.2238 23.8584C38.055 23.0548 38.413 22.0891 38.3757 20.94C38.3513 20.1875 38.389 19.4284 38.4636 18.6785C38.5498 17.8112 38.8467 17.0041 39.4059 16.216ZM21.8831 68.1938C21.8831 67.4864 21.8811 66.0541 21.8811 66.0541C21.8811 66.0541 24.458 61.0947 25.5405 58.684C26.4534 56.6513 27.2043 54.5434 27.9486 52.4416C28.6746 50.3915 29.2995 48.3064 29.9737 46.2382C30.0887 45.8853 30.069 45.5379 30.0357 45.1746C30.0018 44.8048 30.0134 44.4204 30.0776 44.0549C30.1575 43.6004 30.4615 43.3285 30.9101 43.1462C31.6058 42.8633 33.0465 43.4334 33.4107 43.9854C33.6846 44.4003 33.7593 44.8355 33.4656 45.2457C33.2277 45.5782 32.9362 45.8834 32.6252 46.1515C32.2592 46.4669 31.9715 46.8154 31.8096 47.2717C31.5991 47.8649 31.3676 48.4508 31.15 49.0416C30.4852 50.8462 30.033 52.7229 29.2282 54.4811C27.6173 58.0002 26.0445 61.5364 24.4189 65.0487C23.9212 66.1242 23.3029 67.145 22.7381 68.1938H21.8831ZM68.468 66.7396C68.468 66.7396 64.2331 59.6522 62.1685 56.5193C61.7122 55.8268 61.2521 55.1349 60.8357 54.4187C59.5285 52.1706 57.9634 50.0923 56.5091 47.9412C56.3439 47.6968 56.1278 47.4553 55.9069 47.2471C55.6329 46.9889 55.1111 46.9491 54.8924 46.6506C54.4797 46.0876 54.5695 45.218 55.0313 44.6962C55.6532 43.9933 56.3117 43.8625 57.0356 44.1376C57.7703 44.4169 58.2283 45.1983 58.0429 45.9639C57.9532 46.3343 58.0166 46.6319 58.184 46.9384C58.2788 47.1121 58.3777 47.2841 58.4848 47.4505C60.2413 50.1796 62.0246 52.8922 63.7498 55.6405C65.312 58.1292 68.5643 63.4703 68.5643 63.4703L68.468 66.7396ZM72.8922 46.0542C72.773 45.6704 73.3818 45.6627 73.6446 45.6625C74.152 45.662 74.6594 45.7025 75.1668 45.7239C75.4202 45.7346 75.6767 45.7683 75.9265 45.742C76.2695 45.706 76.4262 45.6956 76.4234 45.3927C76.4207 45.1063 76.3047 45.0012 75.919 44.9576C75.2877 44.8863 74.6539 44.8335 74.0245 44.7487C73.6845 44.7029 73.3481 44.6193 73.0167 44.5289C72.8377 44.4801 72.6784 44.3705 72.7039 44.146C72.7306 43.9114 72.9278 43.8597 73.1063 43.8661C73.4491 43.8784 73.8068 43.8789 74.1292 43.9774C75.2379 44.3166 76.3334 44.6979 77.4355 45.0582C77.6225 45.1193 77.8167 45.1908 78.0093 45.1964C78.3494 45.2062 78.6752 45.0264 78.6839 44.8433C78.6984 44.5406 78.4549 44.409 78.2326 44.2938C77.8628 44.1022 77.4712 43.9512 77.1046 43.7544C76.6427 43.5064 76.1784 43.2552 75.7486 42.9581C75.2839 42.6369 75.1445 42.3315 75.3158 42.1387C75.605 41.8131 75.9187 42.044 76.2137 42.1461C76.5039 42.2466 76.7876 42.3675 77.0688 42.4913C77.7306 42.7827 78.4294 43.0164 79.0411 43.3894C80.5591 44.315 81.781 45.5718 82.8575 46.9695C82.9561 47.0975 83.0337 47.2419 83.1167 47.3812C83.5828 48.162 83.3307 48.6748 82.8036 49.1513C82.1243 49.7653 81.3008 50.0837 80.4142 50.2534C80.068 50.3197 79.7499 50.2547 79.4436 50.0276C78.5078 49.3335 77.4704 48.8219 76.3821 48.3968C75.4665 48.0391 74.5358 47.8784 73.5565 47.979C73.2934 48.006 72.8441 48.1474 72.739 47.8578C72.634 47.5683 73.6531 47.082 74.9678 47.1796C75.1656 47.2061 75.3628 47.2423 75.5615 47.2535C75.7801 47.2659 75.8905 47.1409 75.9191 46.9307C75.9813 46.4722 75.8273 46.3766 75.3474 46.3364C75.0237 46.3093 74.6946 46.328 74.369 46.3459C74.0793 46.3619 73.7916 46.4208 73.5019 46.4305C73.3181 46.4366 73.0113 46.4381 72.8922 46.0542ZM7.65907 46.5416C7.78257 46.2981 7.77631 46.2834 7.86196 46.1487C9.59444 43.4245 12.0326 41.539 14.9936 40.2772C15.0934 40.2347 15.201 40.1726 15.3016 40.1782C15.4508 40.1865 15.6438 40.2029 15.7341 40.2958C15.88 40.4462 15.7878 40.6354 15.6535 40.7747C15.5536 40.8783 15.4453 40.9775 15.3269 41.0589C14.8646 41.3764 14.3954 41.684 13.9317 41.9993C13.5878 42.2331 13.2365 42.4586 12.9099 42.7145C12.5293 43.0127 12.4902 43.1413 12.6244 43.374C12.7996 43.6778 13.0592 43.5681 13.2981 43.497C13.5758 43.414 13.8493 43.3179 14.1177 43.209C14.4367 43.0797 14.7458 42.9269 15.0627 42.7921C15.9272 42.4243 16.8325 42.2646 17.7712 42.2945C17.9655 42.3007 18.1866 42.2822 18.2801 42.5175C18.4262 42.8854 18.2196 43.253 17.822 43.3221C17.6994 43.3435 17.5701 43.3274 17.4439 43.3284C16.6625 43.3343 15.8805 43.348 15.1339 43.6125C15.0168 43.6539 14.8534 43.7804 14.8499 43.8728C14.8446 44.0125 14.9265 44.197 15.035 44.288C15.1473 44.3823 15.3343 44.4187 15.491 44.4251C15.7617 44.4362 16.0341 44.3994 16.3061 44.3918C16.7231 44.3802 17.1419 44.3507 17.5566 44.3782C17.8304 44.3963 18.4947 44.3731 18.4736 44.7558C18.4525 45.1385 17.6979 44.8521 17.398 44.8321C16.8392 44.7949 16.2792 44.7364 15.7207 44.7457C15.3915 44.7511 15.2554 45.0302 15.307 45.423C15.3423 45.6915 15.4527 45.7646 15.826 45.741C16.1155 45.7228 16.4043 45.6648 16.693 45.6675C17.3659 45.6737 18.5324 45.9269 18.3988 46.4494C18.2652 46.9718 17.4086 46.9405 17.1299 46.9279C16.4396 46.8967 15.3093 46.878 14.6335 47.0819C13.2352 47.5039 12.5398 47.8331 11.3399 48.6694C11.3399 48.6694 10.8801 48.3085 10.6451 48.1693C9.67693 47.5958 8.55359 46.8733 7.65907 46.5416ZM53.4423 28.6767C53.2295 29.0647 52.9084 29.3143 52.6 29.5871C52.0514 30.0724 51.4142 30.4316 50.704 30.6114C49.704 30.8647 48.6971 31.1101 47.6792 31.2724C45.0262 31.6952 42.3609 31.5942 39.6984 31.3489C39.1936 31.3024 38.6895 31.2278 38.1917 31.1322C37.83 31.0627 37.4885 30.9163 37.3323 30.5428C37.1079 30.0064 37.0152 29.4494 37.0903 28.7943L53.4423 28.6767ZM69.9204 40.081C70.5785 40.0271 71.1717 39.9609 71.7667 39.9346C72.4194 39.9058 73.0744 39.8936 73.7272 39.9133C74.1407 39.9257 74.2205 40.0549 74.1882 40.4659C74.1628 40.7886 74.1336 41.111 74.1085 41.4337C74.0668 41.9679 74.0356 42.6671 73.9959 43.1913C73.7179 43.0582 73.1508 43.0382 72.7818 43.1477C72.4105 43.2579 72.1519 43.5687 72.0602 43.9644C71.9626 44.3853 72.1729 44.7271 72.4227 45.0615C71.6534 45.7503 71.8511 46.4418 72.4239 47.1255C72.2324 47.3251 72.0605 47.4829 71.9141 47.6613C71.5847 48.0626 71.6742 48.5269 72.1579 48.7174C72.4706 48.8405 72.8251 48.8664 73.1638 48.9154C73.4284 48.9536 73.6977 48.9601 73.9719 48.9813C73.6886 50.1986 73.2953 50.5735 72.1573 50.6982C71.3574 50.786 70.5734 50.6317 69.7401 50.5205L69.9204 40.081ZM58.1091 68.3037C58.0446 67.8461 57.9948 67.4201 57.9234 66.9976C57.663 65.4564 57.38 63.9187 57.1416 62.3743C57.0827 61.9929 57.1038 61.5787 57.188 61.2014C57.3 60.6999 57.5973 60.625 57.961 60.9883C58.2528 61.2797 58.5134 61.6101 58.7433 61.9525C60.0907 63.9587 61.4251 65.9733 62.7628 67.9858C62.8197 68.0714 62.8656 68.1641 62.9453 68.3038L58.1091 68.3037ZM20.7788 39.9786V49.1017C20.1662 49.1616 19.5725 49.2343 18.9766 49.2709C18.7272 49.2862 18.4672 49.2494 18.2225 49.1924C17.8803 49.1126 17.6361 48.9057 17.5905 48.5353C17.5626 48.3088 17.5508 47.8682 17.5391 47.7289C17.5391 47.7289 18.4819 47.5389 18.8429 47.2637C19.3381 46.8861 19.3643 46.4543 19.0459 45.9279C18.9832 45.8242 18.9169 45.7226 18.8595 45.6315C19.493 44.7234 19.4919 44.4353 18.8612 43.627C19.1759 43.2161 19.4301 42.7805 19.1305 42.2496C18.843 41.7401 18.3779 41.5623 17.8063 41.6401C17.7881 41.3146 17.7614 41.0461 17.761 40.7776C17.7604 40.4331 17.8999 40.2085 18.1867 40.1803C19.0152 40.0989 19.847 40.0487 20.7788 39.9786ZM42.3069 39.5197C42.4967 40.0462 41.7975 40.1636 41.3816 40.2378C39.3014 40.6092 37.1991 40.7434 35.0899 40.7518C34.5882 40.7538 34.0841 40.6204 33.5846 40.5306C33.3219 40.4835 33.1501 40.2763 33.1625 40.0369C33.1709 39.8744 33.3201 39.681 33.4621 39.5739C33.6126 39.4603 33.8246 39.4118 34.0175 39.3702C36.385 38.8602 38.7725 38.8064 41.1708 39.0948C41.5626 39.1419 42.1515 39.0887 42.3069 39.5197ZM29.5102 68.1376H27.0213C27.0213 68.1376 28.7115 64.8271 29.4132 63.2096C29.7063 62.5342 30.3259 60.7318 30.6967 60.7563C31.0675 60.7807 30.9404 61.9174 30.8707 62.229C30.5965 63.4555 30.2904 64.6751 30.005 65.8993C29.8341 66.6323 29.6795 67.369 29.5102 68.1376ZM53.0842 41.2102C51.1917 41.3078 49.5909 40.9682 47.985 40.6741C47.8612 40.6514 47.7388 40.6109 47.6217 40.5642C47.4235 40.4849 47.2812 40.3499 47.2797 40.1233C47.2782 39.895 47.42 39.7569 47.6224 39.6879C47.7764 39.6353 47.9356 39.5991 48.0972 39.58C49.5657 39.4089 51.036 39.4356 52.4964 39.6357C53.1937 39.7312 53.8809 39.9198 54.5617 40.1058C54.926 40.2054 55.1098 40.4984 55.0822 40.7779C55.0568 41.0355 54.8571 41.1866 54.4199 41.205C53.8945 41.2271 53.3673 41.2102 53.0842 41.2102ZM44.8397 39.302C43.7797 39.4016 42.9959 39.0363 42.9283 38.7223C42.8566 38.3894 43.0699 38.1771 43.325 38.0225C44.002 37.6122 45.1835 37.5011 46.1462 37.8264C46.4315 37.9228 46.6338 38.1423 46.6245 38.4761C46.6157 38.7919 46.1249 39.1812 44.8397 39.302ZM44.5531 64.5905C43.0709 64.5905 42.7662 64.097 42.7442 63.9282C42.7248 63.779 42.7904 63.6058 42.9355 63.426C43.5992 62.6025 45.2561 62.5822 45.943 63.3895C45.9783 63.4305 46.011 63.4736 46.0408 63.5187C46.1453 63.6795 46.1956 63.8284 46.1912 63.9587C46.184 64.176 46.0352 64.5905 44.5531 64.5905ZM43.186 66.5625C42.911 66.3613 42.8474 66.0905 43.0296 65.8072C43.1336 65.6453 43.2807 65.4971 43.4391 65.3852C44.0313 64.9673 45.3546 65.0278 45.9184 65.4804C46.1304 65.6506 46.2576 65.8577 46.2063 66.1361C46.1552 66.4136 45.8017 66.8542 44.6274 66.8542C44.013 66.8542 43.3599 66.6898 43.186 66.5625ZM44.3263 62.2336C42.9875 62.2336 42.7632 61.6577 42.74 61.5289C42.7165 61.3987 42.7861 61.244 42.9353 61.05C43.2917 60.5862 43.7801 60.3622 44.3492 60.3757C44.823 60.3868 45.2854 60.5071 45.6212 60.8899C45.811 61.1062 45.9017 61.3051 45.8923 61.479C45.8802 61.7025 45.665 62.2336 44.3263 62.2336ZM43.2026 34.6849C43.1675 34.3355 44.002 33.8409 45.1138 33.7987C47.0473 33.7253 47.0496 34.5783 46.7578 34.7942C46.5733 34.9306 46.3519 35.0442 46.1296 35.0997C45.7201 35.2018 45.3062 35.2544 44.8917 35.2502C44.5841 35.2471 43.2377 35.0339 43.2026 34.6849ZM45.1506 58.4155C45.4851 58.4885 45.6663 58.6798 45.6872 58.9372C45.7115 59.2349 45.6017 59.3954 45.2777 59.5597C44.6015 59.9024 43.8892 59.9151 43.1673 59.7718C42.9977 59.7382 42.825 59.6466 42.6891 59.5383C42.4698 59.3635 42.3275 59.1315 42.419 58.8325C42.5006 58.5656 42.7532 58.4087 43.0992 58.4057C43.5856 58.4016 44.9586 58.3736 45.1506 58.4155ZM45.3455 32.1031C46.572 32.052 46.8359 32.3819 46.8852 32.5242C46.9509 32.7135 46.7793 32.8445 46.597 32.9198C45.5409 33.3563 44.4598 33.478 43.3519 33.1486C43.2129 33.1073 43.0252 32.9872 42.9971 32.8711C42.9426 32.6466 43.2794 32.1892 45.3455 32.1031ZM44.7082 37.1655C43.6824 37.1442 43.2475 36.9424 43.2017 36.65C43.1566 36.3619 43.7899 35.7131 45.0355 35.7405C46.2811 35.7678 46.4808 36.3052 46.4652 36.5494C46.4481 36.8172 45.734 37.1868 44.7082 37.1655ZM53.5817 43.3123C53.3911 43.3119 53.2286 43.2188 53.1426 43.0765C53.0114 42.8593 53.1672 42.6183 53.3242 42.4663C53.8231 41.9834 54.2921 41.6872 54.9574 41.6004C55.2816 41.5581 55.4937 41.6694 55.5774 41.7842C55.659 41.8961 55.6999 42.2629 55.6244 42.3839C55.3805 43.0292 54.4756 43.314 53.5817 43.3123ZM42.661 68.351C42.661 68.351 42.9858 67.6661 43.877 67.4047C44.5049 67.2205 45.4917 67.3355 46.0934 67.5974C46.3591 67.7131 46.7099 67.9671 46.698 68.3062L42.661 68.351ZM44.0069 57.648C43.903 57.6404 43.7569 57.6408 43.615 57.6172C43.0399 57.5216 42.9091 57.2625 43.1804 56.7572C43.2393 56.6476 43.3124 56.5416 43.3965 56.4495C43.7643 56.0465 44.4399 56.0468 44.7838 56.473C44.944 56.6717 45.1783 56.8797 45.0591 57.1863C44.9316 57.5142 44.6437 57.6114 44.3187 57.6335C44.2285 57.6396 44.138 57.6421 44.0069 57.648ZM33.8885 41.2868C34.3496 41.3043 34.8102 41.4517 35.2122 41.756C35.3766 41.8804 35.5046 42.0412 35.4416 42.264C35.3714 42.5122 35.1519 42.6219 34.9342 42.5826C34.4751 42.4996 34.0124 42.3956 33.5785 42.2301C33.2677 42.1114 33.1691 41.8491 33.2301 41.6285C33.2911 41.408 33.499 41.2927 33.8885 41.2868Z" fill="#0C0E1E"/>
</g>
</g>
</g>
<defs>
<clipPath id="clip0_11_1665">
<rect width="90" height="90" fill="white"/>
</clipPath>
<clipPath id="clip1_11_1665">
<rect width="92.7155" height="149.195" fill="white" transform="matrix(-1 0 0 1 89.9917 8.71704)"/>
</clipPath>
</defs>
</svg>
