<?xml version="1.0" encoding="UTF-8"?>
<svg id="Calque_1" xmlns="http://www.w3.org/2000/svg" version="1.1" viewBox="0 0 74 75.9">
  <!-- Generator: Adobe Illustrator 30.5.1, SVG Export Plug-In . SVG Version: 2.1.4 Build 3)  -->
  <path d="M72.6,44.2c-1.9-1-3.8-1.8-5.7-2.7-1-.4-1.7-.8-1.7-2.1,0-3.5-.8-7-1.8-10.3-.4-1.4,0-2.1,1.1-2.7,2-1,4-2.2,5.7-3.8.5-.5,1.1-1.2.8-1.9-.3-.7-1.2-.8-2-.7-2.2.3-4.3,1-6.3,1.8-1.4.6-2.5.3-3.4-.9-1.3-1.7-2.7-3.4-4.5-4.8-1.1-.9-1.2-1.8-.6-3,.8-1.6,1.5-3.2,2.2-4.9.3-.7.6-1.7-.2-2.3-.9-.7-1.5.3-2,.8-1.8,1.6-3.3,4.3-5.3,4.7-2.2.5-4.7-1.2-7.2-1.8-1.6-.4-2.6-1.1-2.6-3,0-1.8-.6-3.5-1.2-5.2-.2-.6-.3-1.5-1.1-1.4-.9,0-1,1-1,1.7-.1,1.5-.2,3.1,0,4.6.1,1.6-.5,2.4-2.1,2.6-3.6.6-7.1,1.8-10.3,3.5-1.3.7-2,.4-2.9-.6-1.1-1.3-2.2-2.6-3.5-3.8-.7-.6-1.5-1.9-2.4-1.3-1.1.8-.2,2.1.3,3.1.7,1.5,1.5,2.9,2.3,4.3.7,1.3.5,2.3-.7,3.4-2.3,2-4.2,4.3-5.6,7-.8,1.7-2,2.1-3.7,1.9-1.7-.2-3.4-.3-5.1-.4-.8,0-1.7.1-2,1.1-.2.9.7,1.2,1.3,1.6,1.5.8,3,1.7,4.5,2.4,1.4.7,1.9,1.6,1.5,3.1-.8,2.7-.8,5.5,0,8.2.5,2-.2,3-1.7,4-1.3.8-2.7,1.5-3.8,2.7-.6.6-1,1.4-.7,2.2.5,1,1.4.5,2.2.4,1.6-.4,3.2-.7,4.7-1.2,1.3-.4,2.2,0,2.7,1.3,1.5,3.5,3.9,6.4,7,8.6,1.3.9,1.4,1.9.8,3.4-.8,1.7-1.3,3.5-1.9,5.3-.2.8-.7,1.8.2,2.5.9.6,1.7-.2,2.3-.8,1-.9,2.1-1.8,3-2.8,1.5-1.8,3-2.6,5.4-1.6,1.4.6,3,.8,4.5.7,3.9-.2,7,.4,6.8,4.9h0c.7,1.3,1.1,2.2,1.6,3.1.2.4.5,1,1,.9.8,0,.7-.8.8-1.3.3-2.1.3-4.2.1-6.3-.1-1.1,0-1.8,1.3-2.1,3.3-.7,6.3-2.3,9-4.2,1.1-.8,1.9-.9,2.9.1,1.4,1.3,3,2.5,4.6,3.7.6.4,1.2,1.5,2,.7.6-.6.2-1.6-.2-2.3-.9-1.6-1.7-3.2-2.7-4.6-1.1-1.5-.8-2.6.2-3.9,1.6-2,2.9-4.1,3.9-6.5.5-1.3,1.3-1.8,2.6-1.7,1.9,0,3.7.2,5.6.2,1,0,2,0,2.3-1.4.2-1.1-.7-1.7-1.4-2.1ZM59.5,46.9c-2.9,7.3-8.7,11.6-12.8,13.5-18.7,7.9-33.4-4.1-36.5-17.1-1.2-5-.3-9.9,1.9-14.3,5-10.4,18.3-20,32.1-15.3,12.1,4,21.3,18.6,15.3,33.3Z"/>
  <path d="M39.9,18.8c-6.9-1.9-13,0-18.2,5.6-6.3,6.8-7.5,14.2-4.6,22.6h0c1.1,4.5,4.2,7.2,7.8,9.7,3.1,2.2,6.3,3.6,10.2,3.1,5.1-.7,10.5-1.4,14-5.5,5.8-6.7,8.5-14.2,4.7-23.2-2.7-6.5-7.6-10.6-13.9-12.3ZM50.6,33c4.4,9.6-2.3,18.8-10,22.1-9.8,4.2-18.6-2.6-21.2-9.4-3.2-8.4,1.5-18.9,10.1-22.3,9.2-3.6,17.4.1,21,9.5h0Z"/>
  <path d="M31.5,30.6h0c-5.1,2.3-7.5,8.9-5.1,14.1,2,4.4,7.5,6.7,11.6,4.9,4.9-2.1,8.2-9.7,5.9-14.2-2.6-5.1-6.6-6.9-12.4-4.9ZM37.5,46.4c-3.1,1.3-7-1-8.5-5h0c-1.2-3.1,0-5.9,2.8-7,3.2-1.2,8.7.6,9.6,3.2,1,2.7-1.2,7.6-3.9,8.7Z"/>
</svg>