<?xml version="1.0" encoding="UTF-8"?>
<svg id="Calque_1" xmlns="http://www.w3.org/2000/svg" version="1.1" viewBox="0 0 78 74">
  <!-- Generator: Adobe Illustrator 30.5.1, SVG Export Plug-In . SVG Version: 2.1.4 Build 3)  -->
  <path d="M27.2,10c2.5,1.6,5.1,3.2,7.6,4.8.7.4.8.4,1.3-.4,1.3-1.9,2.5-3.9,3.8-5.8.4-.6.8-1.2,1.2-1.8.4-.6.3-1.1-.2-1.4-2.6-1.7-5.2-3.4-8-5.2-.2-.1-.5,0-.7.1-1.9,2.9-3.8,5.8-5.7,8.6-.1.2-.1.5,0,.7.2.2.3.3.5.4Z"/>
  <path d="M46.8,29.8c1.4,1.1,3,1.8,4.9,1.6,1.7-.2,3.3-.5,4.8-1.4,3.5-2.1,5.1-6.3,4-10.5-1.1-3.8-4.6-6.5-9.2-6.4-2.7.2-5.3,1.5-6.9,4.5-1,2-1.3,4.2-.7,6.5.6,2.1,1.4,4.2,3.2,5.7ZM47.3,15.7c1.8-1.2,3.8-1.6,6-1.2,3.9.8,6.8,4.5,6.4,8.4-.4,4.2-3.8,7.4-7.8,7.4-1.8,0-3.3-.6-4.6-1.9-2-2-3.1-4.4-3-7.2,0-2.3,1-4.3,3.1-5.6Z"/>
  <path d="M77.8,59c-.2-.4-.4-.8-.7-1.1-3.8-5-7.6-10-11.4-15-1-1.3-1.1-1.3-2.5-.4-.6.4-3.2,2.4-6.2,4.6-.8-4.3-1.7-8.5-2.1-10.4,0-.3-.3-.5-.6-.4-2.2.3-6.2,1-10.3,1.6-3.5-5.6-10.8-7.3-15.5-7.2-.8,0-1.6.1-2.4.2-1.8-2.7-3.7-5.4-4.3-6.2-.2-.3-.4-.6-.6-.9-.4-.5-.6-.5-1.2-.2-3.7,2.4-7.4,4.8-11.2,7.2-.2.1-.4.3-.6.4-.5.3-.6.7-.3,1.2.3.5.5,1,.8,1.4.7,1.1,3.4,5.6,5.3,8.8-.2.9-.3,1.9-.4,2.9-6.5-1.8-12.3,3.6-13.3,7.3h0c-.6,2.5-.7,5,0,7.5,1.5,4.8,5.8,7.9,10.5,7.6,4-.3,7.5-2.1,9.5-5.6.2-.4.4-.8.6-1.3.2,0,.4.2.5.2,4.3,1.5,8.6,1.4,13,.3.3,1.2.4,2,.5,2.1,0,.2,0,.4,0,.5.2.8.4,1,1.3.8,1-.2,7.3-1.4,13-2.5,3.3,3.8,7.5,8.6,9,10.5.1.2.3.3.5.5.3.3.7.3,1,0,.5-.4,1-.8,1.6-1.2,4.6-3.5,9.2-7.1,13.8-10.6.8-.6,1.5-1.2,2.2-1.8.5-.3.5-.7.3-1.1ZM31.5,39.9c-1,.1-1.4.5-1.2,1.7.9,4.2,3,13.9,4.1,19.1-5.2,1.5-9.5.7-12.7-1.4,1-4.6-.4-10-6.1-12.8,0,0-.2,0-.3-.1,0-.5,0-1,0-1.4,0,0,0,0,0,.1.2.3.6.4,1,.2,2.5-1.4,10.7-6.6,13.1-8.1.3-.2.4-.7.2-1-.6-.8-1.6-2.3-2.7-4,1-.1,2-.2,3-.2,4.9.1,9.1,2.2,12,5.7.1.1.2.3.3.4-4.9.8-9.6,1.5-10.8,1.7ZM59.7,72.7c-1.5-1.9-5.4-6.4-8.6-10.2,3.7-.7,6.8-1.3,7.6-1.5.8-.2.9-.3.7-1-.2-.8-1.2-6.2-2.3-11.6,3.3-2.5,6.2-4.7,7.1-5.4,4.2,5.6,8.3,11.1,12.5,16.6-5.7,4.4-11.4,8.7-17.1,13.1Z"/>
</svg>