<?xml version="1.0" encoding="UTF-8"?>
<svg id="Calque_1" xmlns="http://www.w3.org/2000/svg" version="1.1" viewBox="0 0 89 69.9">
  <!-- Generator: Adobe Illustrator 30.5.1, SVG Export Plug-In . SVG Version: 2.1.4 Build 3)  -->
  <path d="M88.3,64c-2-2.7-3.4-5.5-4.4-8.5-3.4-10-5.8-20.3-7.7-30.5-1.3-6.8-3-13.6-1.9-20.6,0-.6-.2-1.5-.8-2-.7-.5-2.1-.8-3-.9-5.7-.5-11.4-1.2-17.2-1.3-9.5-.2-19,0-28.5-.1C18,.1,11.3,0,4.6,0,1.4,0,.4.9.2,3.6.1,6.8,0,10,0,13.2c0,4.5,0,9,.2,13.5.4,8.2.8,16.5,1.5,24.7.4,5,1.4,10,2.1,15.1.1,1,.7,1.3,1.6,1.5.9.2,1.7.3,2.6.3h0c5.1.3,31.4,1.5,39.6,1.7,9.2.2,18.2-.4,27.3-1.2,4.3-.4,8.6-.7,12.6-2.2,1.9-.7,2-.9.9-2.4ZM77.6,65.4c-11,1.7-22.2,2-33.4,1.7-11-.3-22-.7-33-1.1-1.5,0-3-.2-4.6-.3-.3-2.9-.6-5.9-.9-8.8-.7-7.1-1.4-14.1-2-21.2-.5-5.7-.9-11.3-1.3-17-.3-4.1-.4-7.5-.6-11.6,0-1.5,0-3.6,0-5.2,1.1,0,1.8,0,2.5,0,16.6,1.4,33.1,1.7,49.7,1.5,5.3,0,10.7-.1,15.9,1.2.9.2,1.2.5,1,1.3-1.2,9,0,18,1.5,27,1.3,7.9,2.9,15.8,5.9,23.4,1.1,2.8,2.7,5.4,4.2,8.4h0c-1.6.2-3.4.5-5.1.8Z"/>
  <path d="M49.8,37.2h0c.2-.1.3-.3.5-.4h0c.2-.2.3-.4.5-.6h0c0-.1.1-.2.2-.4h0c.1-.3.2-.6.3-.8h0c0-.2,0-.4,0-.6,0-.3,0-.6,0-.8h0c0-.4,0-.6-.1-1,0-.4-.2-.8-.3-1.1h0c0-.3-.2-.5-.2-.7-.2-.4-.4-.8-.7-1.3h0c-.3-.6-.7-1.2-1.1-1.7h0c-.2-.4-.5-.6-.8-.9h-.1c-.3-.4-.6-.6-.9-.9h0c-.2-.2-.4-.3-.5-.4-.5-.3-1-.6-1.5-.9h0c-.5-.3-1-.5-1.6-.7.1-.1.2-.3.4-.5.2-.2.3-.4.4-.7.2-.3.3-.6.4-1,.1-.5.2-.8.2-1.2h0c0-.3,0-.5,0-.7,0-.4,0-.7,0-1.1-.1-.6-.2-1.1-.4-1.5-.1-.3-.3-.7-.5-1h0c-.1-.3-.3-.5-.5-.8-.2-.3-.4-.5-.6-.6,0,0,0,0-.1-.1,0,0-.2-.2-.3-.2-.2-.2-.5-.4-.8-.5-.3-.2-.6-.3-.9-.4-.4-.1-.7-.2-1.1-.3-.3,0-.6,0-.9,0,0,0-.1,0-.2,0h-.2c-.5,0-.9.2-1.3.3-.3.1-.7.3-1,.5-.3.2-.5.3-.7.5h0c0,.1-.1.2-.2.2-.2.2-.3.3-.5.5h0c0,.2,0,.2-.1.3-.1.2-.3.4-.4.6-.2.4-.3.8-.5,1.3-.1.4-.2.9-.2,1.4,0,.3,0,.6,0,1,0,.4.1.9.2,1.3.1.5.3.9.5,1.4.1.3.3.5.4.7h0c0,.2.2.3.3.5.1.1.2.3.3.4h0c-.5.3-1.1.6-1.6,1-.6.4-1.1.8-1.6,1.3h0c0,.2-.1.2-.2.3-.4.5-.8,1-1.2,1.5,0,0,0,.1-.1.2-.3.4-.5.8-.8,1.2h0c0,.2-.1.3-.2.4-.3.6-.6,1.2-.8,1.9-.1.4-.3,1-.4,1.8h0c0,.3,0,.5,0,.7,0,.3,0,.6,0,.9h0c0,.2.1.4.2.6h0c0,.2.1.3.2.5.1.2.3.4.4.6h0c0,.1.2.2.2.2h0c.3.3.5.4.6.4.2,0,.4.1.7.2.3,0,.7,0,1.1,0h0s0,0,0,0c.4,0,.9,0,1.3,0h1.2c1.8-.1,3.7-.2,5.5-.2h2.5c1.5,0,3-.1,4.6-.2h.3c.2,0,.3,0,.5,0h.2c.4,0,.7,0,1-.1.3,0,.5-.1.8-.3.1,0,.2-.1.4-.2ZM42.3,17.3c.2.2.3.3.4.5.2.3.3.6.4.8,0,.2.1.5.2.8,0,.2,0,.3,0,.5,0,.3,0,.5-.1.8h0c0,.2,0,.3,0,.4,0,.1-.1.3-.2.5-.2.3-.3.5-.5.7-.1.1-.3.3-.4.4-.2.1-.3.2-.5.4h-.2c-.2.2-.3.3-.5.3-.2,0-.4.1-.7.2-.4,0-.8,0-1.2,0h0c-.3,0-.6,0-.9-.2-.3,0-.4-.1-.6-.2-.3-.1-.5-.2-.7-.3-.1-.1-.3-.2-.4-.3h-.1c0-.2-.2-.3-.2-.3-.2-.2-.4-.5-.5-.7-.1-.2-.2-.4-.3-.7h0c0-.2,0-.3-.1-.4,0-.1,0-.3,0-.4h0c0-.2,0-.3,0-.4,0,0,0-.2,0-.3v-.2c.1-.3.2-.6.3-.9.1-.2.3-.5.4-.7.1-.2.3-.3.4-.4.2-.2.4-.4.6-.5.2-.1.4-.2.6-.3.2,0,.4-.2.7-.2.3,0,.5,0,.8,0,.3,0,.6,0,.9,0,.2,0,.4,0,.6.1.2,0,.5.2.7.3.2,0,.4.2.6.3.2.2.5.4.7.6ZM49.1,35.3c0,0,0,.2-.1.2,0,0,0,0-.1.1,0,0,0,0,0,0h0c0,0-.1,0-.2,0-.1,0-.3,0-.4.1,0,0-.2,0-.3,0h-.2c-.1,0-.3,0-.4,0h-.3c-1.2,0-1.8,0-2.5-.1-.6,0-1.2-.1-2.3-.1-1,0-2,0-2.9-.1-1.4,0-2.8-.2-4.2-.2h-.1c-.4,0-.6,0-.9,0-.3,0-.6,0-1,0,0,0,0,0,0,0-.2,0-.4,0-.7,0-.2,0-.5,0-.7,0-.2,0-.4,0-.7,0h-.4c0,0-.1,0-.2,0,0,0-.1,0-.1,0-.2,0-.4,0-.6,0,0,0-.2,0-.2,0,0,0-.2,0-.2-.1,0,0,0,0,0,0,0,0,0,0,0,0,0,0,0,0,0,0,0,0,0,0,0,0,0,0,0,0,0,0,0-.1,0-.2,0-.4,0-.2.2-.4.3-.6,0-.2.2-.3.2-.5.2-.3,1.6-3,2-3.5h.1c.2-.4.4-.7.7-.9h0c.5-.6.9-.9,1.3-1.2h.1c.1-.2.2-.3.4-.3h0c0-.1.2-.2.3-.2.4-.2.8-.4,1.3-.6.3-.1.7-.2,1.1-.3.5-.1,1.1-.1,1.7-.1.8,0,1.5,0,2.3.2h.1c.6.1,1.1.3,1.5.4.6.2,1.2.5,1.7.8.5.3,1,.6,1.4.9h.1c.1.2.3.3.4.4.5.5.9,1,1.3,1.5.4.5.7,1,.9,1.5.2.3.4,1,.5,1.5,0,.3.2.7.2,1.1,0,.3,0,.5,0,.8,0,0,0,0,0,0Z"/>
  <path d="M30.7,47.7c-.2-.6-.8-1.2-1.2-1.7-.3-.5-.7-1-1-1.4-.3-.3-.6-.7-1-1,0,0-.1,0-.2-.1-.2-.2-.3-.3-.5-.4,0,0,0,0,0,0-.3-.2-.5-.4-.8-.6-.5-.3-.7-.6-1.3-.8-.4-.2-.9-.3-1.3-.4,0,0,0,0,0,0h0c0,0,.1,0,.2-.1,0,0,.1,0,.2-.1,0,0,0,0,0,0,0,0,.1-.1.2-.2,0,0,0,0,0,0,.2-.2.4-.4.5-.6.1-.2.3-.4.4-.6.1-.2,0-.6,0-.9,0-.3,0-.4,0-.7,0-.3,0-.7,0-1,0,0,0,0,0,0,0,0,0-.1,0-.2,0-.3-.2-.6-.3-.9-.1-.3-.3-.5-.4-.8-.2-.2-.3-.5-.5-.7-.2-.2-.4-.3-.6-.5,0,0,0,0,0,0,0,0,0,0-.1,0-.2-.1-.1-.3-.3-.3-.3-.2-.5-.3-.9-.4-.2,0-.4-.1-.7-.1h0c-.5,0-1,0-1.5,0-.4,0-.7.2-1.1.3-.2,0-.4.2-.6.3,0,0,0,0,0,0-.1,0-.2.1-.3.2-.1,0-.2.2-.4.3,0,0,0,0-.1.1,0,0-.2.2-.3.3-.2.2-.3.4-.4.6-.2.3-.3.5-.4.8-.1.3-.2.6-.2.9,0,.3,0,.6,0,.9,0,.3,0,.6.1.9,0,.4.2.7.4,1.1,0,.2.2.4.3.5.1.2.3.4.5.6.1.1.3.3.5.4,0,0,.1,0,.2.1,0,0,0,0,.1.1-.5,0-1,.2-1.4.4,0,0,0,0,0,0-.1,0-.3,0-.4.1-.5.2-.9.8-1.4,1.1-.3.2-.7.4-1,.7,0,0,0,0-.1.1-.1.1-.3.2-.4.4,0,0,0,0-.1.1,0,0,0,0,0,0,0,0,0,0-.1.1-.1.1-.3.3-.4.4-.4.5-.7.9-1,1.4,0,0,0,0,0,0-.2.4-.4.7-.5,1.1-.2.5-.3,1-.5,1.5,0,0,0,0,0,0,0,0,0,.1,0,.2,0,.3-.1.3-.1.6,0,0,0,0,0,0,0,0,0,.1,0,.2,0,0,0,0,0,0,0,0,0,.2,0,.2,0,.2,0,.3.1.5,0,.2.1.3.2.5,0,.1.1.2.2.3,0,0,.1.2.2.2,0,0,.2.1.3.2,0,0,0,0,0,0,0,0,.1,0,.2,0,.1,0,.9,0,1,0,.3,0,.6,0,.9,0,0,0,.1,0,.2,0,.1,0,.3,0,.4,0,.2,0,.5,0,.7,0,0,0,.2,0,.2,0h.1c.1,0,.2,0,.4,0,.6,0,1.1,0,1.7,0,.2,0,.4,0,.7,0,0,0,0,0,0,0,1.2,0,2.4,0,3.6,0h0c2,0,3.6.1,6.2,0,0,0,0,0,0,0,.2,0,.4,0,.6,0,0,0,0,0,0,0,.2,0,.4,0,.6,0,.2,0,.4,0,.7-.2.2,0,.4-.2.5-.3.1,0,.2-.1.3-.2.1-.1.3-.3.4-.4,0-.1.1-.2.2-.3,0-.2.2-.3.2-.5,0-.1,0-.2,0-.3,0-.3,0-.6,0-.9,0-.5-.2-1-.4-1.5Z"/>
  <path d="M70.7,48.7c0,0,0-.1,0-.2,0,0,0,0,0,0,0-.3,0-.6-.1-.9,0,0,0-.2,0-.2,0,0,0,0,0,0-.1-.5-.3-1.1-.6-1.6-.2-.4-.4-.7-.6-1.1,0,0,0,0,0,0-.3-.5-.7-1-1.1-1.4-.1-.2-.3-.3-.4-.4,0,0,0,0-.1-.1,0,0,0,0,0,0,0,0,0,0-.1-.1-.1-.1-.3-.3-.4-.4,0,0-.1,0-.1-.1-.3-.3-.7-.5-1-.7-.5-.3-1-.5-1.5-.7-.1,0-.3,0-.4-.1,0,0,0,0,0,0-.5-.1-.9-.2-1.4-.3,0,0,0,0,.1-.1,0,0,.1,0,.2-.1.2-.1.3-.3.4-.4.2-.2.3-.4.4-.6.1-.2.2-.4.3-.6.1-.4.2-.7.3-1.1,0-.3,0-.7,0-1,0-.3,0-.6-.1-.9,0-.3-.2-.6-.3-.9-.1-.3-.3-.6-.5-.8-.1-.2-.3-.4-.5-.6,0,0-.2-.2-.3-.3,0,0,0,0-.1-.1-.1-.1-.2-.2-.4-.3-.1,0-.2-.1-.4-.2,0,0,0,0,0,0-.2-.1-.4-.2-.6-.3-.4-.1-.7-.2-1.1-.3h0c-.5,0-1,0-1.5,0-.2,0-.4,0-.7.2-.3.1-.7.3-1,.5-.2,0-.3.2-.5.3,0,0,0,0,0,0,0,0,0,0,0,0-.2.2-.4.3-.6.5-.2.2-.3.5-.5.8-.1.3-.3.5-.4.8,0,.3-.2.7-.2,1,0,0,0,.1,0,.2,0,0,0,0,0,0,0,.3,0,.7,0,1,0,.3.1.6.2.9,0,.3.2.5.3.8.1.2.2.4.4.6.2.2.3.4.5.6,0,0,0,0,0,0,0,0,.1.1.2.2,0,0,0,0,0,0,0,0,.1,0,.2.1,0,0,.1,0,.2,0h0c0,0,0,0,0,0-.4.1-.9.3-1.3.5-.5.3-1.1.6-1.5.9-.3.2-.5.4-.8.6,0,0,0,0,0,0-.2.1-.3.3-.5.5,0,0-.1.1-.2.2-.3.3-.6.7-.9,1.1-.4.5-.7,1-1,1.5-.3.6-.6,1.2-.8,1.9-.1.5-.3,1-.3,1.6,0,.3,0,.6,0,.9,0,.1,0,.2,0,.3,0,.2.1.4.2.5,0,.1.1.2.2.3.1.1.3.3.4.4.1,0,.2.1.3.2.2,0,.4.2.5.2.2,0,.4,0,.7.1.2,0,.4,0,.6,0,0,0,0,0,0,0,.2,0,.4,0,.6,0,0,0,0,0,0,0,2.3,0,4.6-.2,6.8-.4,0,0,0,0,0,0,1.2,0,2.4-.1,3.6-.2,0,0,0,0,0,0,.2,0,.4,0,.7,0,.6,0,1.1,0,1.7-.1.1,0,.2,0,.4,0,0,0,0,0,.1,0,0,0,.2,0,.2,0,.2,0,.5,0,.7,0,.1,0,.3,0,.4,0,0,0,.1,0,.2,0,.3,0,.6,0,.9,0,.1,0,.3,0,.4-.1,0,0,.1,0,.2-.1,0,0,0,0,0,0,0,0,.2-.1.3-.2,0,0,.2-.2.2-.2,0-.1.1-.2.2-.4,0-.2.1-.3.2-.5,0-.2,0-.3,0-.5,0,0,0-.2,0-.2,0,0,0,0,0,0Z"/>
</svg>