<?xml version="1.0" encoding="UTF-8"?>
<svg id="Calque_1" xmlns="http://www.w3.org/2000/svg" version="1.1" viewBox="0 0 80 72.9">
  <!-- Generator: Adobe Illustrator 30.5.1, SVG Export Plug-In . SVG Version: 2.1.4 Build 3)  -->
  <path d="M79.9,68.6c-.1-1.2-.3-2.9-.3-5-1-20.2-1.6-34.1-2-43.2-.6-13.2-1.4-19.9-2.6-20.2-.2,0-.4,0-.6-.2h0s0,0,0,0c-8.5.6-17.2,1.1-25.6,1.6C32.8,2.6,16.3,3.5.2,5.2h-.2v.2c1.2,67.2,2,67.5,2.3,67.6,0,0,0,0,.2,0,5.1,0,10.3,0,15.5,0,13,0,26,0,38.8-.1,4.2,0,8.3,0,12.5,0,1.9,0,3.5,0,4.8,0,3.5,0,4.9,0,5.6-.7.3-.3.4-.7.4-1.2v-.6c0-.4,0-1-.1-1.6ZM76.8,69.8c0,0-.2,0-.4,0-.2,0-.6,0-.9,0-20.9.4-46.9.9-71.1.8-.4-10.8-.9-21.8-1.4-32.5-.5-10.4-.9-21.2-1.3-31.9.5.4,1,.4,1.6.3.2,0,.4,0,.7,0,7.6-.3,14.7-.7,22.3-1.2,2.9-.2,5.8-.3,8.8-.5,5.6-.2,11.3-.6,16.8-1,7.3-.5,14.9-1,22.3-1.1.4,3.8.5,7.6.6,11.3,0,2.3.1,4.6.3,6.9.6,13.8,1.1,23.7,1.5,30.8.7,14,.9,17.3.4,17.8Z"/>
  <path d="M65.6,7.9c-4.8-2.8-11.3-.9-11.8,4.6.3,11.2,5.1,13.4,5.4,16.7-.4,1.7-5.9.6-7.2,1.2-16,2.5-23.4,2.4-22.5,3.8.2,3.6-1,6.7-.3,8.7,2.1,2.4,8.2.2,10.6.2,4.8-.5,9.2-.8,14-1,2.7.2,7.4-1.3,7.2.8.3,2,1.2,4.9-.6,5.1-10.8,1.6-21.7,1.7-32.6,3.2-20.2,3.3-16.6-3.3-16.8,7.3-5.7,3.9-1.7,6.7,3.4,6,3.4-2,.8-4.9-1.9-5.5-.2-.1-.2-.3,0-.6,1.3-1.7-.7-6.2,2.3-5.5,8.4.9,16.4-1.2,24.9-2.1,5.6-.2,11.1-.2,16.7-1.2,2.3-.6,7.7,0,7.2-1.8,0-2.6-.3-7.8-2.7-7.5-9.3.7-18.5.7-27.7,2.2-.7,0-1.9.4-2,0,.5-3.7.3-8.1.9-8.2,6.7-1.3,13.4-1.6,20.2-2.8,15.2-1.2,5.6.5,10.3-6.6,2.9-4.9,9.2-12.4,2.9-17ZM13.3,60.4c1.3,2.3-1.3,5-2.8,2.9-.9-1.6,1.4-4.8,2.8-2.9ZM60.2,11.3c4.1-1.6,5.1,1.9,2.4,3.5-2.9,1.1-4.6-1.5-2.4-3.5Z"/>
  <path d="M20.7,18.5c.9-2.7.9-8.3-.6-8.8-2.4-1.2-15.9-.5-14.9.6.2,9.6-.3,8.4,7.8,8.8,3.8.1,7.2.1,7.7-.6ZM7.6,17.5c-.7-1.9-1.3-6.9,0-6.9,3.7-.2,7.5-.5,11.2-.4.5,1.7.5,8-1,7.8-3.6.3-10,.5-10.2-.5Z"/>
  <path d="M19.1,23.9c-3.7-5-12.1-3-10,3.5,3.1,5.3,12.7,3.3,10-3.5ZM15,29.2c-5.4,1.7-5.4-5-2.3-7,7.4-.9,4.4,6.7,2.3,7Z"/>
  <path d="M9.6,38.1c4.7,6,11.7,1.4,9.4-4.4-3.5-4-12.7-1.5-9.4,4.4ZM15.2,40c-2.2,1.1-4.8-2.1-4.4-3.8,0-1.5.3-2.4,1.1-2.8,7.2-3.6,6.5,4.7,3.3,6.6Z"/>
  <path d="M15.3,24.2c-1.9-1.8-6.4,5.1-1.7,2,.6-.2.1,1,.4,1.3,0,.3,1.5.8,1.5,0-.1-1.1.7-2.9-.1-3.3Z"/>
  <path d="M14.9,34.3c-3.1-.3-4.2,4.2-.3,4.2,2.7-.1,2.5-3.8.3-4.2ZM14.1,37.9c-1.1-.5-.7-2.3.3-2.8,1.1,0,.8,2.6-.3,2.8Z"/>
</svg>