<svg width="90" height="90" viewBox="0 0 90 90" fill="none" xmlns="http://www.w3.org/2000/svg">
<g clip-path="url(#clip0_11_1626)">
<path d="M84.0002 28.1999C83.872 30.109 83.8354 29.4363 82.5537 29.1272C81.5466 28.8544 80.5762 28.8363 79.5692 28.5999C76.365 27.9272 77.134 28.0363 75.7973 28.509C74.2227 29.2181 73.5452 29.3454 73.5452 29.5999C74.9368 29.7999 76.3833 29.8363 77.7382 30.1635C78.8917 30.2544 78.8368 30.4363 79.0931 31.309C79.1664 31.6726 79.0931 33.0544 78.5072 32.709C77.7931 32.5453 77.2804 32.1999 76.548 32.0908C69.4621 30.3272 71.5861 30.4544 69.4804 31.2726C67.7959 31.9272 66.2213 32.6181 64.5551 33.2908C64.3903 33.4726 65.2875 34.8544 65.2875 35.0363C66.8804 38.6181 67.7227 42.4908 67.6861 46.3272C67.6312 64.0544 51.4819 75.8363 34.5269 73.7817C12.7382 71.1999 -0.71955 48.6908 9.44242 30.3817C21.0692 10.6908 49.6143 11.9453 62.2664 29.6908C63.6762 31.6726 63.0354 31.4181 64.2621 30.8908C65.6354 30.3272 66.9537 29.7817 68.272 29.1454C69.2058 28.8544 69.1326 28.3272 69.4072 27.7453C69.7551 26.909 70.1762 26.109 70.579 25.2726C71.2199 23.9272 72.1903 22.909 72.7945 21.5453C73.0875 21.0363 72.9959 21.0544 73.3804 21.1999C73.8382 21.3999 74.9002 22.1635 74.4974 22.4908C73.6185 24.1999 73.1607 24.6363 72.5016 25.6363C71.9889 26.3817 71.641 27.1272 71.0734 27.8544C71.7875 27.7999 72.4466 27.3272 73.1241 27.0363C73.7833 26.7635 74.4607 26.5999 75.0833 26.2181C76.1086 24.3453 76.7128 22.2908 77.8664 20.4726C78.0861 20.2181 78.434 19.7272 78.5804 19.7817C79.1114 19.8726 79.8804 20.709 80.0819 21.2544C79.441 22.0908 78.6171 22.9817 78.0861 23.9635C76.8776 25.6181 76.8044 25.4544 77.9762 24.9635C79.1847 24.5272 80.9241 23.4908 81.0157 23.8544C83.0481 26.1453 80.9058 26.1453 79.3312 26.9999C84.9706 27.5272 83.6157 27.0544 84.0002 28.1999ZM51.5551 36.509C41.5213 23.109 17.8833 29.109 17.81 44.9635C17.9016 50.1635 20.8678 54.6544 25.0974 57.3453C34.0143 63.0363 46.9959 60.4908 52.1776 51.8908C54.8509 47.5999 54.9241 42.4544 52.6903 38.309C51.4819 38.7453 50.31 39.3453 49.0466 39.6726C47.9297 40.3635 46.703 40.7453 45.5128 41.2544C44.634 41.6363 43.334 41.8544 43.6269 42.5635C43.7917 43.9454 43.5354 45.2726 42.9128 46.4908C40.5143 51.2181 34.0326 52.909 30.2973 49.6726C28.4114 47.9635 27.972 45.5999 28.6312 43.2908C30.2973 37.6544 38.2072 35.2363 42.1438 39.4726C42.4368 39.709 42.7297 40.4544 43.0044 40.2544C43.9382 39.7635 44.7255 39.6908 45.403 39.3453C47.4354 38.309 49.5593 37.5454 51.5551 36.509Z" fill="#0C0E1E"/>
</g>
<defs>
<clipPath id="clip0_11_1626">
<rect width="78" height="58" fill="white" transform="translate(6 16)"/>
</clipPath>
</defs>
</svg>
