<svg width="90" height="90" viewBox="0 0 90 90" fill="none" xmlns="http://www.w3.org/2000/svg">
<g clip-path="url(#clip0_11_1689)">
<g clip-path="url(#clip1_11_1689)">
<path d="M8.95725 78.2896C8.08966 78.2304 7.2236 78.0923 6.36739 77.942C5.44365 77.7799 4.8426 77.4177 4.71802 76.4658C4.06005 71.4389 3.08126 66.4286 2.66661 61.3933C1.98988 53.1793 1.59907 44.9514 1.21349 36.7273C1.00293 32.2441 1.00186 27.7556 1.00001 23.2711C0.998628 20.0624 1.11137 16.8547 1.24994 13.6504C1.36621 10.9663 2.3933 10.0852 5.57454 10.0872C12.2892 10.0912 19.0065 10.2052 25.7219 10.2323C35.2121 10.2708 44.7028 10.119 54.1908 10.3456C59.9135 10.4823 65.6343 11.1476 71.3472 11.6645C72.2657 11.7477 73.6409 12.008 74.3725 12.5153C74.967 12.9274 75.2653 13.9197 75.1794 14.4703C74.0897 21.4323 75.777 28.2453 77.0937 35.0648C79.0772 45.3391 81.4292 55.5547 84.8372 65.594C85.8672 68.6278 87.2702 71.4697 89.2718 74.1349C90.417 75.6598 90.2741 75.8225 88.3968 76.5266C84.4058 78.0233 80.1099 78.3229 75.831 78.7172C66.7599 79.5536 57.6703 80.1465 48.5121 79.9575C40.4014 79.79 14.0315 78.6361 8.95725 78.2893V78.2896ZM83.682 74.668C82.1786 71.7135 80.5655 69.0771 79.475 66.2976C76.4856 58.6793 74.8388 50.8069 73.5588 42.8936C72.1086 33.9295 70.7994 24.9479 72.0278 15.9164C72.1366 15.1182 71.8572 14.8808 70.9815 14.6621C65.739 13.3523 60.3882 13.4265 55.0602 13.4728C38.4697 13.6172 21.8911 13.3506 5.32999 11.9498C4.63542 11.891 3.9327 11.9219 2.80518 11.9044C2.69891 13.5395 2.71813 15.6561 2.79411 17.1531C3.00097 21.2351 3.06311 24.7017 3.37287 28.7813C3.80305 34.4475 4.21631 40.1147 4.72186 45.7775C5.35322 52.8502 6.06809 59.9187 6.7522 66.9887C7.03612 69.922 7.33295 72.8546 7.62487 75.7968C9.23379 75.9015 10.7151 76.0385 12.1985 76.088C23.187 76.4549 34.1752 76.8428 45.1646 77.1487C56.3813 77.4607 67.5474 77.1329 78.583 75.4475C80.321 75.1821 82.0586 74.9165 83.6824 74.6683L83.682 74.668Z" fill="#0C0E1E"/>
<path d="M39.1456 24.1319C39.1687 24.1307 39.1922 24.1294 39.2158 24.128C39.2648 24.1254 39.3137 24.123 39.3627 24.1205C39.4358 24.1168 39.5088 24.1125 39.5819 24.1082C39.8589 24.0931 40.1273 24.0966 40.4032 24.1291C40.7357 24.1773 41.0621 24.2604 41.3823 24.3669C41.6656 24.4681 41.9383 24.5885 42.2018 24.7376C42.4475 24.8834 42.6808 25.0421 42.9002 25.229C42.9798 25.2992 43.0578 25.3711 43.1352 25.444C43.1792 25.4853 43.2241 25.5255 43.2691 25.5655C43.4563 25.7342 43.6192 25.9234 43.7758 26.123C43.9406 26.3393 44.0855 26.5685 44.225 26.8034C44.2387 26.8264 44.2524 26.8491 44.2665 26.8728C44.4348 27.1579 44.5754 27.4518 44.6946 27.7629C44.8662 28.2272 44.9859 28.7125 45.0783 29.2003C45.1361 29.5441 45.1487 29.8949 45.1535 30.2431C45.1506 30.4471 45.1337 30.6489 45.1114 30.8513C45.1091 30.8742 45.1068 30.8973 45.1043 30.921C45.0634 31.3103 44.9802 31.6876 44.8765 32.0634C44.7839 32.3845 44.669 32.6937 44.5265 32.9939C44.418 33.2131 44.2962 33.418 44.1538 33.6147C43.9208 33.9275 43.6681 34.2252 43.3931 34.4978C43.377 34.5111 43.3608 34.5245 43.3443 34.538C43.3093 34.5523 43.2742 34.5665 43.2382 34.5811C43.2725 34.5907 43.307 34.6001 43.3423 34.6099C44.125 34.8274 44.8807 35.0759 45.626 35.4099C45.6565 35.4233 45.6868 35.4365 45.7181 35.4504C46.2217 35.6733 46.6882 35.9756 47.1494 36.2815C47.3154 36.3946 47.4764 36.5139 47.6363 36.6362C47.6664 36.6578 47.6968 36.6797 47.7275 36.7019C48.0415 36.9308 48.3278 37.1957 48.6159 37.4589C48.6377 37.4788 48.6594 37.4987 48.6819 37.5191C48.9455 37.7606 49.1853 38.014 49.4152 38.2906C49.4398 38.3188 49.4646 38.3472 49.4897 38.3759C49.8982 38.8459 50.245 39.3697 50.578 39.9C50.5952 39.9273 50.6123 39.9544 50.6299 39.9824C50.8669 40.3612 51.0773 40.7481 51.2528 41.1621C51.3371 41.3681 51.4166 41.5758 51.4949 41.7843C51.5028 41.8053 51.5106 41.8262 51.5188 41.8478C51.6416 42.1764 51.7559 42.5092 51.8325 42.8533C51.8837 43.1205 51.928 43.3871 51.9556 43.6582C51.9594 43.6951 51.9631 43.7321 51.9671 43.7703C51.9857 44.0136 51.9808 44.2533 51.9609 44.4962C51.9451 44.6572 51.9225 44.8136 51.8828 44.97C51.8065 45.2306 51.7104 45.4826 51.6012 45.7298C51.5478 45.8378 51.4908 45.9347 51.4232 46.0336C51.2987 46.2038 51.1646 46.3636 51.0135 46.5084C50.8706 46.6307 50.7175 46.7335 50.5603 46.834C50.5357 46.8506 50.5109 46.8673 50.4855 46.8845C50.3849 46.949 50.2833 46.998 50.1741 47.0448C49.9291 47.1413 49.6839 47.217 49.4266 47.2692C49.1056 47.3269 48.7843 47.3451 48.4595 47.3614C48.4024 47.3643 48.3454 47.3674 48.2883 47.3703C48.1334 47.3783 47.9784 47.386 47.8234 47.3937C47.7248 47.3987 47.626 47.4034 47.5275 47.4083C46.0073 47.4833 44.4865 47.5249 42.9649 47.5624C42.6015 47.5714 42.2381 47.5808 41.8745 47.5901C41.6948 47.5948 41.5153 47.5994 41.3359 47.604C41.3008 47.6049 41.2657 47.6058 41.2296 47.6068C40.9858 47.6131 40.7419 47.6192 40.4981 47.6256C38.6602 47.6725 36.8236 47.7352 34.9869 47.8143C34.7125 47.8261 34.4382 47.8378 34.1638 47.8494C34.0473 47.8543 33.9308 47.8592 33.8143 47.8643C33.3898 47.8829 32.9655 47.9003 32.5405 47.9008C32.5113 47.9008 32.4818 47.9008 32.452 47.9009C32.1244 47.8994 31.798 47.8762 31.4745 47.8189C31.2497 47.7721 31.0294 47.7107 30.815 47.6243C30.9032 47.665 30.6888 47.586 30.332 47.3452C30.3069 47.3288 30.2818 47.3121 30.256 47.2951C30.1872 47.2446 30.1288 47.1924 30.0686 47.131C29.9299 46.9749 29.7996 46.8137 29.6855 46.6368C29.6095 46.5123 29.5439 46.3842 29.4836 46.2506C29.4221 46.0908 29.3762 45.9303 29.3367 45.7632C29.2838 45.482 29.2763 45.1885 29.2692 44.9028C29.2672 44.7079 29.287 44.5187 29.3161 44.3266C29.3202 44.2988 29.3243 44.2706 29.3284 44.2422C29.4401 43.4959 29.5942 42.9315 29.7395 42.4804C29.9522 41.8465 30.208 41.2363 30.5188 40.6491C30.5794 40.5373 30.6423 40.4273 30.7062 40.3175C30.7209 40.292 30.7358 40.2661 30.7509 40.2401C30.9813 39.8435 31.2305 39.4656 31.4961 39.0943C31.5387 39.0343 31.5805 38.9737 31.6219 38.9127C31.9636 38.4123 32.3543 37.9347 32.7662 37.4962C32.8349 37.4257 32.9049 37.3567 32.975 37.2878C33.0063 37.2562 33.0373 37.2245 33.0685 37.1928C33.5324 36.7247 34.0352 36.2981 34.5677 35.9185C35.0521 35.5812 35.5544 35.2846 36.0875 35.0405C36.1429 35.0155 36.1984 34.9906 36.2538 34.9657C36.3104 34.9399 36.3668 34.9141 36.4233 34.8882C36.5549 34.8282 36.6867 34.7691 36.8188 34.7103C36.6918 34.5623 36.5594 34.4286 36.415 34.2994C36.2741 34.1695 36.1524 34.029 36.0348 33.8758C35.9365 33.7442 35.841 33.6104 35.7469 33.4754C35.7321 33.4545 35.7175 33.4335 35.7022 33.412C35.558 33.2033 35.4417 32.9831 35.3319 32.7527C35.1278 32.3101 34.9502 31.8614 34.8197 31.3885C34.7141 30.9798 34.6396 30.5644 34.5969 30.1437C34.5727 29.8475 34.5844 29.5538 34.6061 29.2581C34.6433 28.8247 34.7084 28.3986 34.8157 27.9786C34.9254 27.5763 35.0737 27.1886 35.2481 26.813C35.3408 26.6227 35.4486 26.4474 35.5695 26.2756C35.6146 26.2132 35.6603 26.1515 35.7061 26.0898C35.7321 26.0536 35.7581 26.0174 35.7841 25.9811C35.9088 25.8125 36.0415 25.6577 36.1921 25.5139C36.2575 25.4534 36.3239 25.3945 36.3908 25.336C36.4079 25.3209 36.4252 25.3056 36.4426 25.2902C36.6541 25.1063 36.8745 24.9434 37.1134 24.8004C37.3993 24.6349 37.6952 24.4952 38.0044 24.3845C38.377 24.262 38.7543 24.1522 39.1462 24.132L39.1456 24.1319ZM38.8921 25.6543C38.6225 25.7259 38.3609 25.8089 38.1057 25.9146C37.8855 26.0125 37.6795 26.1267 37.4796 26.2536C37.2273 26.4194 36.9951 26.6055 36.7786 26.8057C36.6104 26.9683 36.4659 27.1409 36.3307 27.325C36.1455 27.5883 35.9836 27.8573 35.8522 28.1437C35.7144 28.4596 35.6177 28.7836 35.5438 29.1144C35.5378 29.1425 35.532 29.1705 35.5257 29.1994C35.5189 29.2302 35.5123 29.261 35.5054 29.2927C35.4791 29.4239 35.458 29.5522 35.4522 29.6851C35.4528 29.7836 35.4565 29.8815 35.462 29.9799C35.464 30.0151 35.466 30.0502 35.468 30.0865C35.4806 30.266 35.4986 30.442 35.5415 30.6176C35.5746 30.7348 35.615 30.8493 35.6573 30.964C35.6667 30.9908 35.6763 31.0175 35.6858 31.0451C35.7764 31.2989 35.8802 31.5455 36.0172 31.7829C36.1864 32.0581 36.3639 32.3349 36.5854 32.5809C36.6718 32.6679 36.7612 32.749 36.8555 32.8295C36.8898 32.8608 36.9242 32.8922 36.9596 32.9243C37.1057 33.0572 37.2549 33.1876 37.4182 33.3044C37.6461 33.4491 37.8905 33.5744 38.1409 33.6875C38.3569 33.7785 38.583 33.8444 38.8138 33.9015C39.1343 33.9752 39.4627 34.0359 39.7925 34.0696C40.2166 34.0731 40.6507 34.0544 41.0722 34.0062C41.3217 33.9659 41.561 33.9052 41.8006 33.8321C41.994 33.7684 42.1795 33.7003 42.3591 33.6101C42.3942 33.591 42.4292 33.5718 42.4654 33.5521C42.5077 33.5298 42.5498 33.5074 42.5933 33.4845C42.8111 33.3667 43.0144 33.2385 43.2084 33.0917C43.3846 32.9499 43.5535 32.8072 43.7032 32.6436C43.9199 32.3929 44.1071 32.1311 44.2722 31.8525C44.3759 31.6721 44.4649 31.4918 44.5323 31.2989C44.5706 31.1806 44.6043 31.0614 44.6363 30.9417C44.6474 30.9019 44.6584 30.8624 44.67 30.8214C44.743 30.5385 44.7835 30.254 44.8021 29.9654C44.8122 29.7607 44.8073 29.559 44.779 29.356C44.7301 29.0606 44.663 28.767 44.5575 28.4835C44.4322 28.1725 44.2655 27.8734 44.0818 27.5862C43.9516 27.3915 43.8031 27.213 43.6361 27.0413C43.3863 26.794 43.1221 26.5605 42.8296 26.3513C42.6252 26.2115 42.4126 26.0856 42.1858 25.9746C41.9398 25.8609 41.6867 25.7664 41.4217 25.6905C41.2085 25.6337 40.9941 25.5926 40.7742 25.5602C40.4523 25.5281 40.1339 25.5358 39.8101 25.5502C39.4998 25.5673 39.1952 25.5884 38.8919 25.6535L38.8921 25.6543ZM37.9542 35.9473C37.5497 36.0284 37.1555 36.1299 36.7699 36.2792C36.2947 36.4722 35.8248 36.693 35.3871 36.9617C35.2813 37.029 35.1772 37.0984 35.074 37.17C35.0554 37.1829 35.0367 37.1957 35.0175 37.2091C34.8922 37.2964 34.769 37.3864 34.6459 37.4771C34.6089 37.5037 34.572 37.5304 34.5349 37.5568C34.0373 37.9154 33.5907 38.319 33.1534 38.7483C33.1335 38.7678 33.1135 38.7874 33.093 38.8074C32.8255 39.0692 32.5796 39.3394 32.3458 39.6322C32.3091 39.6773 32.2722 39.7222 32.2352 39.7673C31.7565 40.3611 30.1915 43.3248 30.1765 43.3662C30.0319 43.7639 29.7523 44.196 29.6691 44.6115C29.6432 44.7667 29.626 44.9197 29.6263 45.0773C29.6295 45.1293 29.6363 45.1788 29.6468 45.2256C29.679 45.3037 29.7109 45.3681 29.7426 45.4189C29.7765 45.4667 29.8142 45.5127 29.8556 45.557C29.9064 45.6039 29.9638 45.6485 30.0279 45.6907C30.1359 45.7546 30.2386 45.8116 30.3541 45.8605C30.4684 45.899 30.5823 45.9229 30.7014 45.9412C30.913 45.9547 31.1245 45.9566 31.3364 45.9586C31.4007 45.9595 31.6236 45.931 31.6877 45.932C31.8261 45.9338 31.9646 45.9355 32.103 45.937C32.3255 45.9395 32.5482 45.9424 32.7708 45.9454C33.1271 45.9501 33.8008 45.8958 34.1572 45.8999C34.8972 45.9087 35.32 45.9769 36.0601 45.9866C36.0986 45.9871 36.1372 45.9875 36.1767 45.9881C38.5279 46.0186 40.9091 46.219 43.2593 46.2977C45.6368 46.3779 45.6678 46.5291 48.0462 46.5725C48.1353 46.5734 48.2242 46.5746 48.3132 46.5759C48.4484 46.5777 48.5836 46.5789 48.7188 46.5796C48.788 46.58 48.8571 46.581 48.9263 46.5819C49.0475 46.5819 49.166 46.5791 49.2869 46.5689C49.4693 46.5351 49.6487 46.4932 49.8237 46.4309C49.9141 46.3919 49.9978 46.3424 50.083 46.2934C50.1474 46.2509 50.2068 46.2051 50.2613 46.1559C50.3331 46.0802 50.3943 46.0054 50.4528 45.9187C50.5147 45.8056 50.567 45.692 50.6104 45.5705C50.6255 45.5194 50.6387 45.4675 50.6504 45.4155C50.6758 45.117 50.6739 44.8085 50.6504 44.5102C50.6049 44.1064 50.4983 43.7098 50.3846 43.3208C50.2536 42.8905 50.016 42.1832 49.8126 41.7827C49.5278 41.2346 49.2027 40.7251 48.8291 40.2341C48.4144 39.6931 47.9629 39.1892 47.4733 38.7155C47.3377 38.5911 47.1951 38.4768 47.051 38.3622C47.0233 38.3381 46.9954 38.314 46.9668 38.2893C46.5305 37.9137 46.029 37.6092 45.5374 37.3122C44.9819 36.9847 44.395 36.7245 43.7922 36.4982C43.2711 36.3054 42.7438 36.1737 42.1984 36.0668C42.1579 36.0587 42.1175 36.0506 42.0758 36.0423C41.3031 35.8916 40.5253 35.8178 39.7389 35.8031C39.1311 35.7941 38.5516 35.8305 37.9538 35.9473H37.9542Z" fill="#0C0E1E"/>
<path d="M32.4535 48.3883C32.0654 48.3863 31.7188 48.3571 31.3896 48.2987C31.1329 48.2455 30.9122 48.1828 30.7078 48.1054C30.5591 48.0631 30.3629 47.9538 30.0596 47.7492L29.968 47.6882C29.8811 47.6245 29.8024 47.5557 29.7203 47.4717L29.7046 47.4549C29.5282 47.2565 29.3921 47.0805 29.2762 46.9015C29.1875 46.7563 29.1123 46.6125 29.0394 46.4514L29.0286 46.4258C28.9646 46.2597 28.9119 46.0849 28.8624 45.8755L28.8576 45.8533C28.7973 45.5322 28.7892 45.2042 28.7819 44.9148C28.7798 44.7108 28.7964 44.503 28.8341 44.2536L28.8461 44.1716C28.9734 43.3208 29.1521 42.7135 29.2755 42.3305C29.5076 41.6391 29.7727 41.0161 30.0879 40.4207C30.1531 40.3005 30.2183 40.1862 30.2846 40.0722L30.3289 39.9957C30.5539 39.6084 30.8058 39.2209 31.0994 38.8104C31.1389 38.7546 31.1789 38.6971 31.2183 38.6389C31.5622 38.1352 31.963 37.6388 32.4106 37.1622C32.4881 37.0823 32.5607 37.011 32.6331 36.9398L32.7205 36.8509C33.2019 36.3653 33.7276 35.9184 34.2842 35.5212C34.8269 35.1436 35.3486 34.8424 35.884 34.597L35.9775 34.5548C35.8659 34.4419 35.7596 34.3186 35.6476 34.1729C35.542 34.0315 35.4432 33.8934 35.3462 33.7539L35.303 33.6925C35.1596 33.4853 35.0335 33.261 34.8912 32.9619C34.6472 32.433 34.4757 31.9758 34.3494 31.5182C34.2359 31.0793 34.1565 30.636 34.1115 30.1928C34.0821 29.8341 34.099 29.5016 34.1195 29.2222C34.1622 28.7233 34.2353 28.2791 34.3431 27.8573C34.4564 27.4411 34.607 27.0345 34.8056 26.607C34.9071 26.3989 35.025 26.2013 35.1704 25.9945C35.2205 25.9251 35.2674 25.8617 35.3145 25.7983L35.3876 25.6962C35.5403 25.4898 35.6918 25.3165 35.855 25.1607C35.9294 25.0917 35.9992 25.0297 36.0697 24.9683L36.1197 24.9242C36.3636 24.7121 36.6058 24.5354 36.8627 24.3816C37.1858 24.1946 37.5123 24.0422 37.8398 23.925C38.219 23.8 38.6502 23.6692 39.1194 23.6447L39.3383 23.6332C39.4099 23.6296 39.4816 23.6253 39.553 23.621C39.8796 23.6033 40.1756 23.6112 40.4601 23.6446C40.8164 23.696 41.1642 23.7803 41.5359 23.9039C41.8728 24.0242 42.1659 24.1569 42.4418 24.3131C42.7444 24.4926 42.9949 24.669 43.2162 24.8577C43.3062 24.937 43.3885 25.0126 43.4698 25.0896C43.5092 25.1266 43.5509 25.1636 43.5924 25.2005C43.7804 25.3699 43.9543 25.5607 44.159 25.8218C44.3597 26.085 44.5232 26.3512 44.6438 26.5541L44.6832 26.62C44.8665 26.9306 45.0182 27.2457 45.1494 27.5881C45.3148 28.0354 45.4474 28.5312 45.5569 29.1092C45.6224 29.4978 45.6357 29.8797 45.6406 30.236C45.6378 30.4432 45.624 30.6451 45.5957 30.9041L45.5889 30.97C45.5491 31.3485 45.472 31.7365 45.3462 32.1929C45.2419 32.5548 45.1183 32.8833 44.9666 33.203C44.8394 33.4604 44.7038 33.6863 44.5483 33.9008C44.4309 34.0584 44.3114 34.2088 44.1902 34.3518C44.7964 34.5422 45.3272 34.7416 45.8252 34.9648L45.9127 35.0031C46.4447 35.2386 46.9284 35.5499 47.4185 35.8748C47.577 35.9829 47.7337 36.097 47.9318 36.2486L48.0122 36.3063C48.3347 36.5415 48.6234 36.8055 48.9024 37.0607L49.0095 37.1583C49.2878 37.4136 49.5425 37.6816 49.7895 37.9788L49.8565 38.0552C50.2945 38.559 50.6602 39.1148 50.9903 39.6404L51.0412 39.7209C51.313 40.1553 51.5284 40.5637 51.7013 40.9715C51.7897 41.1874 51.8711 41.3995 51.9509 41.6126L51.9748 41.6763C52.0904 41.9857 52.2205 42.3546 52.3079 42.7471C52.3733 43.0867 52.4143 43.3559 52.4402 43.6085L52.4517 43.721C52.472 43.9853 52.4699 44.248 52.4465 44.5355C52.4251 44.7535 52.3962 44.927 52.355 45.0897L52.3504 45.1068C52.2728 45.3715 52.1736 45.6397 52.0467 45.9266L52.0378 45.9455C51.9748 46.0732 51.9073 46.1885 51.8254 46.3082L51.8164 46.321C51.6644 46.529 51.512 46.7052 51.3506 46.8601L51.3299 46.879C51.1608 47.0234 50.9861 47.1399 50.8225 47.2446L50.7574 47.2888C50.6064 47.3858 50.4692 47.4483 50.3657 47.4926C50.0692 47.6097 49.7979 47.691 49.5233 47.7466C49.1745 47.8094 48.8467 47.8296 48.4841 47.8479L48.314 47.8566C48.1582 47.865 48.0025 47.8727 47.847 47.88L47.552 47.8948C45.9851 47.9719 44.4328 48.0135 42.9769 48.0492L40.5107 48.1123C38.674 48.1591 36.8225 48.2225 35.0078 48.3007L33.8355 48.3508C33.3995 48.3699 32.9723 48.3871 32.541 48.3877L32.4533 48.388L32.4535 48.3883ZM30.9971 47.1716C31.1682 47.2406 31.3567 47.2962 31.5736 47.3413C31.8335 47.3871 32.1263 47.4115 32.4544 47.4132L32.5388 47.4129C32.9521 47.4122 33.3678 47.3956 33.7931 47.3768L34.966 47.3268C36.7864 47.2484 38.6435 47.1849 40.4858 47.1378L42.9531 47.0747C43.9823 47.0494 45.0597 47.0212 46.1546 46.9797C45.9227 46.9624 45.7123 46.9437 45.498 46.9247C44.9313 46.8744 44.3453 46.8222 43.2431 46.7851C42.2594 46.7522 41.2556 46.6974 40.2849 46.6441C38.9318 46.5701 37.5325 46.4934 36.1707 46.4757L36.0547 46.4743C35.6732 46.4694 35.3723 46.4492 35.0813 46.4298C34.7877 46.4103 34.5104 46.3918 34.1516 46.3875C33.9883 46.3872 33.7362 46.3978 33.4916 46.4098C33.2296 46.4224 32.9593 46.4366 32.7645 46.4329C32.5421 46.4298 32.32 46.4271 32.0979 46.4247L31.6811 46.4195C31.6599 46.4204 31.6093 46.4258 31.5588 46.4306C31.4533 46.4408 31.3856 46.4477 31.33 46.4461C31.1123 46.4441 30.893 46.4423 30.6706 46.428L30.6275 46.4234C30.4642 46.3983 30.3279 46.3662 30.1991 46.323L30.1648 46.3099C30.1148 46.2888 30.0676 46.267 30.0226 46.2443C30.0483 46.2925 30.0743 46.3385 30.1014 46.3827C30.1812 46.5059 30.2861 46.6412 30.4248 46.7977C30.4633 46.8364 30.498 46.867 30.5354 46.8952L30.6008 46.9383C30.8058 47.0763 30.9488 47.1498 30.997 47.173L30.9974 47.1718L30.9971 47.1716ZM34.1155 45.4119C34.1316 45.4119 34.1475 45.4119 34.163 45.4122C34.5484 45.4166 34.8522 45.4369 35.1461 45.4565C35.4369 45.4759 35.7118 45.4942 36.0666 45.4988L36.1842 45.5004C37.5652 45.5182 38.975 45.5953 40.338 45.67C41.3035 45.723 42.3022 45.7774 43.2757 45.8101C44.4046 45.8481 45.0043 45.9015 45.5842 45.9531C46.2146 46.009 46.81 46.0619 48.0553 46.0847L48.3164 46.0879C48.4539 46.0898 48.5877 46.091 48.7217 46.0916L48.9329 46.0941C49.0455 46.0941 49.1374 46.091 49.2223 46.0845C49.3904 46.0525 49.5258 46.0179 49.6447 45.9768C49.6963 45.9534 49.7516 45.9215 49.8149 45.8849L49.8274 45.8778C49.8752 45.8461 49.8831 45.8404 49.9203 45.8067C49.9652 45.7585 50.0021 45.7133 50.0369 45.6634C50.0813 45.5801 50.1176 45.4998 50.1475 45.4185C50.1548 45.3923 50.1618 45.3661 50.1681 45.3397C50.1873 45.0897 50.1865 44.8263 50.1658 44.5563C50.1221 44.1767 50.0147 43.79 49.9174 43.457C49.7803 43.0069 49.5555 42.3515 49.3787 42.003C49.1114 41.489 48.8043 41.0055 48.4419 40.5289C48.0504 40.0181 47.6103 39.5251 47.1351 39.0654C47.023 38.9626 46.8933 38.8584 46.7486 38.7436L46.648 38.6567C46.238 38.3039 45.7541 38.0118 45.2862 37.7291C44.8162 37.452 44.2704 37.1979 43.6218 36.9544C43.1828 36.7918 42.7002 36.6616 42.1053 36.5448L41.9818 36.5203C41.2663 36.3807 40.5295 36.3054 39.7303 36.2901C39.104 36.2814 38.5682 36.324 38.0491 36.4253C37.614 36.5126 37.2635 36.6106 36.9459 36.7335C36.4396 36.9393 36.0105 37.1508 35.6419 37.3769C35.5478 37.4368 35.4492 37.5027 35.3514 37.5704L35.2945 37.61C35.1742 37.6937 35.0546 37.7812 34.9351 37.8694L34.8194 37.9525C34.4041 38.2516 33.9955 38.6044 33.4949 39.0961L33.4326 39.1569C33.1747 39.4096 32.9433 39.665 32.7265 39.9362L32.6116 40.0768C32.1991 40.5882 30.7797 43.2518 30.6251 43.5579C30.5626 43.7247 30.4836 43.8899 30.4071 44.0498C30.2998 44.2741 30.1887 44.5059 30.1485 44.6998C30.1255 44.8397 30.1143 44.9559 30.1137 45.0633C30.114 45.0707 30.1145 45.0769 30.1148 45.0823C30.1215 45.0986 30.1263 45.1103 30.1315 45.1205C30.1357 45.1282 30.1408 45.1362 30.1475 45.1469C30.1691 45.177 30.1743 45.1834 30.1995 45.2107C30.2317 45.2402 30.2389 45.2456 30.2861 45.2769C30.3718 45.3273 30.4468 45.3688 30.5267 45.4037C30.5926 45.4248 30.6645 45.4411 30.7546 45.4557C30.9431 45.467 31.1329 45.4688 31.3335 45.4707C31.3649 45.4699 31.4155 45.4645 31.4659 45.4597C31.5714 45.4496 31.6385 45.4414 31.6948 45.4442L32.1083 45.4491C32.3314 45.4517 32.5544 45.4545 32.7775 45.4576C32.9406 45.46 33.1973 45.4473 33.4447 45.4353C33.6937 45.4232 33.9298 45.4119 34.1155 45.4119ZM47.3626 37.9868C47.5133 38.1066 47.6605 38.2253 47.8029 38.356C48.3218 38.8576 48.794 39.3867 49.2159 39.937C49.6134 40.4598 49.9497 40.9892 50.2451 41.5573C50.512 42.0832 50.7965 42.9997 50.8508 43.1781C50.9618 43.5579 51.0829 43.9958 51.1347 44.4552L51.1362 44.4716C51.1627 44.8095 51.1625 45.1409 51.1359 45.4562L51.1258 45.5222C51.1172 45.5607 51.1078 45.5989 51.0976 45.6369C51.1196 45.5997 51.1401 45.5616 51.1598 45.5221C51.2656 45.2816 51.3483 45.0586 51.4125 44.8412C51.4403 44.7292 51.4605 44.604 51.4758 44.4478C51.4943 44.2199 51.4963 44.0077 51.4809 43.8068L51.4706 43.707C51.4478 43.4838 51.4106 43.2417 51.3537 42.9449C51.2824 42.6249 51.1661 42.2959 51.0621 42.0182L51.0383 41.9548C50.9618 41.7514 50.8843 41.5479 50.8017 41.3466C50.6515 40.9921 50.4594 40.6286 50.2167 40.2407L50.1654 40.1594C49.856 39.6667 49.5158 39.1489 49.1217 38.6955L49.0484 38.6116C48.8215 38.339 48.5967 38.1021 48.3523 37.8781L48.2449 37.7802C47.9735 37.5319 47.7169 37.2973 47.4401 37.0954L47.3515 37.0316C47.1563 36.8828 47.0127 36.7783 46.8745 36.6838C46.4087 36.3748 45.9811 36.0996 45.5206 35.8956L45.4291 35.8554C44.7868 35.5677 44.083 35.3213 43.2116 35.0791L41.7256 34.6691L43.0838 34.1169C43.3163 33.8828 43.5446 33.6157 43.7628 33.3226C43.7997 33.2716 43.8354 33.2195 43.8703 33.1654C43.7505 33.2776 43.6298 33.3775 43.5134 33.4713C43.294 33.6375 43.0724 33.7792 42.8245 33.9132L42.5773 34.0455C42.356 34.1568 42.1375 34.234 41.9529 34.2948C41.653 34.3864 41.4011 34.4465 41.1497 34.4871L41.1273 34.4902C40.7069 34.5382 40.2557 34.5613 39.7881 34.5568L39.7426 34.5544C39.4227 34.5216 39.0831 34.4634 38.7044 34.3764C38.395 34.2999 38.1652 34.2265 37.9516 34.1366C37.6409 33.9964 37.3848 33.8603 37.157 33.7157L37.1344 33.7005C36.9477 33.5667 36.7824 33.4217 36.6318 33.2849L36.5275 33.1899C36.4262 33.1037 36.3284 33.0135 36.2396 32.9242L36.223 32.9067C35.9695 32.625 35.7694 32.3105 35.6018 32.0377C35.5394 31.9298 35.482 31.8196 35.4275 31.7034C35.5198 31.9674 35.6332 32.2441 35.7733 32.5474C35.8897 32.7921 35.9917 32.9745 36.1018 33.1339L36.144 33.1938C36.2365 33.3266 36.3288 33.4559 36.4239 33.5832C36.5337 33.7261 36.6369 33.8414 36.7441 33.9403C36.9031 34.0824 37.05 34.2319 37.1873 34.392L37.6137 34.889L37.0157 35.1552C36.885 35.2134 36.7544 35.272 36.6241 35.3314L36.2864 35.4845C35.8073 35.7041 35.3346 35.9772 34.8446 36.3182C34.3376 36.6801 33.8545 37.0908 33.4134 37.5356L33.3214 37.6289C33.2477 37.7016 33.1802 37.7681 33.1136 37.8361C32.7068 38.2694 32.3378 38.7263 32.0231 39.187C31.9807 39.2495 31.9369 39.3128 31.8923 39.3759C31.6156 39.7628 31.3799 40.1248 31.1711 40.4846L31.1265 40.5615C31.065 40.6674 31.0044 40.7733 30.9461 40.8808C30.8753 41.0146 30.8072 41.15 30.7414 41.2881C31.1706 40.5197 31.623 39.748 31.8552 39.4603L31.9675 39.3228C32.206 39.0243 32.4635 38.74 32.7512 38.458L32.812 38.3986C33.3486 37.8718 33.792 37.4898 34.2494 37.1602L34.3611 37.08C34.4829 36.9902 34.6096 36.8976 34.7387 36.8077L34.7957 36.7683C34.9046 36.6928 35.0141 36.6196 35.1256 36.5489C35.5464 36.2905 36.0223 36.0554 36.5861 35.8263C36.9646 35.6798 37.3664 35.567 37.8581 35.4684L37.8604 35.468C38.4481 35.353 39.0473 35.3043 39.7461 35.3147C40.6042 35.3308 41.3961 35.4121 42.1691 35.5628L42.2925 35.5873C42.9397 35.7143 43.47 35.8582 43.9612 36.04C44.6652 36.3043 45.261 36.5823 45.7846 36.891C46.268 37.1828 46.8106 37.5107 47.2843 37.9183L47.3621 37.9859L47.3626 37.9868ZM39.8197 33.5823C40.2362 33.5851 40.6345 33.565 41.0055 33.523C41.209 33.4895 41.4169 33.4394 41.6588 33.3657C41.7971 33.32 41.9706 33.259 42.1335 33.1779L42.3657 33.0534C42.5658 32.9451 42.7467 32.8298 42.9146 32.7027C43.0789 32.5703 43.2211 32.4486 43.344 32.3143C43.5298 32.0991 43.6995 31.8631 43.8534 31.6036C43.9506 31.4343 44.0214 31.2845 44.0726 31.1381C44.1046 31.0387 44.136 30.9278 44.1656 30.8164L44.2009 30.6906C44.2596 30.4626 44.2981 30.2123 44.3161 29.9346C44.3251 29.7525 44.319 29.5832 44.2967 29.4239C44.2473 29.1266 44.1846 28.8782 44.1012 28.6542C44.0049 28.4158 43.8628 28.1485 43.6716 27.8496C43.5692 27.6966 43.4417 27.541 43.2871 27.3819C43.0349 27.1324 42.7905 26.9232 42.5466 26.7488C42.3608 26.6218 42.1701 26.5102 41.9723 26.4135C41.7551 26.3132 41.5282 26.2288 41.2879 26.16C41.121 26.1155 40.9307 26.0772 40.7149 26.0452C40.4435 26.0189 40.1651 26.0233 39.8318 26.0381C39.5514 26.0536 39.2729 26.0724 39.0054 26.1286C38.7355 26.2007 38.502 26.2781 38.2923 26.3651C38.1195 26.4419 37.9354 26.5418 37.7404 26.6654C37.5276 26.8053 37.319 26.9699 37.1092 27.1638C36.9805 27.2885 36.8553 27.4337 36.7235 27.6135C36.5472 27.8645 36.4051 28.1071 36.2951 28.347C36.1853 28.599 36.0938 28.8876 36.0194 29.2209L35.9815 29.3965C35.9572 29.5179 35.944 29.6102 35.9397 29.6948C35.9405 29.7807 35.9437 29.866 35.9486 29.9517L35.9548 30.0579C35.9643 30.1957 35.9785 30.348 36.0131 30.4933C36.0421 30.5953 36.079 30.6985 36.1146 30.795L36.1456 30.883C36.2392 31.1449 36.3327 31.3539 36.4394 31.5385C36.5823 31.7706 36.7447 32.0263 36.9397 32.2452C37.0082 32.3136 37.0823 32.3816 37.1721 32.4583L37.2884 32.564C37.4131 32.6771 37.5486 32.7968 37.691 32.8997C37.877 33.0169 38.0902 33.1293 38.3418 33.243C38.4951 33.3074 38.6805 33.366 38.931 33.428C39.2532 33.5021 39.5467 33.553 39.8198 33.5821L39.8197 33.5823ZM39.8887 24.5868C39.7994 24.5868 39.7063 24.5894 39.6085 24.5948C39.5367 24.5991 39.4621 24.6036 39.3875 24.6073L39.1709 24.6187C38.8564 24.6348 38.5377 24.7218 38.1561 24.8474C37.8959 24.9407 37.6229 25.0683 37.3568 25.2222C37.1558 25.3426 36.9593 25.4864 36.7616 25.658L36.7116 25.7021C36.6473 25.7584 36.5841 25.8143 36.5223 25.8715C36.4056 25.9833 36.2901 26.1155 36.175 26.271L36.1014 26.3737C36.052 26.4403 36.0075 26.5004 35.9637 26.561C35.8522 26.7197 35.7599 26.8737 35.6853 27.0265C35.5141 27.3953 35.382 27.7512 35.2853 28.1065C35.2501 28.2444 35.219 28.3867 35.1919 28.5345C35.2547 28.3263 35.3254 28.1327 35.4059 27.9486C35.5446 27.6458 35.7156 27.3527 35.9323 27.0444C36.1012 26.8141 36.2653 26.624 36.4402 26.455C36.6941 26.2199 36.9513 26.0175 37.2124 25.8458C37.4548 25.6919 37.6803 25.57 37.9084 25.4687C38.1729 25.3588 38.4502 25.2667 38.7675 25.1827L38.7903 25.1773C39.1299 25.1043 39.4673 25.0812 39.7838 25.0638C40.0953 25.0501 40.4532 25.0388 40.8231 25.0757L40.8454 25.0785C41.1031 25.1163 41.3329 25.1627 41.5476 25.2199C41.8452 25.3051 42.1181 25.4065 42.3905 25.5326C42.4881 25.5803 42.5827 25.6299 42.6758 25.6822C42.6435 25.6528 42.611 25.6236 42.5784 25.5948C42.4058 25.4478 42.1994 25.3028 41.9537 25.1568C41.7356 25.0335 41.4923 24.9236 41.219 24.8259C40.9126 24.7241 40.6197 24.6528 40.3338 24.6114C40.1936 24.5951 40.0471 24.5868 39.8887 24.5868Z" fill="#0C0E1E"/>
<path d="M21.87 42.7262C22.0981 42.7473 22.3179 42.7926 22.5389 42.8489C22.8918 42.9454 23.1029 43.0826 23.4326 43.2347C23.6107 43.3199 23.5815 43.4726 23.7422 43.5846C23.7773 43.61 23.812 43.6355 23.8468 43.6612C23.8667 43.6759 23.8867 43.6907 23.9069 43.7057C24.1127 43.8599 24.3114 44.0203 24.4925 44.2003C24.6949 44.4186 24.8684 44.6541 25.0278 44.9013C25.1838 45.1487 25.331 45.4013 25.4405 45.6704C25.5557 45.9744 25.654 46.2892 25.7216 46.6057C25.7306 46.6577 25.7389 46.7099 25.7463 46.7621C25.7503 46.7875 25.7541 46.8127 25.7583 46.8389C25.8009 47.1655 25.8009 47.5008 25.7847 47.8292C25.7636 48.1329 25.8113 48.2808 25.7376 48.5767C25.6678 48.84 25.793 49.1829 25.6795 49.4325C25.5732 49.6571 25.4554 49.8754 25.3122 50.0815C25.1593 50.289 24.9877 50.4791 24.8042 50.6629C24.7865 50.6808 24.7688 50.6986 24.7505 50.717C24.6927 50.7748 24.6344 50.8323 24.5758 50.8895C24.5575 50.9078 24.5391 50.926 24.5201 50.9449C24.4697 50.9936 24.4197 51.0402 24.3642 51.0839C24.2988 51.1139 24.2421 51.1358 24.1942 51.1495L24.1947 51.2137C24.2262 51.2202 24.2578 51.2265 24.2902 51.2331C24.7387 51.3278 25.1729 51.458 25.5977 51.6235C26.1524 51.8459 26.3628 52.1618 26.8699 52.4697C27.1582 52.6484 27.4335 52.8422 27.7049 53.0425C27.724 53.0563 27.7431 53.0703 27.7628 53.0846C27.9398 53.2144 28.109 53.3479 28.2661 53.499C28.3232 53.552 28.383 53.5992 28.445 53.647C28.8104 53.9399 29.1325 54.295 29.4404 54.6408C29.8326 55.0893 30.1802 55.5682 30.4838 56.0742C30.824 56.6502 31.4397 57.185 31.6692 57.8083C31.8471 58.2958 31.9803 58.8016 32.0666 59.3108C32.0978 59.6124 32.1184 59.9235 32.1032 60.2266C32.0926 60.3339 32.074 60.4376 32.0469 60.5423C31.9932 60.7196 31.9234 60.8905 31.8399 61.0571C31.7822 61.1654 31.7187 61.2656 31.6459 61.3659C31.5267 61.5116 31.4011 61.6522 31.2596 61.7792C31.1628 61.8611 31.0595 61.9303 30.9497 61.9956C30.7797 62.0924 30.6049 62.1759 30.4204 62.2457C30.2045 62.3163 29.9849 62.3626 29.7597 62.3968C29.5564 62.4217 29.3518 62.4239 29.1471 62.4285C29.1239 62.4291 29.1007 62.4295 29.0768 62.4302C28.8889 62.4346 28.7011 62.4385 28.5131 62.4423C28.4844 62.4429 28.4555 62.4436 28.4258 62.4442C25.823 62.4967 24.1919 62.3577 22.2345 62.3564C22.212 62.3564 22.1894 62.3564 22.1662 62.3564C20.9539 62.3557 19.7417 62.3537 18.5294 62.3453C18.5068 62.3453 18.4844 62.345 18.461 62.3449C18.2398 62.3433 18.0186 62.3418 17.7975 62.34C17.2249 62.3352 16.6523 62.3343 16.0795 62.3353C15.9618 62.3355 15.8442 62.3356 15.7265 62.3358C15.6876 62.3358 15.6486 62.3358 15.6084 62.3358C15.5295 62.3358 15.4506 62.3358 15.3716 62.336C15.1387 62.3363 14.9058 62.3369 14.673 62.3378C14.5267 62.3383 14.3805 62.3384 14.2342 62.3384C14.1661 62.3384 14.0979 62.3387 14.0296 62.3392C13.7396 62.341 13.453 62.3423 13.166 62.2979C13.0293 62.2745 12.2508 62.369 12.1183 62.3284C12.0428 62.3005 11.9741 62.2679 11.9032 62.2308C11.873 62.2156 11.8429 62.2003 11.8118 62.1846C11.7122 62.1305 11.6191 62.0732 11.5264 62.009C11.4399 61.939 11.3649 61.8671 11.2904 61.7856C11.2035 61.678 11.134 61.5623 11.068 61.4425C10.9908 61.296 10.9248 61.1485 10.8732 60.9921C10.8266 60.8419 10.7896 60.6922 10.7647 60.5374C10.7603 60.4587 10.7572 60.381 10.756 60.3023C10.7555 60.28 10.7552 60.2578 10.7547 60.2349C10.7537 60.163 10.7527 60.0913 10.7521 60.0195C10.752 59.9949 10.7517 59.9704 10.7515 59.945C10.7495 59.6349 10.8196 59.6193 10.8733 59.3124C10.8876 59.2386 10.9035 59.1652 10.9196 59.0918C10.9253 59.0653 10.931 59.039 10.9367 59.0117C11.0499 58.4907 11.1952 57.9716 11.3976 57.4747C11.5536 57.1034 11.7237 56.7392 11.9213 56.3858C11.9329 56.365 11.9444 56.3442 11.9564 56.323C12.2386 55.8201 12.5613 55.3452 12.93 54.8946C13.0591 54.7394 13.1968 54.5929 13.3383 54.4474C13.3786 54.4037 13.4187 54.36 13.4587 54.316C13.4776 54.2953 13.4966 54.2746 13.5161 54.2533C13.5576 54.2076 13.599 54.1617 13.6402 54.1158C13.7673 53.9759 13.8971 53.8482 14.0456 53.7285C14.0939 53.689 14.1413 53.6482 14.1874 53.6065C14.4877 53.336 14.8269 53.1102 15.169 52.8891C15.6359 52.5979 16.0698 52.046 16.582 51.8325C16.7098 51.781 16.8393 51.7337 16.9696 51.6877C16.9957 51.6784 17.0219 51.6691 17.0488 51.6595C17.5132 51.4971 17.9817 51.3838 18.4667 51.2905C18.4221 51.247 18.3761 51.2046 18.3293 51.1631C18.2729 51.1252 18.2157 51.0883 18.158 51.0519C17.9917 50.9423 17.8407 50.8224 17.6969 50.6876C17.5192 50.5139 17.3654 50.3244 17.2218 50.1252C17.1011 49.9504 16.9995 49.769 16.9102 49.5782C16.7579 49.2375 16.6361 48.8854 16.5448 48.5259C16.4719 48.2163 16.4362 47.901 16.4197 47.5845C16.4093 47.2885 16.4323 46.9916 16.4735 46.6982C16.522 46.3974 16.594 46.098 16.6967 45.8094C16.8075 45.52 16.9548 45.2421 17.1146 44.9741C17.2393 44.7731 17.3807 44.5833 17.5386 44.4041C17.6294 44.3042 17.7235 44.2077 17.8198 44.1126C17.8631 44.0694 17.9057 44.0257 17.9482 43.9819C18.06 43.8681 18.1752 43.762 18.3059 43.6678C18.4161 43.5916 18.5296 43.5208 18.6445 43.4512C18.6625 43.4402 18.6804 43.4289 18.6991 43.4174C18.8862 43.3027 19.0788 43.2056 19.2835 43.1217C19.6445 42.9804 20.0101 42.8749 20.3907 42.7923C20.8717 42.696 21.3804 42.6959 21.8701 42.7258L21.87 42.7262Z" fill="#0C0E1E"/>
<path d="M61.0488 41.3828C61.4338 41.4464 61.8049 41.5341 62.1735 41.6591C62.3829 41.7339 62.581 41.823 62.7744 41.9306C62.7937 41.9414 62.8123 41.9519 62.8309 41.9624C62.9496 42.0276 63.0671 42.0941 63.1816 42.1665C63.3177 42.2562 63.4389 42.359 63.5571 42.47C63.6021 42.5128 63.6471 42.5556 63.6931 42.5976C63.7948 42.6903 63.8944 42.7847 63.991 42.8824C64.1591 43.0584 64.3114 43.2462 64.4478 43.4464C64.6231 43.7138 64.7866 43.9923 64.9141 44.2846C65.0338 44.5766 65.1233 44.8817 65.1894 45.1893C65.2479 45.4898 65.2883 45.795 65.2954 46.1014C65.2976 46.4291 65.2806 46.7567 65.226 47.0804C65.1561 47.4569 65.0552 47.8273 64.9232 48.1878C64.8451 48.3899 64.7546 48.5829 64.6444 48.7706C64.5127 48.9845 64.3703 49.1891 64.2033 49.3786C64.0676 49.5261 63.924 49.6586 63.7645 49.7813C63.7089 49.8221 63.654 49.8635 63.5999 49.9058C63.5558 49.9514 63.5121 49.9977 63.4703 50.0453C63.96 50.1137 64.4343 50.2037 64.9075 50.3446C64.9349 50.3529 64.9617 50.361 64.9883 50.369C65.121 50.4089 65.253 50.4503 65.3837 50.4962C65.9077 50.6871 66.4223 50.9291 66.9057 51.2027C67.2602 51.4112 67.6123 51.6248 67.9279 51.8868C67.9765 51.9273 68.026 51.9666 68.0766 52.0047C68.2319 52.1199 68.3691 52.2441 68.5042 52.3813C68.548 52.4264 68.592 52.4713 68.6361 52.5161C68.6569 52.5371 68.6769 52.5572 68.6971 52.5775C68.7395 52.6206 68.7823 52.6636 68.825 52.7064C68.9748 52.8483 69.1209 52.9916 69.259 53.1445C69.6538 53.5884 70.0039 54.0601 70.3152 54.5631C70.3283 54.5845 70.341 54.6053 70.3538 54.6261C70.572 54.9795 70.7632 55.3457 70.9409 55.7201C71.1722 56.2215 71.348 56.749 71.4916 57.2804C71.499 57.3081 71.5062 57.335 71.5135 57.3621C71.5341 57.4369 71.5541 57.5119 71.5727 57.5872C71.6445 57.9011 71.6662 58.2159 71.6825 58.5362C71.6837 58.5624 71.685 58.5878 71.6862 58.6132C71.6897 58.6874 71.6933 58.7616 71.6963 58.8358C71.6973 58.8595 71.6982 58.8824 71.6991 58.9053C71.7025 58.9866 71.704 59.0671 71.7042 59.1485C71.6885 59.3097 71.6603 59.4664 71.6227 59.6242C71.5802 59.7886 71.5232 59.9447 71.4547 60.1005C71.3958 60.2281 71.3332 60.3514 71.2529 60.4676C71.1834 60.5561 71.1128 60.6345 71.0305 60.7119C70.9418 60.7836 70.8523 60.848 70.7558 60.9097C70.7257 60.9277 70.6966 60.9453 70.6674 60.9627C70.5988 61.0052 70.5322 61.0427 70.4584 61.0758C70.3287 61.1254 70.1969 61.1596 70.0619 61.1916C69.778 61.2539 69.4919 61.269 69.2021 61.2839C69.134 61.2875 69.066 61.291 68.9979 61.2949C68.8518 61.3033 68.7058 61.3116 68.5599 61.3195C68.3273 61.332 68.0948 61.3446 67.8622 61.3578C67.7835 61.3623 67.7046 61.3667 67.6258 61.3712C67.5857 61.3735 67.5468 61.3757 67.5079 61.3778C67.3903 61.3844 67.273 61.3911 67.1555 61.3977C66.5837 61.4296 66.0121 61.4636 65.4408 61.5014C65.22 61.5161 64.9993 61.5305 64.7786 61.5449C64.7554 61.5464 64.733 61.5478 64.7104 61.5493C63.5005 61.6277 62.2904 61.6999 61.0803 61.7704C61.0571 61.7718 61.0346 61.773 61.0122 61.7744C58.7375 61.9071 56.4624 62.0511 54.1852 62.1349C54.1556 62.136 54.1268 62.137 54.0979 62.1381C53.9101 62.145 53.7223 62.152 53.5344 62.1581C53.5105 62.1589 53.4873 62.1597 53.4641 62.1604C53.2594 62.1675 53.0551 62.1771 52.8505 62.1631C52.6237 62.1407 52.4016 62.1055 52.182 62.0451C51.9937 61.9836 51.8142 61.9075 51.6389 61.8173C51.5254 61.7562 51.4182 61.6906 51.3168 61.6117C51.1681 61.4887 51.0343 61.3509 50.9068 61.2073C50.8284 61.108 50.759 61.0082 50.695 60.8996C50.6017 60.7324 50.522 60.56 50.458 60.38C50.4248 60.2735 50.4 60.1674 50.3831 60.0574C50.3499 59.7454 50.3523 59.423 50.3656 59.1099C50.4217 58.5791 50.5249 58.0493 50.6738 57.5356C50.8662 56.8789 51.1237 56.248 51.4293 55.6336C51.7026 55.0938 52.0212 54.5793 52.3864 54.0936C52.6734 53.7188 52.9741 53.3337 53.3215 53.0101C53.3805 52.9571 53.4375 52.9051 53.4913 52.8471C53.6392 52.6819 53.8003 52.5344 53.9693 52.3904C53.9881 52.3743 54.0062 52.359 54.0245 52.3434C54.2838 52.1208 54.5471 51.905 54.8244 51.7038C55.3125 51.3567 55.8294 51.0619 56.3701 50.8002C56.7843 50.6049 57.2102 50.4454 57.6524 50.3218C57.6844 50.313 57.7155 50.3045 57.7467 50.2962L57.7434 50.2299C57.6948 50.2184 57.637 50.1991 57.57 50.172C57.512 50.1301 57.4594 50.0849 57.4062 50.0375C57.3862 50.0191 57.3668 50.0013 57.3472 49.9836C57.2854 49.9279 57.2237 49.8718 57.1627 49.8155C57.1435 49.7976 57.1247 49.7802 57.1059 49.7628C56.9118 49.5837 56.7294 49.3972 56.5646 49.1919C56.4095 48.9875 56.2789 48.7689 56.1596 48.5431C56.0316 48.292 55.926 48.0355 55.8409 47.7677C55.7499 47.4663 55.6734 47.1627 55.6345 46.8504C55.599 46.5122 55.5793 46.1662 55.6025 45.8264C55.605 45.7992 55.6074 45.7729 55.6099 45.7464C55.6142 45.692 55.6194 45.6377 55.6253 45.5835C55.6742 45.2527 55.7537 44.9221 55.8509 44.6016C55.9443 44.3174 56.0764 44.0482 56.2176 43.7837C56.3623 43.5191 56.5216 43.266 56.7108 43.029C56.8811 42.8327 57.0699 42.6558 57.2662 42.4847C57.2855 42.468 57.3046 42.4516 57.3236 42.4352C57.3566 42.4068 57.39 42.3783 57.4235 42.3501C57.5775 42.2253 57.7397 42.1195 57.9125 42.0213C58.2327 41.8454 58.5603 41.6847 58.9069 41.5646C59.1243 41.4938 59.341 41.4342 59.5675 41.3994C60.0548 41.3403 60.5628 41.3111 61.0485 41.3828H61.0488Z" fill="#0C0E1E"/>
</g>
</g>
<defs>
<clipPath id="clip0_11_1689">
<rect width="90" height="90" fill="white"/>
</clipPath>
<clipPath id="clip1_11_1689">
<rect width="89" height="70" fill="white" transform="translate(1 10.04)"/>
</clipPath>
</defs>
</svg>
