<?xml version="1.0" encoding="UTF-8"?>
<svg id="Calque_1" xmlns="http://www.w3.org/2000/svg" version="1.1" viewBox="0 0 65 60">
  <!-- Generator: Adobe Illustrator 30.5.1, SVG Export Plug-In . SVG Version: 2.1.4 Build 3)  -->
  <path d="M9.4,59.8c1-.4,2-.8,2.9-1.4,4.8-3.3,9.7-6.7,14.4-10.1,1-.7,1.7-.8,2.8-.2,5.7,3.2,11.5,6.2,17.4,9.1.6.3,2,0,2.6-.5,2.4-1.8,1.3-5.7,1.1-8.7-.4-5.1-.8-10.3-1.1-15.4,0-.6.3-1.3.6-1.7,4.7-3.7,9.6-7.4,13.9-11.7.6-.6,1-1.8.9-2.6h0c0-.2,0-.3,0-.4-.4-.7-1.9-1.1-2.9-1.1-6.1,0-12.2.1-18.4.2-1.1,0-2.3.3-2.8-1.3-1.2-4-2.4-8-3.7-11.9-.3-.9-.9-2.1-1.6-2.2-.8-.1-1.8.7-2.6,1.3-.4.3-.8.8-1.1,1.2-2.6,4.5-5.3,8.9-7.8,13.4-.7,1.4-1.6,1.8-3.1,1.9-5.5.3-15.7,1.3-16.5,1.5-.7.2-1.4.3-2,.5-2,.8-3.2,3-2.1,4.2,3.4,4,7.4,7.3,11.6,10.6.4.3.8,1.1.7,1.6-2,7-4.5,13.8-6.2,20.9-.5,2,1.2,3.5,3,2.8ZM14.9,39.3c.4-1.3.7-2.8,1.5-3.7,1.4-1.6.6-2.4-.6-3.4-3.4-3-6.9-5.5-10.1-8.9,5.7-1.6,11.4-.7,17.1-1.6,1.3-.1,2.7-1.6,3.6-2.8.9-1.3.9-3.1,1.6-4.5,1.5-3,3.3-5.9,5-8.8.2,0,.4.2.6.3,1.2,4,2.4,8,3.4,12,.4,1.8,1.2,2.3,3.1,2.2,5.7-.2,11.5-.3,17.2-.3.4,0,.7.2,1.6.3-2.6,2.2-5,4.2-7.4,6.1-1.4,1.1-2.9,2.2-4.4,3.2-2,1.3-2.2,3.3-2.2,5.4.1,5.3.4,10.7.7,16.3-5.6-2.4-10.6-5.2-16.1-7.6-.8-.3-2.2.4-3,1-4.8,3.2-9.4,6.5-14.1,9.7-.2.1-.5.1-1.1.2,1.1-5.1,2.2-10,3.7-15Z"/>
</svg>