<svg width="90" height="90" viewBox="0 0 90 90" fill="none" xmlns="http://www.w3.org/2000/svg">
<g clip-path="url(#clip0_53_1226)">
<path d="M46.8681 79.0083C47.0988 74.5482 43.9378 74.0008 40.0655 74.1553C38.5546 74.2154 36.902 73.9999 35.5257 73.4114C33.1258 72.3853 31.5856 73.2075 30.0963 75.0191C29.2254 76.0785 28.128 76.9583 27.0868 77.8666C26.4301 78.4396 25.6889 79.2636 24.7537 78.617C23.834 77.9813 24.313 76.9453 24.5614 76.1356C25.1094 74.3487 25.6647 72.5441 26.4512 70.8568C27.1225 69.417 26.9699 68.4389 25.6824 67.5046C22.5965 65.2663 20.1884 62.4421 18.6785 58.9052C18.1343 57.6307 17.2763 57.2641 15.9603 57.6428C14.4008 58.0916 12.8175 58.462 11.2351 58.8238C10.4745 58.9978 9.5376 59.4345 9.06934 58.4564C8.68172 57.6467 9.16722 56.8673 9.71955 56.2346C10.7565 55.0462 12.1729 54.3655 13.4733 53.5467C14.9993 52.5856 15.6922 51.5621 15.1782 49.558C14.4896 46.8727 14.4719 44.0489 15.2713 41.3303C15.7288 39.775 15.2127 38.877 13.8105 38.2161C12.2691 37.4895 10.7768 36.6521 9.29312 35.8091C8.68776 35.4651 7.81938 35.1561 8.03582 34.2347C8.26478 33.261 9.18447 33.1312 9.99766 33.1593C11.6991 33.2186 13.4052 33.3125 15.0937 33.5202C16.8046 33.731 17.9942 33.3324 18.8311 31.6373C20.1759 28.9126 22.1093 26.5653 24.4234 24.6127C25.6561 23.5724 25.8583 22.5554 25.1422 21.2251C24.3708 19.7917 23.555 18.3814 22.8229 16.9286C22.3236 15.938 21.4936 14.6436 22.5581 13.8556C23.414 13.222 24.2544 14.5069 24.9102 15.1296C26.1446 16.3011 27.2752 17.5942 28.3604 18.9102C29.2021 19.9311 29.9614 20.2159 31.2489 19.5351C34.4965 17.8171 37.9657 16.633 41.5871 16.0055C43.1941 15.7272 43.7705 14.9768 43.6546 13.3618C43.5442 11.8272 43.636 10.271 43.7425 8.73166C43.79 8.04356 43.8253 7.07461 44.7622 7.03134C45.531 6.99585 45.6543 7.85748 45.8566 8.46594C46.4223 10.1671 47.0591 11.87 47.0565 13.6837C47.0544 15.5087 48.0383 16.25 49.6513 16.6568C52.0823 17.27 54.6753 18.9267 56.8321 18.4532C58.853 18.0092 60.3815 15.3577 62.1575 13.711C62.7167 13.1926 63.2949 12.2522 64.1844 12.9186C64.9338 13.4804 64.6566 14.4528 64.3603 15.1911C63.695 16.852 62.9418 18.4796 62.1756 20.0977C61.6185 21.2744 61.6646 22.2217 62.7732 23.0972C64.5048 24.4647 65.9138 26.1607 67.2496 27.9099C68.1637 29.1069 69.2248 29.3947 70.6615 28.8269C72.6992 28.0216 74.7844 27.3118 76.979 27.0565C77.7116 26.9713 78.589 26.976 78.9292 27.7243C79.2694 28.4716 78.6869 29.1481 78.1591 29.6462C76.4888 31.2236 74.527 32.3912 72.4888 33.409C71.2574 34.024 70.9418 34.7714 71.3466 36.1411C72.3405 39.5032 73.086 42.9367 73.1347 46.4655C73.1519 47.7066 73.8668 48.1125 74.824 48.5241C76.763 49.3572 78.6942 50.2218 80.5625 51.2003C81.305 51.5893 82.1876 52.1268 81.9638 53.255C81.7124 54.5226 80.6535 54.6195 79.6825 54.6178C77.8194 54.6148 75.9567 54.4776 74.0928 54.4265C72.8316 54.3919 71.9981 54.9173 71.4924 56.1745C70.5455 58.5278 69.1796 60.6678 67.6204 62.6559C66.5878 63.9728 66.3006 65.1028 67.3941 66.5811C68.4526 68.0122 69.2554 69.6372 70.1363 71.196C70.5438 71.9166 70.9594 72.8375 70.3127 73.4706C69.4818 74.2842 68.8734 73.2664 68.2831 72.8172C66.7305 71.6353 65.1386 70.4863 63.7157 69.159C62.6594 68.1736 61.9035 68.2645 60.776 69.0482C58.0264 70.9589 55.0548 72.5051 51.7615 73.2183C50.4218 73.5083 50.3084 74.2154 50.4128 75.3081C50.615 77.4235 50.5624 79.5423 50.28 81.6481C50.2097 82.1726 50.2463 82.8923 49.4814 82.9654C48.9084 83.02 48.6782 82.4786 48.4488 82.0631C47.9775 81.208 47.5472 80.3299 46.8668 79.0083H46.8681ZM54.6546 67.4687C58.8323 65.5662 64.5526 61.2317 67.4868 53.9687C73.4197 39.282 64.2642 24.7611 52.1543 20.7183C38.3192 16.0994 25.0482 25.6687 20.0414 36.0502C17.9092 40.4708 16.9788 45.3974 18.1667 50.3542C21.2896 63.389 35.9392 75.3367 54.6546 67.4687Z" fill="#0C0E1E"/>
<path d="M25.1617 54.0606C22.2147 45.6685 23.4077 38.2657 29.7425 31.4748C34.9222 25.9216 41.0625 23.9439 47.9393 25.8524C54.2504 27.6033 59.1049 31.7107 61.8399 38.1722C65.6307 47.1291 62.873 54.6752 57.1155 61.3592C53.6157 65.4224 48.2476 66.1485 43.1352 66.8401C39.2745 67.3624 36.0855 65.9287 32.9617 63.7484C29.3967 61.2605 26.2884 58.5661 25.1617 54.0602V54.0606ZM58.6018 39.9833C54.9812 30.5911 46.7445 26.8503 37.5925 30.4414C28.9789 33.8212 24.2188 44.3715 27.4513 52.7624C30.062 59.539 38.8692 66.3377 48.6236 62.1169C56.2898 58.7994 63.0036 49.5876 58.6022 39.9838L58.6018 39.9833Z" fill="#0C0E1E"/>
<path d="M39.5328 37.6054C45.2678 35.5697 49.2661 37.4253 51.9062 42.499C54.2591 47.021 50.8998 54.5904 46.0181 56.6867C41.8857 58.4615 36.424 56.1414 34.4066 51.7545C32.0114 46.5454 34.4277 39.8748 39.5324 37.6049L39.5328 37.6054ZM37.0001 48.4274C38.5484 52.4002 42.4622 54.6783 45.5257 53.3895C48.1916 52.2682 50.3621 47.3646 49.395 44.6499C48.4632 42.0351 43.021 40.2006 39.7954 41.4132C36.9212 42.4939 35.7924 45.3271 37.0005 48.427L37.0001 48.4274Z" fill="#0C0E1E"/>
</g>
<defs>
<clipPath id="clip0_53_1226">
<rect width="74" height="76" fill="white" transform="translate(8 7)"/>
</clipPath>
</defs>
</svg>
