<?xml version="1.0" encoding="UTF-8"?>
<svg id="Calque_1" xmlns="http://www.w3.org/2000/svg" version="1.1" viewBox="0 0 87 75">
  <!-- Generator: Adobe Illustrator 30.5.1, SVG Export Plug-In . SVG Version: 2.1.4 Build 3)  -->
  <defs>
    <style>
      .st0 {
        fill: #0c0e1e;
      }
    </style>
  </defs>
  <path class="st0" d="M54.3,29.3h0s0,0,0,0c-.2-.8,0-3.4.2-6.9.5-7.5,1.3-18.9-1.3-22-5.5,4.3-9.4,10.6-13.2,16.7-1.8,3-3.8,6-5.8,8.8-.3.7-3.9,1.2-10.1,2-7.7,1-18.4,2.4-19,4.7-.1.5.2,1,.9,1.5,3.1,1.4,6.3,2.8,9.4,4.1,4.8,2,9.8,4.2,14.5,6.6h.1c0,0,0,.2,0,.2-12,13.3-16.2,19.7-14.7,22,1.7,2.5,10.5.5,30.4-7h0s0,0,0,0c.5.3,1.7,1.3,3.3,2.7,5.1,4.3,14.4,12.1,19.4,12.1.2,0,.4,0,.6,0,.8-.1,1.5-.5,1.9-1.2-1-6.3-3.7-12-6.4-17.6-1-2.2-2.1-4.5-3.1-6.8h0c0-.1.1-.1.1-.1,15.1-3.5,25.2-6.3,25.2-8.9,0-2.9-12.2-5.8-32.5-10.6Z"/>
  <path class="st0" d="M54.4,29.2c-.2-.8,0-3.5.2-6.8.5-7.6,1.3-19.1-1.4-22.3h0c0,0,0,0,0,0-5.6,4.3-9.5,10.6-13.3,16.8-1.8,3-3.8,6-5.8,8.8h0c-.2.7-4.9,1.3-10,1.9-8.2,1.1-18.5,2.4-19.1,4.8-.1.6.2,1.2,1,1.8h0c3.1,1.4,6.3,2.8,9.4,4.1,4.8,2,9.7,4.1,14.4,6.5-12.1,13.5-16.2,19.7-14.6,22.1,1.8,2.6,10.3.7,30.6-6.9.6.3,1.8,1.4,3.3,2.6,5.1,4.3,14.5,12.2,19.6,12.2h0c.2,0,.5,0,.7,0,.9-.1,1.6-.6,2.1-1.4h0s0,0,0,0c-1-6.4-3.7-12.1-6.4-17.7-1-2.2-2.1-4.4-3-6.6,18.4-4.2,25.2-6.7,25.3-9.1,0-3.1-11.6-5.8-32.6-10.7ZM61.6,48.8h-.1s0,.1,0,.1c1,2.3,2,4.6,3.1,6.8,2.6,5.5,5.4,11.3,6.4,17.6-.4.7-1.1,1.1-1.9,1.2-.2,0-.4,0-.6,0-5,0-14.3-7.8-19.4-12.1-1.6-1.4-2.8-2.3-3.3-2.7h0s0,0,0,0c-19.9,7.5-28.7,9.5-30.4,7-1.5-2.3,2.7-8.6,14.7-22h0c0-.1-.1-.2-.1-.2-4.7-2.4-9.7-4.5-14.5-6.6-3.1-1.3-6.3-2.7-9.4-4.1-.7-.5-1-1.1-.9-1.5.6-2.3,11.2-3.7,19-4.7,6.3-.8,9.8-1.3,10.1-2,2.1-2.8,4-5.9,5.8-8.8,3.8-6.1,7.7-12.4,13.2-16.7,2.6,3.2,1.8,14.5,1.3,22-.2,3.6-.4,6.2-.2,6.9h0c0,0,0,0,0,0,20.3,4.8,32.5,7.6,32.5,10.6,0,2.6-10.1,5.5-25.2,8.9Z"/>
  <path class="st0" d="M17.3,11.5c-.5,0-.6.4-.6,1.1,1.1.6,2.2,1.8,3.4,3.1,2.4,2.6,5,5.4,7.3,3.5-.4-1.6-7.8-8-10.1-7.7Z"/>
  <path class="st0" d="M17.2,11.3c-.4,0-.9.3-.7,1.4h0c0,0,0,0,0,0,1,.6,2.2,1.8,3.4,3.1,1.8,2,3.8,4.2,5.8,4.2s1.2-.2,1.8-.7h0s0,0,0,0c-.3-1.5-7.9-8.3-10.3-7.9ZM20.1,15.7c-1.2-1.3-2.3-2.5-3.4-3.1,0-.7.1-1,.6-1.1,2.2-.3,9.6,6.2,10.1,7.7-2.3,1.9-4.8-.8-7.3-3.5Z"/>
  <path class="st0" d="M68.1,24.4c.5.2,1.4-.7,2.3-1.5.6-.6,1.3-1.3,1.9-1.6.3-.3.9-.7,1.6-1.2,1.7-1.2,4.1-2.9,4.3-4.3,0-.3,0-.6-.2-.9-3.4,2-6.7,4.4-10.4,7.6h0c0,1.1.2,1.8.5,1.9Z"/>
  <path class="st0" d="M68,24.6c0,0,.2,0,.2,0h0c.6,0,1.4-.8,2.3-1.6.6-.6,1.3-1.3,1.9-1.5h0c.3-.3.9-.7,1.6-1.2,1.7-1.2,4.1-2.9,4.4-4.4,0-.4,0-.8-.3-1.1h0c0,0,0,0,0,0-3.5,2-6.8,4.5-10.5,7.7h0c0,1.4.2,2,.6,2.2ZM77.9,14.9c.2.3.2.6.2.9-.2,1.4-2.6,3.1-4.3,4.3-.7.5-1.2.9-1.6,1.2-.6.3-1.3.9-1.9,1.6-.9.8-1.8,1.7-2.3,1.5-.3-.1-.5-.8-.5-1.9h0c3.6-3.2,7-5.6,10.4-7.6Z"/>
  <path class="st0" d="M31.3,17.1c-2.9-2.9-5.7-5.6-8.5-8.2-.8-.1-1.2,0-1.4.2-.4.8,2,3,3,4,.1.1.2.2.3.3h0c.7.4,1.4,1.2,2.1,2.1,1.1,1.3,2.2,2.6,3.2,2.5.5,0,.9-.4,1.3-1Z"/>
  <path class="st0" d="M31.5,17.2h0c0,0,0-.1,0-.1-2.9-3-5.8-5.7-8.6-8.3h0s0,0,0,0c-.9-.1-1.4,0-1.6.3-.4.8,1.4,2.6,3.1,4.3.1.1.2.2.3.3h0c.6.4,1.3,1.2,2.1,2.1,1.1,1.3,2.2,2.6,3.3,2.6h0s0,0,.1,0c.5,0,1-.4,1.5-1.2ZM26.9,15.6c-.7-.9-1.4-1.7-2.1-2.1h0c0,0-.2-.2-.3-.3-1-1-3.4-3.3-3-4,.1-.3.6-.3,1.4-.2,2.8,2.6,5.6,5.3,8.5,8.2-.4.6-.8,1-1.3,1-1,0-2.1-1.2-3.2-2.5Z"/>
  <path class="st0" d="M10.3,47.8c-.2-.2-.6-.3-1.1-.3-1.3,0-3.4.7-5.1,1.2-1.2.4-2.3.7-3.1.8-.7.2-.9.7-.9,1.2,0,.5.4,1.1,1,1.1,1.1-.4,2.4-.6,3.6-.8,2.4-.5,4.8-.9,5.8-2.5,0-.4,0-.6-.3-.8Z"/>
  <path class="st0" d="M4.1,48.5c-1.2.4-2.3.7-3,.8-.8.2-1.1.9-1,1.5,0,.6.5,1.3,1.2,1.3h0s0,0,0,0c1.1-.4,2.3-.6,3.6-.8,2.5-.5,4.9-.9,5.9-2.6h0s0,0,0,0c0-.5,0-.8-.4-1-1-.8-3.8.1-6.3.9ZM4.7,51.1c-1.2.2-2.5.5-3.6.8-.6,0-.9-.6-1-1.1,0-.5.1-1.1.9-1.2.7,0,1.9-.5,3.1-.8,1.7-.6,3.8-1.2,5.1-1.2s.8,0,1.1.3c.2.2.3.4.3.8-1,1.6-3.3,2-5.8,2.5Z"/>
  <path class="st0" d="M67.6,18.6c.8-.7,1.5-1.4,2.1-1.8.3-.4,1.2-1.1,2.2-1.8,1.7-1.3,3.8-2.8,3.9-3.9,0-.2,0-.3,0-.5-2.9,1.9-5.5,3.9-8.1,5.9-1.2.9-2.4,1.8-3.7,2.8,0,.8.2,1.3.5,1.4.6.3,2-1,3.2-2.1Z"/>
  <path class="st0" d="M69.8,17h0c.3-.4,1.2-1.1,2.1-1.8,1.8-1.3,3.8-2.9,4-4,0-.3,0-.5-.2-.7h0c0,0,0,0,0,0-2.9,1.9-5.6,4-8.2,5.9-1.2.9-2.5,1.9-3.7,2.8h0s0,0,0,0c0,.9.2,1.5.6,1.7,0,0,.2,0,.3,0,.8,0,1.9-1.1,3.1-2.2.7-.7,1.5-1.4,2.1-1.8ZM64,19.2c1.3-.9,2.5-1.9,3.7-2.8,2.6-1.9,5.2-3.9,8.1-5.9,0,.1,0,.3,0,.5-.2,1.1-2.2,2.6-3.9,3.9-1,.7-1.8,1.4-2.2,1.8-.6.4-1.3,1.1-2.1,1.8-1.2,1.1-2.5,2.4-3.2,2.1-.3-.1-.5-.6-.5-1.4Z"/>
  <path class="st0" d="M82.5,59.7c.8.7,1.5,1.3,2,1.9.6-.3.9-.6.9-1,.2-1.3-2.2-3.2-4-4.6-.6-.5-1.2-.9-1.5-1.2h0c-1,1.9.8,3.5,2.6,5Z"/>
  <path class="st0" d="M82.3,59.8c.8.7,1.5,1.3,2,1.9h0c0,0,0,0,0,0h0c.7-.3,1-.8,1.1-1.3.2-1.5-2.3-3.4-4.1-4.8-.7-.5-1.3-1-1.6-1.3h0c0-.1,0,0,0,0-1.2,2.1.8,3.8,2.6,5.4ZM81.3,56c1.8,1.4,4.2,3.2,4,4.6,0,.4-.4.8-.9,1-.5-.6-1.2-1.3-2-1.9-1.8-1.5-3.6-3.1-2.6-5h0c.3.3.9.8,1.5,1.2Z"/>
  <path class="st0" d="M3.6,55c-.2.3-.1.7.1,1.1.9-.4,2-.7,3-1,2-.6,4.1-1.2,5.2-2.6-.4,0-.9.2-1.5.3-2.3.3-6.1.9-6.8,2.3Z"/>
  <path class="st0" d="M10.3,52.5c-2.5.4-6.2.9-6.9,2.4-.2.4-.1.9.2,1.4h0c0,0,0,0,0,0h0c.9-.5,2-.8,3.1-1.1,2.2-.6,4.4-1.3,5.4-2.9v-.2c.1,0-.1,0-.1,0-.4,0-1,.2-1.8.3ZM6.8,55.1c-1,.3-2.1.6-3,1-.2-.4-.3-.7-.1-1.1.6-1.4,4.5-2,6.8-2.3.6,0,1.2-.2,1.5-.3-1.1,1.4-3.1,2-5.2,2.6Z"/>
  <path class="st0" d="M45.8,74.8c.4-1.2,0-4.8-1-6-.2-.3-.4-.4-.6-.4,0,.2,0,.5-.1.7-.3,1.8-.6,3.8.3,4.9.3.4.8.7,1.4.8Z"/>
  <path class="st0" d="M45.9,75h0c.5-1.2,0-5.1-1-6.4-.3-.4-.6-.5-.9-.5h0s0,0,0,0c0,.3,0,.5-.1.8-.3,1.8-.6,3.9.3,5,.4.5.9.8,1.6.9h0s0,0,0,0h0ZM44.1,69.1c0-.2,0-.5.1-.7.2,0,.4.1.6.4.9,1.2,1.4,4.9,1,6-.6-.1-1.1-.4-1.4-.8-.8-1.1-.5-3.1-.3-4.9Z"/>
  <path class="st0" d="M40.8,72.2c.8-1.9,1.1-3.6,1-5.4,0-.5-.1-1-.7-1.1-.8,1.9-1.3,3.9-1.6,6.2l1.2.5s0,0,0,0c0,0,.1-.1.1-.2Z"/>
  <path class="st0" d="M40.7,72.6c0,0,0-.1.1-.1,0,0,.1-.1.2-.2.8-1.9,1.1-3.7,1-5.5,0-.5-.2-1.2-1-1.3h0s0,0,0,0c-.9,1.9-1.3,4-1.7,6.4h0c0,0,1.4.7,1.4.7h0ZM39.4,71.9c.4-2.4.8-4.4,1.6-6.2.6.2.7.7.7,1.1.1,1.7-.2,3.5-1,5.4,0,0,0,0-.1.2,0,0,0,0,0,0l-1.2-.5Z"/>
  <path class="st0" d="M81.9,64.7c1.2-1.7,0-3.1-1.2-4.5-.5-.6-1-1.2-1.3-1.8-.5,1.5.6,4.3,2.5,6.3Z"/>
  <path class="st0" d="M81.8,64.9h0c0,0,0,0,0,0h0c1.4-2,0-3.6-1.1-4.9-.6-.7-1.2-1.3-1.4-2v-.2c0,0-.2.2-.2.2-.9,1.7.6,4.9,2.5,6.9ZM81.9,64.7c-1.9-2-3-4.8-2.5-6.3.3.6.8,1.2,1.3,1.8,1.2,1.4,2.4,2.8,1.2,4.5Z"/>
</svg>