<?xml version="1.0" encoding="UTF-8"?>
<svg id="Calque_1" xmlns="http://www.w3.org/2000/svg" version="1.1" viewBox="0 0 89.9 59.8">
  <!-- Generator: Adobe Illustrator 30.5.1, SVG Export Plug-In . SVG Version: 2.1.4 Build 3)  -->
  <path d="M82.3,1.8c-20.6,9.6,1.9,1.9-39.9-.1C27.9,2-3.3,8.1.3,30.3c.3,8.7,3.2,17.1,10,22.6,12.3,8.9,23.8,7.2,39.2,6,22.2-1.2,43.1-15.3,32.2-41.2,2.7-5.1,16.7-23.4.6-15.8ZM80.8,15.5c-4,4.8,5.8,3-.1,22.6-5.6,14.3-14,17.4-37.5,19-12.8,1.5-27.1.8-35.2-10.7C3.1,39.9.4,26.8,5.6,18.7,18.2,2.9,50.6.9,70.7,8.1c6.1-.3,11.2-5.6,17.3-6.3,0,3-4.6,8.7-7.1,13.6Z"/>
  <path d="M30.4,26.1c-1.2-.5-2.5-.7-3.8-.6-.5,0-1.1.3-1.6.6-1.8,1.3-2.7,3.1-2.7,5.7,0,1.9,1,3.6,3,4.6,2.7,1.3,5.5,1.1,7.5-1.3,1.5-1.7,1.9-3.7.9-5.8-.7-1.4-1.8-2.5-3.2-3.2Z"/>
  <path d="M45.7,25.7c-1.8,0-3.2.4-4.4,1.5-1.5,1.4-2.2,3.1-2,5.1.2,2.3,1.7,4,3.9,4.6,3.8.9,7.1-2,7.5-5.3.2-1.2,0-2.4-.7-3.4-1.1-1.6-2.6-2.5-4.3-2.5Z"/>
  <path d="M65.2,27.2c-.3-.2-.6-.5-.8-.7-1.6-1.7-4.1-1.5-5.6-.5-1.8,1.3-3,3-3,5.4,0,.2,0,.3,0,.4.1,1.8.8,3.3,2.5,4,.7.3,1.5.5,2.3.5,2.4,0,4.4-.9,5.4-3.3.3-.7.4-1.5.6-2.2.2-1.4-.3-2.6-1.4-3.6Z"/>
</svg>