<svg width="90" height="90" viewBox="0 0 90 90" fill="none" xmlns="http://www.w3.org/2000/svg">
<path d="M13.0664 23.1038C17.6848 20.3361 18.0304 28.2547 18.5947 26.6747C20.2186 28.1155 21.9606 33.2864 23.6049 32.6418C30.7209 27.7297 38.5211 24.1158 47.4543 25.3819C50.9977 27.0087 47.9952 13.3353 51.1227 13.0026C52.5938 12.9188 52.2611 14.8545 52.3414 16.1777C52.4524 19.2749 51.1748 24.5135 52.8097 25.9994C60.2688 27.2026 67.1001 29.6913 72.6079 35.0557C74.6063 32.0795 75.7712 27.9428 78.3687 25.3123C80.6417 24.4779 80.3447 26.0214 79.2791 27.712C71.3538 43.1009 76.0744 33.6604 80.2431 45.7057C80.4879 46.3298 80.7984 46.7227 81.8626 46.7533C80.8414 50.6229 76.8954 53.1576 74.0402 56.0733C73.3316 57.209 70.5092 57.7256 71.1102 59.1339C72.5209 62.9267 78.0209 69.9444 73.2816 69.5085C71.6547 66.6918 70.6672 63.1121 69.018 60.0072C63.342 63.132 57.3159 65.0087 50.6377 64.9586C50.8929 68.2418 52.1339 71.6617 52.3438 75.099C48.622 78.3614 49.2605 67.2784 48.3741 65.024C42.4307 65.0444 36.2669 64.5213 30.2442 63.5651C28.6818 63.2345 28.7127 63.6104 28.2518 65.3449C27.712 67.9481 24.7814 76.4458 22.6834 72.0736C23.5335 68.9096 26.1403 65.3293 25.9774 62.683C18.9313 60.9185 12.8928 57.2448 8.83186 51.1472C6.03162 48.859 11.1262 46.0056 12.0062 43.7927C22.7878 30.8795 21.4586 39.1098 13.0664 23.1038ZM11.5305 49.0931C20.2091 59.9499 30.0438 60.7864 41.1366 62.204C51.3501 62.7585 61.7966 64.5583 69.529 56.8655C73.2042 54.0909 75.143 50.4515 77.8986 47.1131C77.6309 46.6821 77.1838 46.0038 76.7299 45.2489C71.1406 28.7508 55.1091 26.4466 41.3071 27.6644C28.7385 30.523 19.0919 38.9409 11.5305 49.0931Z" fill="#0C0E1E"/>
<path d="M44.3902 36.7161C60.4922 37.659 51.1219 55.3115 45.2311 55.0158C31.5607 55.5054 33.2631 37.6119 44.3902 36.7161Z" fill="#0C0E1E"/>
</svg>
