<svg width="90" height="90" viewBox="0 0 90 90" fill="none" xmlns="http://www.w3.org/2000/svg">
<g clip-path="url(#clip0_11_1388)">
<g clip-path="url(#clip1_11_1388)">
<path d="M14.0474 47.0347C13.1086 38.2345 12.1997 29.4314 11.1275 20.6462C10.9983 18.714 10.4331 16.749 10.6993 14.8191C10.9021 13.9676 11.6492 13.4138 12.6363 13.3164C16.1367 12.9618 19.6441 12.6746 23.1371 12.251C23.808 12.1799 23.6166 11.5705 24.5792 11.5267C25.6952 11.4074 26.8087 11.2617 27.9261 11.1582C28.4242 11.112 28.7078 10.8838 28.8528 10.4114C29.5005 8.66026 29.6999 6.38107 31.597 5.51076C33.1731 4.75086 34.8609 5.45287 35.8935 6.75267C36.703 7.86039 37.496 8.98089 38.2666 10.116C38.4413 10.3734 38.6109 10.4942 38.917 10.4764C40.0474 10.4105 41.1788 10.3599 42.3096 10.2999C42.8163 10.2731 43.3119 10.2529 43.6971 10.6884C43.7642 10.7643 43.9377 10.7797 44.0578 10.7699C46.7949 10.548 49.5316 10.3195 52.2682 10.0903C54.1486 9.87707 56.6978 9.36946 56.9954 11.9603C58.128 23.0811 59.3022 34.1977 60.5178 45.3097C61.5747 54.4434 62.5564 63.6 63.49 72.7496C63.4851 74.8717 62.0475 75.3657 60.1971 75.6118C48.8354 77.2348 37.4687 78.8225 26.1162 80.5097C24.4404 80.7543 22.758 80.9606 21.0906 81.2532C19.995 81.4455 18.6535 80.6532 18.3041 79.4089C16.5158 68.684 15.5453 57.8109 14.0763 47.0318L14.0473 47.0345L14.0474 47.0347ZM14.6351 46.5081L14.6926 46.502C16.0289 57.103 17.171 67.7375 18.9239 78.2797C19.0068 78.7696 19.2545 79.2428 19.4852 79.6934C19.7597 80.2296 20.2014 80.4165 20.834 80.3201C33.3018 78.5006 45.7765 76.7257 58.2462 74.9173C59.3469 74.758 60.4528 74.6301 61.5485 74.4418C62.8954 74.1818 62.8105 72.9661 62.6158 71.8668C60.8634 54.8777 59.0517 37.8944 57.1668 20.9195C56.7522 17.8017 56.604 14.6301 56.0278 11.5418C55.826 10.7736 54.9911 10.6772 54.3131 10.7558C50.9664 11.0914 47.5923 11.3006 44.2593 11.7139C44.1811 11.7456 44.0862 11.8649 44.0872 11.9436C43.9881 12.9314 44.7074 15.0023 43.1801 15.0597C37.2022 15.5072 31.2288 16.0126 25.2553 16.5131C24.8266 16.5497 24.5654 16.3671 24.281 16.1157C23.9722 15.8411 24.2436 15.5204 24.1132 15.1932C23.959 14.5345 23.8482 13.8649 23.6901 13.208C23.6663 13.1166 23.5209 12.9849 23.4413 12.9915C21.3964 13.1754 19.3653 13.4941 17.3244 13.7148C15.8398 13.8792 14.3524 14.0193 12.8649 14.156C12.1514 14.2216 11.6906 14.5994 11.4774 15.2597C12.1327 25.6675 13.6478 36.0989 14.6351 46.5081ZM32.7845 6.93612C30.8762 7.31839 31.6039 9.82975 33.1389 9.834C35.129 9.53765 34.7129 6.85037 32.7845 6.93612Z" fill="#0C0E1E"/>
<path d="M42.9743 59.6829C47.7775 59.169 52.5802 58.6484 57.3832 58.1338C58.0102 57.9627 57.9516 58.6746 57.3783 58.7688C48.1295 59.8413 38.8854 60.9515 29.6414 62.0627C29.0354 62.1322 28.4222 62.1488 27.8118 62.1613C27.6898 62.1638 27.565 62.037 27.4416 61.9699C27.5283 61.8731 27.5977 61.7241 27.7049 61.6884C28.1195 61.5504 28.5395 61.3913 28.9692 61.3419C33.6397 60.8089 38.3113 60.2867 42.9842 59.7752L42.9743 59.6829ZM23.1559 60.4059C25.2587 60.0441 26.9756 62.5765 25.1488 64.0924C24.313 64.9674 23.2986 65.1524 22.2021 64.7881C19.8954 63.9339 20.7434 60.4721 23.1559 60.4059ZM24.9277 62.7829C24.8242 61.1281 22.2578 60.3979 21.7784 62.108C21.3833 63.5851 23.0883 64.839 24.3715 64.0008C24.8954 63.7046 24.9457 63.1999 24.9277 62.7829ZM25.6533 47.3741C25.8375 46.9914 26.1572 46.9525 26.4142 46.899C27.1382 46.7483 27.8725 46.6437 28.6052 46.5383C36.4652 45.4402 44.3146 44.2609 52.1923 43.2951C53.4726 43.1289 54.7502 42.94 56.0316 42.7829C56.3072 42.7152 57.2098 42.9076 56.6397 43.2263C47.0204 44.616 37.3947 45.9787 27.7614 47.2753C27.0428 47.3394 26.3876 47.4983 25.6534 47.3741H25.6533ZM21.1341 45.9566C22.5077 45.8237 23.8394 46.9711 23.5668 48.3714C23.3874 49.3203 22.0627 50.4409 21.1015 50.4788C18.8216 50.6057 17.93 47.3842 20.0505 46.376C20.3919 46.1983 20.7718 46.0943 21.1341 45.9566ZM22.7833 48.3301C22.6869 46.3364 19.4233 46.0854 19.7186 48.2118C19.9959 49.9989 22.8215 50.3763 22.7833 48.3301ZM30.6722 53.7116C38.7847 52.6188 46.8868 51.4488 55.0063 50.4091C55.7286 50.361 56.4781 50.029 57.1934 50.2008C57.6453 50.4326 57.1086 50.7057 56.8243 50.7217C53.7509 51.2581 50.6651 51.7165 47.5737 52.135C41.0072 53.0763 34.4299 53.9364 27.8481 54.7634C27.5255 54.7764 26.7524 54.8784 26.6377 54.6452C26.6145 54.5562 26.6393 54.3903 26.6998 54.3558C26.8854 54.2499 27.0921 54.1478 27.3004 54.121C28.4235 53.9782 29.5501 53.8619 30.6756 53.7381L30.6721 53.7116H30.6722ZM24.9315 54.9037C25.232 57.0243 22.5707 58.1694 20.9681 56.9742C19.8158 56.165 19.9816 54.6875 20.9399 53.9458C22.1295 52.8665 24.5949 53.2424 24.9315 54.9037ZM22.1159 54.0357C20.1729 54.3819 21.1064 56.9249 22.8621 56.8185C24.752 56.4694 24.1147 53.8225 22.1159 54.0357ZM33.4143 24.3973C30.1572 24.8443 26.895 25.2632 23.6418 25.734C23.5447 25.7451 23.4398 25.6882 23.3384 25.6625C23.3695 25.1903 23.8199 24.9584 24.2316 24.8954C34.2157 23.2405 44.2928 22.1468 54.2671 20.4419C54.3835 20.4264 54.5993 20.4942 54.6197 20.5663C54.6561 20.6952 54.629 20.9203 54.5389 20.9912C54.3267 21.158 54.0743 21.3248 53.8161 21.3732C47.0413 22.5413 40.215 23.3937 33.417 24.4151L33.4143 24.3973ZM18.3453 28.9213C16.0211 29.1521 14.616 26.5478 16.3573 24.9503C18.3641 22.795 22.2547 25.2796 20.3688 27.7434C19.7902 28.3958 19.083 28.819 18.3453 28.9213ZM18.5481 28.3053C19.2997 28.1322 19.9081 28.005 20.0785 27.1476C20.4171 25.7346 19.1621 24.7902 18.1945 24.7122C17.2975 24.6399 16.4044 25.3321 16.3122 26.1355C16.1868 27.2286 17.4526 28.4509 18.5481 28.3053ZM38.4927 30.5026C43.9973 29.7056 49.5096 28.9603 55.0059 28.1082C55.9305 27.9462 55.7288 28.918 54.9995 29.0097C44.7462 30.2738 34.5344 32.1814 24.2828 33.2973C23.5799 33.0731 24.3716 32.5068 24.7459 32.4578C25.404 32.3373 26.0697 32.2576 26.7328 32.1649C30.6537 31.617 34.575 31.0723 38.4965 30.5289L38.4927 30.5025L38.4927 30.5026ZM19.0983 31.835C21.4079 31.4007 23.2232 34.2947 21.009 35.6226C18.9191 36.9855 15.5459 34.4651 17.8456 32.4188C18.2553 32.0722 18.7201 31.8749 19.0983 31.835ZM20.0712 35.3608C21.0393 35.3394 21.3206 34.3281 21.0093 33.5483C20.7251 32.7961 20.1007 32.4346 19.371 32.2221C18.8671 32.0753 18.4635 32.2898 18.1269 32.6328C17.032 33.785 18.8465 35.6051 20.0712 35.3608ZM46.2018 36.5949C49.3816 36.1917 52.5602 35.7013 55.7402 35.3381C55.9573 35.3722 56.2364 35.395 56.2566 35.6552C56.2778 35.9295 55.9975 35.9443 55.7929 35.9745C54.1278 36.2206 52.4617 36.4605 50.7965 36.7058C42.5257 37.9147 34.2561 39.1389 25.9698 40.238C25.6993 40.273 25.4143 40.2166 25.1391 40.1795C25.0704 40.1703 25.0138 40.0715 24.9517 40.0139C25.0149 39.9588 25.0696 39.8749 25.1428 39.8533C25.5267 39.7401 25.9097 39.6078 26.303 39.5453C32.9205 38.457 39.5661 37.5606 46.2018 36.5948V36.5949ZM20.5255 43.0277C18.8123 43.2819 17.469 41.4313 18.5186 40.0718C18.8873 39.6039 19.344 39.2289 19.9207 39.026C21.122 38.6035 22.7607 39.7476 22.6927 40.9631C22.6404 42.067 21.5936 42.8944 20.5255 43.0277ZM20.0157 39.6767C19.1315 39.7553 18.6251 40.8312 19.1104 41.5931C19.4189 42.0777 19.872 42.3582 20.4108 42.4985C22.6598 42.7176 22.019 39.4431 20.0157 39.6767Z" fill="#0C0E1E"/>
</g>
<g clip-path="url(#clip2_11_1388)">
<path d="M45.6054 50.8696C54.4416 40.8533 47.0726 46.3209 49.9293 35.298C50.0647 34.7008 50.2603 34.1174 50.422 33.5259C50.6754 32.6297 50.7504 31.3337 51.8551 31.1121C52.1649 31.0536 52.2464 30.8843 52.3279 30.6535C52.592 30.0432 52.6874 29.3867 52.9015 28.7624C53.1899 28.0211 53.4987 27.2858 53.8201 26.56C54.0122 25.8342 54.3252 25.1582 54.6567 24.4874C54.9128 23.902 55.1734 23.3185 55.4558 22.7457C55.5517 22.2698 55.82 21.8533 56.0338 21.4211C57.1558 19.3377 58.4801 17.3069 60.323 15.7913C61.171 15.1449 62.1963 14.7663 63.1607 14.3263C63.4009 14.2208 63.641 14.1552 63.9161 14.2746C64.0871 14.3488 64.3036 14.3092 64.4916 14.3544C65.4652 14.6361 66.5231 14.7604 67.3525 15.3917C67.7984 15.6888 68.2405 15.963 68.5514 16.4157C68.9178 16.7754 69.3269 17.092 69.7209 17.4207C69.8158 17.4968 69.9321 17.565 70.0489 17.5919C71.2029 17.8316 72.0312 19.4849 70.7947 20.1958C70.1096 20.5522 69.2501 20.4252 68.7594 19.8299C68.4452 19.4997 68.5728 18.8689 68.227 18.5592C67.8734 18.2841 67.6304 17.9181 67.379 17.5561C67.3291 17.4843 67.1999 17.4731 67.1253 17.412C66.7043 17.0246 66.2605 16.6434 65.7663 16.3547C63.1062 15.457 61.4104 16.8414 59.8031 18.8309C59.3036 19.4588 58.6779 20.0021 58.3101 20.7225C57.272 22.4098 56.5265 24.236 55.6727 26.0181C55.2748 26.9394 54.8505 27.8523 54.4171 28.7554C54.1174 29.5441 53.8888 30.3632 53.5412 31.1289C53.1335 31.9772 53.9903 32.4529 53.1994 33.7965C52.8225 34.6784 52.6062 35.6243 52.1694 36.4874C51.9883 36.8807 51.8718 37.3039 51.7287 37.7146C51.0449 39.2662 50.9726 41.1253 51.8314 42.6275C53.1087 44.9548 56.2458 45.1244 58.3299 43.8338C60.073 42.9464 61.5248 41.6267 63.1319 40.5335C63.9169 40.0677 64.3326 40.6462 64.6938 40.466C65.8361 39.6199 66.9823 38.7749 68.0836 37.8755C68.5312 37.5007 68.9203 37.0625 69.4207 36.7422C70.1808 36.1829 70.9127 35.5656 71.6725 35.0019C72.1073 34.6066 72.4861 34.1431 72.917 33.7407C73.7661 32.9595 74.5894 32.1582 75.2076 31.1758C75.738 30.5082 76.301 29.8399 76.4773 28.9749C76.5434 28.6372 76.687 28.3155 76.7841 27.9831C77.0327 27.1321 77.0608 26.2855 76.7263 25.4454C76.592 25.108 76.554 24.7279 76.2886 24.4499C75.7939 23.9317 75.2558 23.4962 74.5103 23.3786C74.2723 23.3411 74.0315 23.2188 73.8291 23.0808C73.5143 22.8663 73.1731 22.8041 72.8096 22.7856C71.9168 22.7401 71.2044 21.6788 71.3744 20.8607C71.5496 20.0171 72.6356 19.5927 73.3456 20.0908C73.8701 20.4787 74.066 21.1621 74.6932 21.4484C75.0005 21.599 75.2952 21.7897 75.4499 22.1568C75.5142 22.3095 75.7944 22.3652 75.9674 22.4787C76.3483 22.7285 76.791 22.8871 77.0753 23.2803C77.5694 23.7912 78.0459 24.3448 78.3978 24.9656C79.197 26.4673 78.9276 29.3364 77.8843 30.6886C77.2438 31.5452 76.7883 32.5686 75.8948 33.204C75.1111 34.142 74.2048 34.96 73.2878 35.7644C72.2538 36.6562 71.2303 37.5661 70.0637 38.2847C69.334 38.6545 68.6704 39.1133 68.0346 39.6275C67.2098 40.2678 66.3547 40.8635 65.4776 41.4291C65.4294 41.4622 65.3858 41.5794 65.4077 41.6253C65.5813 41.9894 65.4167 42.2914 65.23 42.574C64.8854 43.1375 64.3479 43.531 63.7599 43.8186C61.6168 44.8758 58.7127 46.7419 56.2897 46.6235C55.4861 46.6235 54.6751 46.528 53.8763 46.4261C53.0801 46.3129 52.3981 46.5273 51.7769 47.0233C48.1199 50.4436 45.1453 54.547 42.3657 58.6956C38.5102 64.6834 35.3544 72.7045 39.9169 79.1788C42.9864 83.3907 48.5754 86.7613 53.8618 86.7031C56.5656 86.8006 59.203 85.9812 61.5083 84.5929C66.8064 81.5899 71.0275 76.0965 72.2502 70.167C73.1716 66.3961 73.1537 62.7378 73.0511 58.8886C73.0613 58.594 72.4952 58.4968 72.1745 58.0088C72.0363 57.7986 71.8818 57.5776 71.8242 57.3396C71.4727 56.1308 71.5225 54.936 71.7901 53.7121C71.6815 53.3022 70.2023 53.9078 69.2727 52.6847C69.1188 52.4995 68.9503 52.3221 68.7671 52.1661C68.0431 51.5254 67.832 50.5406 67.7354 49.6243C67.6049 48.4047 67.9883 47.2097 68.5343 46.1305C68.9013 45.4007 69.4265 44.7334 70.2296 44.473C70.8332 44.2144 71.4524 44.1673 72.0904 44.3487C72.6674 44.4665 72.9334 45.1153 73.5689 45.0233C76.2898 44.8248 76.9855 48.4404 76.1235 50.4421C75.8751 51.1392 75.4458 51.7349 74.747 52.079C74.7112 52.0966 74.6899 52.1489 74.668 52.1885C73.7636 53.962 73.7155 53.1927 74.3678 54.6941C74.6043 55.3915 74.5476 56.1119 74.4662 56.8297C74.3997 57.234 74.4239 57.6864 74.3076 58.0685C74.0473 58.1409 74.1373 58.3375 74.1516 58.5012C74.4846 62.585 74.3959 66.7243 73.5446 70.742C72.2155 77.5261 67.7822 83.5111 61.7474 86.8505C55.4681 90.4114 47.3836 88.6384 42.0155 84.1844C40.0585 82.6077 38.4448 80.6283 37.1617 78.4716C36.3732 77.0721 35.5496 75.6094 35.4095 73.9775C35.2084 71.635 34.8941 69.3167 35.7282 67.1272C37.9927 61.1823 41.6287 55.8307 45.6445 50.9006L45.6057 50.8693L45.6054 50.8696ZM72.7598 45.2715C72.4701 45.0649 72.2492 44.8248 71.9781 44.7333C70.6089 44.4022 69.3458 45.777 68.9867 46.9841C68.8826 47.5121 68.8499 48.0548 68.7988 48.5924C68.7504 49.1008 68.6902 49.6104 68.8138 50.1186C68.9969 50.8485 68.818 50.9178 69.3 51.6106C69.4608 51.8988 69.7035 52.14 69.8972 52.4112C70.2138 52.939 70.8574 52.9487 71.4025 53.0167C72.0408 53.0695 72.6125 52.9088 73.0733 52.4364C73.2442 52.2612 73.2431 52.2334 73.0153 52.1499C70.2675 51.0705 70.3457 46.7051 72.7598 45.2714V45.2715ZM72.9777 51.1311C75.3237 52.9861 76.7711 47.4894 74.5595 46.0732C73.9985 45.589 73.1951 45.9499 72.7571 46.4322C71.5832 47.7321 71.548 49.9656 72.9777 51.131V51.1311ZM65.0538 41.16C66.3831 40.3653 67.5293 39.3477 68.7823 38.4459C70.5834 37.1656 72.3809 35.873 73.964 34.3217C75.1393 33.2999 76.1739 32.1375 77.0011 30.8168C77.4373 30.136 77.88 29.4407 77.9679 28.595C77.9955 28.3302 78.1344 28.0741 78.1445 27.811C78.1843 26.5867 78.2922 25.471 77.4493 24.4674C77.2622 24.1563 75.4642 22.1812 75.2336 22.7396C75.177 22.8438 75.14 22.9417 75.2724 23.0234C76.0722 23.504 76.8648 24.0679 77.1987 24.9837C77.3337 25.5346 77.7074 26.0343 77.632 26.6197C77.5987 27.6372 77.6593 28.6996 77.1074 29.603C76.713 30.2992 76.2529 30.9606 75.7871 31.6126C74.822 32.5493 73.94 33.5931 72.9033 34.464C70.2782 36.6897 67.6565 38.8794 64.8634 40.8968L65.0537 41.1599L65.0538 41.16ZM59.5533 18.1446C60.2584 17.3626 61.1104 16.3311 62.1743 15.9339C62.5026 15.8032 62.8399 15.6955 63.1683 15.5652C63.7224 15.3453 64.3013 15.4656 64.8672 15.448C65.1427 15.4395 65.4328 15.5502 65.6977 15.6544C66.4576 15.9342 66.9976 16.5627 67.5953 17.0809C67.7214 17.195 67.8302 17.1784 67.9411 17.0683C68.1165 16.8886 68.3683 16.709 68.102 16.4882C67.6869 16.1129 67.2714 15.7241 66.7319 15.5381C65.2555 15.0264 63.6556 14.6187 62.1743 15.3462C58.4097 17.1452 56.8417 21.3727 55.0628 24.8782C54.1881 26.8659 53.3646 28.8783 52.5983 30.9103C52.5065 31.1386 52.7041 31.1765 52.7955 31.2879C52.9341 31.1617 53.0736 31.0278 53.1343 30.8453C53.328 30.3091 53.5026 29.7655 53.7109 29.2351C53.8928 28.7719 53.956 28.2619 54.2659 27.8471C54.3595 27.7219 54.4634 27.5636 54.4655 27.4191C54.4699 27.1148 54.6051 26.8818 54.7569 26.6424C55.1495 26.0088 55.4423 25.3179 55.7538 24.6424C55.9997 24.0789 56.3397 23.5616 56.529 22.9687C56.634 22.64 56.8135 22.3339 56.9711 22.0236C57.6613 20.5666 58.6282 19.5066 59.5533 18.1446ZM73.7575 57.3441C73.7832 56.2794 74.0447 55.2056 73.5651 54.1971C73.4485 53.7213 73.0283 53.8628 72.6454 53.8253C72.2057 53.8283 72.3487 54.4674 72.271 54.7643C72.2045 55.6512 72.2927 56.5214 72.5653 57.3704C72.606 57.4973 72.6595 57.621 72.8204 57.5876C73.1331 57.5101 73.4576 57.4614 73.7575 57.3441L73.7575 57.3441Z" fill="#0C0E1E"/>
</g>
</g>
<defs>
<clipPath id="clip0_11_1388">
<rect width="90" height="90" fill="white"/>
</clipPath>
<clipPath id="clip1_11_1388">
<rect width="52.8612" height="76.0847" fill="white" transform="translate(10.6294 5.19775)"/>
</clipPath>
<clipPath id="clip2_11_1388">
<rect width="43.6824" height="74.5365" fill="white" transform="translate(35.1802 14.2107)"/>
</clipPath>
</defs>
</svg>
