<?xml version="1.0" encoding="UTF-8"?>
<svg id="Calque_1" xmlns="http://www.w3.org/2000/svg" version="1.1" viewBox="0 0 78 58">
  <!-- Generator: Adobe Illustrator 30.5.1, SVG Export Plug-In . SVG Version: 2.1.4 Build 3)  -->
  <path d="M73.3,11c1.6-.9,3.7-.9,1.7-3.1,0-.4-1.8.7-3,1.1-1.2.5-1.1.7.1-1,.5-1,1.4-1.9,2-2.7-.2-.5-1-1.4-1.5-1.5-.1,0-.5.4-.7.7-1.2,1.8-1.8,3.9-2.8,5.7-.6.4-1.3.5-2,.8-.7.3-1.3.8-2.1.8.6-.7.9-1.5,1.4-2.2.7-1,1.1-1.4,2-3.1.4-.3-.7-1.1-1.1-1.3-.4-.1-.3-.2-.6.3-.6,1.4-1.6,2.4-2.2,3.7-.4.8-.8,1.6-1.2,2.5-.3.6-.2,1.1-1.1,1.4-1.3.6-2.6,1.2-4,1.7-1.2.5-.6.8-2-1.2C50,4.8,39.7,0,29.5,0h-.2C19.2,0,9.2,4.6,3.4,14.4c-10.2,18.3,3.3,40.8,25.1,43.4,1,.1,2,.2,3,.2h1.7c15.1-.4,28.4-11.6,28.4-27.7,0-3.8-.8-7.7-2.4-11.3,0-.2-.9-1.6-.7-1.7,1.7-.7,3.2-1.4,4.9-2,2.1-.8,0-.9,7.1.8.7.1,1.2.5,2,.6.6.3.7-1,.6-1.4-.3-.9-.2-1.1-1.4-1.1-1.4-.3-2.8-.4-4.2-.6,0-.3.7-.4,2.3-1.1,1.3-.5.6-.6,3.8,0,1,.2,2,.3,3,.5,1.3.3,1.3,1,1.4-.9h0c-.4-1.1,1-.7-4.7-1.2ZM46.2,35.9c-5.2,8.6-18.2,11.1-27.1,5.5-4.2-2.7-7.2-7.2-7.3-12.4,0-15.9,23.7-21.9,33.7-8.5-2,1-4.1,1.8-6.2,2.8-.7.3-1.5.4-2.4.9-.3.2-.6-.5-.9-.8-3.9-4.2-11.8-1.8-13.5,3.8-.7,2.3-.2,4.7,1.7,6.4,3.7,3.2,10.2,1.5,12.6-3.2.6-1.2.9-2.5.7-3.9-.3-.7,1-.9,1.9-1.3,1.2-.5,2.4-.9,3.5-1.6,1.3-.3,2.4-.9,3.6-1.4,2.2,4.1,2.2,9.3-.5,13.6Z"/>
</svg>