<?xml version="1.0" encoding="UTF-8"?>
<svg id="Calque_1" xmlns="http://www.w3.org/2000/svg" version="1.1" viewBox="0 0 73.9 62.7">
  <!-- Generator: Adobe Illustrator 30.5.1, SVG Export Plug-In . SVG Version: 2.1.4 Build 3)  -->
  <defs>
    <style>
      .st0 {
        fill: #0c0e1e;
      }
    </style>
  </defs>
  <path class="st0" d="M66,43.1c2.9-2.9,6.8-5.5,7.8-9.3-1.1,0-1.4-.4-1.6-1-4.2-12-8.9-2.6-1-18,1.1-1.7,1.4-3.2-.9-2.4-2.6,2.6-3.8,6.8-5.8,9.7-5.5-5.4-12.3-7.9-19.8-9.1-1.6-1.5-.4-6.7-.5-9.8,0-1.3.3-3.3-1.2-3.2-3.1.3-.1,14-3.7,12.4-8.9-1.3-16.7,2.3-23.8,7.3-1.6.6-3.4-4.5-5-6-.6,1.6-.9-6.3-5.5-3.6,8.4,16,9.7,7.8-1.1,20.7-.9,2.2-6,5.1-3.2,7.4,4.1,6.1,10.1,9.8,17.1,11.5.2,2.6-2.4,6.2-3.3,9.4,2.1,4.4,5-4.1,5.6-6.7.5-1.7.4-2.1,2-1.8,6,1,12.2,1.5,18.1,1.5.9,2.3.2,13.3,4,10.1-.2-3.4-1.5-6.9-1.7-10.1,6.7,0,12.7-1.8,18.4-5,1.6,3.1,2.6,6.7,4.3,9.5,4.7.4-.8-6.6-2.2-10.4-.6-1.4,2.2-1.9,2.9-3.1ZM61.5,43.9c-7.7,7.7-18.2,5.9-28.4,5.3-11.1-1.4-20.9-2.3-29.6-13.1,7.6-10.2,17.2-18.6,29.8-21.4,13.8-1.2,29.8,1.1,35.4,17.6.5.8.9,1.4,1.2,1.9-2.8,3.3-4.7,7-8.4,9.8Z"/>
  <path class="st0" d="M36.4,23.7c-11.1.9-12.8,18.8.8,18.3,5.9.3,15.3-17.4-.8-18.3Z"/>
</svg>