<svg width="90" height="90" viewBox="0 0 90 90" fill="none" xmlns="http://www.w3.org/2000/svg">
<g clip-path="url(#clip0_340_5196)">
<g clip-path="url(#clip1_340_5196)">
<mask id="mask0_340_5196" style="mask-type:luminance" maskUnits="userSpaceOnUse" x="10" y="0" width="44" height="45">
<path d="M10.0542 0H53.3783V44.8895H10.0542V0Z" fill="white"/>
</mask>
<g mask="url(#mask0_340_5196)">
<path d="M31.3716 44.8894C2.11044 43.19 3.96435 3.23784 30.8618 1.67749C61.7296 2.01735 59.8602 44.4414 31.3716 44.8894ZM31.4952 42.881C59.2887 41.058 58.1454 4.70558 32.1595 3.65503C3.85627 4.67469 5.30847 42.433 31.4952 42.881Z" fill="#0C0E1E"/>
<path d="M35.8549 34.6808C35.897 34.3374 35.929 34.0038 35.9798 33.6731C36.2453 31.9452 37.1696 31.14 38.9128 31.1027C39.4846 31.0904 40.058 31.0848 40.6274 31.0364C41.5664 30.9567 42.3024 30.507 42.5338 29.5743C42.7415 28.7376 42.8116 27.8602 42.8735 26.9958C42.9265 26.254 43.0778 25.6312 43.7761 25.2032C44.5766 24.7127 44.627 23.8396 44.0748 23.0825C43.7168 22.5916 43.3881 22.0217 43.2536 21.4392C43.0706 20.6465 43.0186 19.8073 43.0274 18.9894C43.0561 16.3319 42.3285 13.9331 40.656 11.8595C38.7019 9.4368 36.4122 7.53352 33.144 7.21727C29.8515 6.89867 28.5253 7.52988 28.5253 7.52988C28.6143 7.01517 28.408 6.28764 27.4964 6.33729C27.5322 2.99787 26.0461 0.956411 22.9778 0.271762C19.6214 -0.477235 16.5872 0.339107 13.9502 2.50905C12.026 4.0923 11.1506 5.84448 11.4398 8.65634C11.5839 10.0564 12.1731 11.4018 12.7583 12.6788C14.8918 17.335 14.278 19.6052 14.278 19.6052C14.278 19.6052 16.1891 19.6863 17.2709 17.6832C17.7328 16.8278 17.9994 15.8714 18.2658 14.9365C18.7226 13.3346 18.8187 11.8095 19.9188 10.5704C20.2571 10.1894 20.949 10.0424 21.3567 10.2347C20.5501 11.3131 20.9453 12.525 21.8705 12.7596C21.8705 12.7596 21.7391 12.9737 21.7105 13.0146C20.2678 15.0791 20.0692 17.3866 20.4185 19.7873C20.8745 22.9217 22.2458 25.5409 24.8435 27.4394C25.1825 27.6871 25.7027 27.9225 25.7103 28.4315C25.7164 28.8437 25.7386 29.2268 25.6362 29.6021C25.4207 30.3917 25.0785 31.1468 24.7862 31.9152C24.4648 32.7599 23.8296 33.0081 22.9478 33.1284C21.8256 33.2814 19.9052 33.5967 18.896 33.8506C17.3023 34.2515 15.7706 34.7503 14.3013 35.3456C14.4295 35.5297 14.5612 35.7118 14.6964 35.8918C14.8749 35.8089 15.0541 35.7272 15.2351 35.6478C16.5894 35.0542 20.765 34.0443 21.9079 34.0464C21.8413 34.9694 22.251 35.7542 22.7381 36.4744C23.6986 37.8941 24.7177 39.2745 25.7243 40.6626C25.9545 40.98 26.3252 41.0233 26.6369 40.8599C27.108 40.6129 27.5612 40.3157 27.9773 39.984C28.5098 39.5596 28.9979 39.0797 29.5065 38.6226C29.5696 39.5693 29.7059 41.437 29.8818 43.8015C30.3943 43.8518 30.9169 43.89 31.4506 43.9147C31.3259 42.5922 31.1879 41.268 31.119 39.9454C31.1124 39.8191 31.1182 39.6921 31.1182 39.4686C31.4263 39.8 31.6571 40.0829 31.9229 40.3276C32.7842 41.1203 33.2866 41.1376 33.9406 40.4206C34.609 39.6881 35.2729 38.9515 35.9325 38.2111C36.2796 37.8215 37.9569 36.1201 37.9569 36.1201C37.9569 36.1201 39.1318 36.5634 40.1315 36.9801C41.3752 37.4986 43.4658 38.616 44.6812 39.3576C44.9522 39.1444 45.2173 38.9259 45.4747 38.7009C43.5204 37.4309 41.3997 36.4803 39.1806 35.7236C38.0896 35.3516 36.9808 35.0322 35.8547 34.6808H35.8549ZM30.2596 22.9971C30.2656 24.0216 29.3372 24.934 28.2674 24.955C27.0947 24.978 26.072 24.0872 26.0701 23.0413C26.0682 21.9403 27.0292 20.9603 28.1187 20.9521C29.2661 20.9435 30.2529 21.8862 30.2595 22.9972L30.2596 22.9971ZM25.7144 9.08531C23.3565 10.8093 22.4052 11.9821 22.4052 11.9821C21.9057 11.7867 22.3187 10.6108 22.4182 10.4141C23.1262 9.01368 24.482 8.08305 25.8844 7.5082C27.7174 6.75677 27.9085 7.7922 27.9085 7.7922C27.9085 7.7922 26.1822 8.7433 25.7144 9.08531H25.7144ZM27.7113 38.8696C26.6927 39.2773 26.678 39.2719 26.0671 38.369C25.0689 36.8942 24.085 35.4096 23.0431 33.8514C23.5089 33.7761 23.9034 33.7124 24.3337 33.6428C25.1255 36.0456 26.6974 37.579 29.2728 38.152C28.753 38.3929 28.2424 38.657 27.7113 38.8696L27.7113 38.8696ZM30.6532 37.2728C28.4292 37.0481 26.8309 35.8996 25.897 33.8701C25.7773 33.61 25.7547 33.2267 25.8508 32.9591C26.2873 31.7437 26.7902 30.5523 27.254 29.3464C27.6307 28.3671 27.9113 27.3673 27.7262 26.2563C27.9825 26.2859 28.4594 26.291 29.0004 26.0732C29.0004 26.0732 29.0967 26.1763 29.1718 26.2623C30.6318 27.9362 32.5943 28.512 34.6886 28.7866C35.8703 28.9416 37.0563 29.065 38.2419 29.188C38.8031 29.2462 39.3755 29.1755 39.6447 28.6237C39.7758 28.355 39.7677 27.9083 39.63 27.6417C39.3568 27.1125 38.7871 26.9531 38.236 27.0481C37.887 27.1083 37.6896 27.2053 37.3605 27.3805C37.2234 27.4534 36.8336 27.7607 36.8336 27.7607C36.8336 27.7607 33.7724 27.6218 32.3068 27.1053C31.4991 26.8206 30.7324 26.2449 30.1935 25.5822C31.0911 24.8815 31.8486 23.2964 31.3983 21.9082C31.21 21.3276 30.9583 20.7253 30.5571 20.26C30.2416 19.8941 29.846 19.6923 29.846 19.6923C30.7185 19.0902 32.4865 17.8617 33.3633 17.2683C37.2649 14.6275 39.351 12.569 39.5663 12.3221C41.2332 14.1202 42.1928 16.0616 41.896 18.502C41.7808 19.4496 41.7602 20.4113 41.7434 21.3673C41.7317 22.0283 42.0956 22.531 42.5485 22.9932C42.8232 23.2735 43.0786 23.6037 43.2378 23.9585C43.4184 24.361 43.2599 24.761 42.8296 24.9056C41.7805 25.2581 41.4997 26.0179 41.5448 27.0311C41.5677 27.5476 41.5075 28.0734 41.4337 28.5876C41.2286 30.0169 40.6559 30.5272 39.2023 30.6061C38.4972 30.6443 37.7877 30.6296 37.086 30.6984C35.6827 30.8361 34.9769 31.5253 34.7661 32.9161C34.7031 33.3312 34.6754 33.7517 34.6325 34.1698C34.4415 36.0331 32.7013 37.4796 30.6532 37.2728H30.6532ZM37.0767 35.8259C36.0062 37.0271 34.9756 38.1963 33.9285 39.3506C33.6113 39.7003 33.1931 39.6438 32.876 39.3872C32.309 38.9286 31.7932 38.407 31.1426 37.8073C32.6711 37.5722 33.9195 37.1174 34.9771 36.3428C35.3607 36.0618 35.7416 35.4509 35.7416 35.4509C35.7416 35.4509 36.6832 35.6214 37.0766 35.8258L37.0767 35.8259Z" fill="#0C0E1E"/>
</g>
<mask id="mask1_340_5196" style="mask-type:luminance" maskUnits="userSpaceOnUse" x="50" y="33" width="39" height="40">
<path d="M50.1001 33.5618H88.65V72.0119H50.1001V33.5618Z" fill="white"/>
</mask>
<g mask="url(#mask1_340_5196)">
<path d="M62.5101 63.8955C60.5054 64.4 58.5487 65.1616 56.7104 66.1235C59.8188 69.0211 64.1347 70.9614 69.5861 71.1458C74.385 70.9292 78.2159 69.5235 81.1138 67.3811C79.3342 66.3324 77.7464 65.6715 76.4398 65.1269C73.5336 63.9232 72.0804 63.3121 72.8208 60.4047C72.8208 60.3584 72.8301 60.3214 72.8301 60.2751C72.8579 59.9325 72.8857 59.6362 73.4132 59.5899H73.4225C75.4217 58.9048 77.0321 57.3492 77.8466 55.3215C78.6889 53.2104 78.5963 50.8678 77.5875 48.8678C79.5312 48.6456 80.9935 47.4512 81.5026 45.6734C82.0579 43.7475 81.3452 41.5994 79.7255 40.3402C77.8188 39.0809 75.0977 38.9328 73.2465 39.9884C71.849 40.7939 71.1085 42.1643 71.1733 43.868C68.2671 43.2106 64.3797 43.8865 62.1676 46.8957C60.5756 48.9327 60.6774 50.1271 60.77 51.2752C60.8533 52.2937 60.9366 53.2567 59.7704 54.7382L59.7611 54.7566C59.6779 55.1455 59.9277 55.3307 60.1776 55.5159C60.372 55.6548 60.5756 55.8029 60.6497 56.0621C60.6774 56.4048 60.6497 56.7566 60.6126 57.1177C60.5571 57.6639 60.5016 58.2288 60.6866 58.8677C60.9736 59.951 61.751 60.0158 62.584 60.0806C63.1208 60.1269 63.6669 60.1732 64.1575 60.4787C64.6573 61.0806 64.7961 61.8028 64.5462 62.4509C64.25 63.2194 63.4911 63.7564 62.51 63.8953L62.5101 63.8955ZM64.4538 59.8863C61.7141 59.8678 61.7141 58.7474 61.7326 56.5067V56.2567C61.566 55.7012 61.3439 55.3956 61.1865 55.1734C60.8718 54.7382 60.8071 54.6457 61.9732 53.3494L61.9825 53.3401V53.3216C62.038 52.7383 61.9918 52.1271 61.9363 51.479C61.8345 50.2013 61.7234 48.8865 62.4545 47.6643C65.7032 53.0068 69.4795 53.7753 71.7193 54.229C72.9688 54.479 73.7186 54.6364 73.6722 55.3957C73.6445 55.9142 73.2465 56.3771 72.7096 56.5253C71.3491 56.8957 71.4231 58.2568 71.4971 59.7012C71.5342 60.3772 71.5712 61.0808 71.4509 61.6734C70.6457 61.479 69.7015 61.4234 68.702 61.3585C67.6376 61.2937 66.5361 61.2196 65.6106 60.979C65.5828 60.9419 65.5643 60.8957 65.5458 60.8586C65.3329 60.4327 65.1108 59.9882 64.4536 59.8864L64.4538 59.8863Z" fill="#0C0E1E"/>
<path d="M70.1353 33.5618C94.0687 34.9502 95.7183 70.4996 69.6817 72.0119C44.3325 71.6131 42.6691 33.8642 70.1353 33.5618ZM68.9806 35.3214C45.8583 36.2561 44.841 68.6026 69.5717 70.2248C92.8727 69.8261 94.1648 36.2287 68.9806 35.3214Z" fill="#0C0E1E"/>
</g>
<mask id="mask2_340_5196" style="mask-type:luminance" maskUnits="userSpaceOnUse" x="1" y="46" width="45" height="44">
<path d="M1.57471 46.7441H45.6826V89.9568H1.57471V46.7441Z" fill="white"/>
</mask>
<g mask="url(#mask2_340_5196)">
<path d="M22.8924 89.9568C-6.36919 88.2573 -4.51522 48.3045 22.3826 46.7441C53.251 47.0841 51.3816 89.5087 22.8924 89.9568ZM23.016 87.9483C50.81 86.1253 49.6666 49.7723 23.6803 48.7217C-4.62344 49.7414 -3.17113 87.5003 23.016 87.9483Z" fill="#0C0E1E"/>
<path d="M30.7623 80.5535C30.2737 80.516 29.0805 80.5439 29.0805 80.5439C29.0805 80.5439 29.1648 79.3208 29.2241 78.7687C29.268 78.3594 29.5021 78.0908 29.9166 77.9845C30.3009 77.8859 30.6771 77.755 31.062 77.6586C32.2276 77.3668 32.7622 76.5796 32.8252 75.4256C32.8583 74.8191 32.8526 74.2103 32.8929 73.6044C32.9531 72.695 33.2554 71.9655 34.162 71.5159C35.2094 70.9965 35.4205 69.8924 34.7656 68.9137C34.201 68.07 33.76 67.1639 33.583 66.1637C33.4015 65.1382 33.455 63.2936 33.455 63.2936C33.455 63.2936 37.2953 63.7441 38.5971 63.8715C39.8751 63.9966 41.1562 64.1395 42.4376 64.1578C44.6782 64.219 45.5264 63.1811 45.661 62.4997C45.7456 62.071 45.5807 61.5788 45.2272 61.2884C44.5476 60.7304 43.8614 60.4871 43.0328 60.2218C40.3446 59.3613 35.5621 59.1072 32.7777 59.1636C32.2928 57.8301 31.6653 56.8892 31.4802 56.6513C28.8654 53.289 25.4269 51.738 21.2144 52.401C17.4029 53.0009 14.6146 55.0075 13.3444 58.7049C13.0434 59.5813 12.877 61.4096 12.877 61.4096C12.877 61.4096 10.6451 62.6344 11.5135 66.6083C11.6274 67.1293 11.4169 67.5131 10.9518 67.8482C9.99444 68.5379 8.4841 70.5786 9.01466 73.5224C9.31787 75.2049 10.1544 76.9476 11.4651 77.9875C14.2887 80.148 18.5396 79.1585 18.5396 79.1585L18.3957 80.35C18.3957 80.35 12.9858 80.2958 7.99902 83.001C11.4124 86.3793 16.3897 88.6851 23.0008 88.9834C29.537 88.7623 35.0595 86.239 39.1503 82.5437C38.1819 82.1887 37.1932 81.8753 36.1812 81.6097C34.3944 81.1407 32.6026 80.6942 30.7623 80.5533V80.5535ZM44.2789 62.1586C44.2075 63.0142 40.785 62.7861 38.1468 62.4581C37.0872 62.3263 34.4538 61.8928 33.3981 61.7307C33.3981 61.7307 33.2296 60.5717 33.09 60.1763C39.0513 60.2208 44.3502 61.3029 44.2789 62.1586ZM14.7308 60.2334C15.0445 57.0961 17.6778 53.1492 22.4919 53.4457C26.7629 53.7087 29.2122 55.8502 31.153 59.6804C31.37 60.1085 31.701 60.8538 31.7438 61.6024C30.2571 61.4206 17.7067 60.6547 14.7308 60.2334ZM28.3186 78.6439C28.2428 79.3857 28.1363 80.1288 27.9761 80.8566C27.6848 82.18 26.8463 83.0307 25.5633 83.4396C24.3393 83.8296 23.1164 83.8114 21.9279 83.3151C20.59 82.7563 19.8208 81.7566 19.8811 80.2764C19.9257 79.1823 20.2907 76.4942 20.319 76.2398C20.4921 74.6831 19.6353 73.8694 18.6858 73.5585C17.9878 73.3299 17.5359 72.8706 17.221 72.2402C17.1589 72.1158 17.1018 71.9854 17.067 71.8515C16.7537 70.6411 17.1357 70.0052 18.3612 69.7836C19.1646 69.6383 19.9821 69.573 20.7902 69.4515C23.0929 69.1056 24.8341 67.9118 25.9533 65.8804C26.4687 64.945 26.8505 63.9358 27.3415 62.8526H27.3416C28.4875 62.8443 31.7899 63.1574 31.7899 63.1574C31.7899 63.1574 31.7905 64.0334 31.8648 64.8459C31.9539 65.8191 32.0266 66.4928 32.2053 67.4522C32.2827 67.8673 32.5461 68.2562 32.7641 68.6346C33.0433 69.1192 33.3987 69.5619 33.6542 70.0573C33.989 70.7065 33.8957 70.9411 33.2862 71.3277C32.9903 71.5153 32.6778 71.6813 32.4021 71.8949C31.7924 72.3674 31.362 72.9405 31.3079 73.7623C31.2528 74.6006 31.1401 75.436 31.0286 76.2696C30.9222 77.065 30.8717 77.0939 30.1174 77.2901C29.7568 77.3839 29.3987 77.4963 29.0522 77.6325C28.602 77.8096 28.3704 78.1392 28.3187 78.6441L28.3186 78.6439Z" fill="#0C0E1E"/>
</g>
</g>
</g>
<defs>
<clipPath id="clip0_340_5196">
<rect width="90" height="90" fill="white"/>
</clipPath>
<clipPath id="clip1_340_5196">
<rect width="90" height="90" fill="white" transform="translate(0 -0.0900879)"/>
</clipPath>
</defs>
</svg>
