<svg width="90" height="90" viewBox="0 0 90 90" fill="none" xmlns="http://www.w3.org/2000/svg">
<g clip-path="url(#clip0_53_1156)">
<path d="M19.7195 61.4061C19.8946 56.3899 21.7625 52.1299 23.8511 50.1219C26.4913 47.5836 29.8952 45.8113 34.5466 45.7177C41.5481 45.5768 54.6896 49.5475 51.4722 64.5822C49.9546 71.6738 46.0775 75.3178 42.1334 76.4267C37.1652 77.8236 32.4344 78.1114 27.6818 76.4879C22.1421 74.5954 19.5445 66.4223 19.7195 61.4061ZM21.4707 63.4731C22.1169 71.5762 29.8466 79.6812 41.9897 75.1313C45.6354 73.7653 48.7479 70.8786 50.0714 63.1201C50.9858 57.7594 49.7912 54.8467 48.0284 52.7348C45.082 49.2048 40.9153 47.1224 36.0068 47.0107C32.9748 46.9418 29.9237 47.6106 27.3279 49.1021C25.886 49.9305 20.6827 53.5919 21.4707 63.4731Z" fill="#0C0E1E"/>
<path d="M6.51372 68.0203C7.54998 63.9863 14.4065 57.875 21.6732 61.4567C28.7819 64.9605 29.1896 72.7085 26.562 77.5389C24.6403 81.0715 21.1178 82.8919 17.093 83.1494C12.3414 83.4535 8.07164 80.3136 6.56671 75.56C5.77277 73.0521 5.86728 70.5368 6.51377 68.0204L6.51372 68.0203Z" fill="#0C0E1E"/>
<path d="M14.2705 46.358C14.4878 46.2221 14.6891 46.0602 14.9042 45.9205C18.6241 43.5052 22.3438 41.0896 26.0669 38.6797C26.668 38.2906 26.8168 38.3075 27.2662 38.8305C27.5042 39.1075 27.6912 39.4297 27.8976 39.734C28.9016 41.2141 34.2187 48.933 35.7667 51.1798C35.9971 51.5142 35.9031 51.9749 35.5609 52.1903C33.2128 53.6688 24.9684 58.8517 22.4872 60.2992C22.1575 60.4916 21.7365 60.3852 21.5361 60.0581C20.0468 57.6273 15.6545 50.4183 14.805 49.0284C14.5175 48.558 14.2623 48.0674 13.9913 47.5867C13.7115 47.0903 13.7631 46.6753 14.2705 46.358V46.358Z" fill="#0C0E1E"/>
<path d="M38.2577 15.2229C36.313 18.1648 34.4533 20.9781 32.5421 23.8692C32.3986 24.0863 32.4366 24.3778 32.631 24.5499C32.8061 24.7048 32.9698 24.8464 33.1508 24.96C35.6948 26.5566 38.2427 28.1471 40.7994 29.7229C41.4861 30.1462 41.6205 30.1098 42.1168 29.3586C43.3949 27.4245 44.6481 25.4737 45.9155 23.5324C46.3177 22.9164 46.7593 22.3252 47.1359 21.694C47.5177 21.0539 47.466 20.6393 46.9032 20.2682C44.3131 18.5602 41.7066 16.8776 38.9385 15.0795C38.711 14.9318 38.4079 14.9957 38.2577 15.2229Z" fill="#0C0E1E"/>
<path d="M57.2076 28.1623C54.5201 28.3184 51.8745 29.681 50.3257 32.7059C49.2943 34.7202 48.9989 36.9353 49.6085 39.1597C50.1973 41.3081 50.9822 43.3989 52.8112 44.8287C54.2232 45.9325 55.7682 46.5882 57.6639 46.3953C59.3655 46.2221 60.9843 45.9234 62.4654 45.0401C65.9956 42.9345 67.6081 38.7001 66.4501 34.5874C65.3786 30.7817 61.8003 28.1132 57.2076 28.1623H57.2076ZM57.8718 45.3556C56.109 45.3423 54.5699 44.7142 53.3042 43.503C51.2647 41.5512 50.2149 39.1053 50.265 36.2813C50.3066 33.9337 51.3119 32.0058 53.3334 30.7243C55.1717 29.5589 57.1587 29.1276 59.3131 29.5485C63.2559 30.3188 66.081 34.044 65.6964 37.986C65.29 42.1509 61.8621 45.3797 57.8718 45.3556Z" fill="#0C0E1E"/>
<path d="M36.3406 56.5479C36.073 55.3296 36.4999 55.0034 37.5218 54.8546C39.9296 54.5039 55.1164 52.0737 60.3381 51.2671C60.6346 51.2213 60.9139 51.4179 60.9745 51.7147C61.8828 56.1684 65.2498 73.4373 65.5495 75.03C65.6891 75.7716 65.5818 75.8777 64.8068 76.0299C62.6806 76.4473 44.2273 79.9899 42.5011 80.301C41.6849 80.4481 41.4483 80.2855 41.2352 79.4842C41.1884 79.3083 41.1989 79.1176 41.1618 78.9381C40.969 78.0054 37.5986 62.2756 36.3406 56.5479Z" fill="#0C0E1E"/>
<path d="M51.0319 72.668C50.9065 72.5231 50.7436 72.2679 50.6137 72.0521C50.4866 71.8409 50.5404 71.5669 50.7368 71.4198C53.1586 69.6071 67.6149 58.6165 69.2465 57.4799C70.5796 56.5513 70.7105 56.5483 71.7247 57.8766C75.5425 62.8771 79.3398 67.8935 83.1382 72.9091C83.4036 73.2595 83.6289 73.6434 83.8483 74.0261C84.1031 74.4706 84.0493 74.8203 83.5925 75.1556C82.8249 75.7191 82.1236 76.374 81.3692 76.9572C76.781 80.5032 72.1847 84.0385 67.5939 87.5811C67.0739 87.9823 66.5623 88.3945 66.0241 88.826C65.7144 89.0744 65.2696 89.0551 64.9839 88.7786C64.819 88.6189 64.6639 88.4619 64.5244 88.292C61.8398 85.0225 51.3134 72.9933 51.0319 72.6679V72.668ZM65.7418 87.7048C71.4319 83.3516 77.1193 79.0007 82.8613 74.6079C78.7415 69.1181 74.6063 63.608 70.4058 58.0107C68.0388 59.7963 52.3363 71.7579 52.3363 71.7579C52.3363 71.7579 62.9021 84.2689 65.7418 87.7048Z" fill="#0C0E1E"/>
</g>
<defs>
<clipPath id="clip0_53_1156">
<rect width="78" height="74" fill="white" transform="matrix(-1 0 0 1 84 15)"/>
</clipPath>
</defs>
</svg>
