<?xml version="1.0" encoding="UTF-8"?>
<svg id="Calque_1" xmlns="http://www.w3.org/2000/svg" version="1.1" viewBox="0 0 74 75">
  <!-- Generator: Adobe Illustrator 30.5.1, SVG Export Plug-In . SVG Version: 2.1.4 Build 3)  -->
  <defs>
    <style>
      .st0 {
        fill: #0c0e1e;
      }
    </style>
  </defs>
  <path class="st0" d="M71.3,24.9c-5-12.2-13.8-20-26.2-23.7-3.2-.7-6.4-1.2-9.6-1.2h-.2c-3.2,0-6.3.4-9.5,1.3-6.3,1.8-11.8,5-16.2,9.9C4.3,17,1.2,23.8.3,31.6c-1.1,9.5,1,18.2,6.4,26.1,6.5,9.7,15.7,15.6,27.2,16.9,13.2,1.6,24.2-3.1,32.6-13.6,4.5-5.7,6.9-12.3,7.4-19.6,0-.6,0-1.1,0-1.7v-2.3c-.1-4.3-1-8.6-2.7-12.7ZM28.6,34.1c.3-3.5.6-7.1,1.1-10.6.3-2,.9-4,1.6-5.9.6-1.6,1.8-2.5,3.4-2.8,1.2-.2,2.5-.4,3.7-.5,1.6-.2,3.2.3,4.6,1.2,1.5.9,2.4,2.2,2.5,4.1.1,2.8.7,5.6.5,8.4-.3,4.2-1.1,8.4-1.7,12.7,0,0-.1,0-.2,0-.3,1.4-.6,2.9-1,4.2-.7,2.4-1.7,3.1-4.1,3.2-2.1,0-4-.4-5.9-1.2-2.4-1-3.7-3-4.2-5.6-.4-2.4-.4-4.8-.2-7.2ZM49.6,46.2c-.7,2.2-1.3,4.4-3.1,6.1-1.4,1.4-2.9,2.3-4.9,2.5-.6,0-1.3.2-2,.3-1,0-1.5.7-1.6,1.6-.1.9-.1,1.9-.2,2.8,0,.9-.1,1.8-.3,2.6-.4,1.6-2.7,2.5-4,1.5-.3-.2-.5-.8-.4-1.2,0-1.2.3-2.5.4-3.7.1-1,.2-2.1.4-3.3-1.2-.3-2.4-.5-3.4-.9-1-.3-2-.7-2.8-1.3-1.1-.8-2.1-1.9-2.9-3-1.5-1.9-1.5-4.3-1.4-6.6,0-.3.1-.6.3-.9.4-.8,1.2-.8,1.7,0,.2.4.3.9.5,1.3.3.9.4,1.8.8,2.7.3.7.8,1.3,1.3,1.9.6.7,1.3,1.2,2,1.7.2.2.5.4.8.5,3.9,1.3,7.7,2.3,11.8.7,1.6-.7,2.8-1.6,3.2-3.4.3-.9.5-1.8.8-2.7.2-.6.3-1.2.5-1.8.3-.7.8-1.2,1.5-1.1.8,0,1.2.7,1.2,1.4,0,.8.2,1.6,0,2.3Z"/>
</svg>