<svg width="90" height="90" viewBox="0 0 90 90" fill="none" xmlns="http://www.w3.org/2000/svg">
<g clip-path="url(#clip0_7_694)">
<g clip-path="url(#clip1_7_694)">
<path d="M59.8796 65.7373C59.9442 65.9058 60.5591 67.5006 60.8924 68.3848C61.5638 70.1659 62.2156 71.9546 62.9031 73.7295C63.7713 75.971 63.7766 78.2181 63.0284 80.4873C62.6862 81.5251 61.9673 82.1172 60.905 82.2958C60.573 82.3516 60.2306 82.3464 59.8926 82.3644C52.452 82.7637 45.0056 82.7436 37.5593 82.657C36.3042 82.6424 35.0479 82.4879 33.7984 82.3443C32.9918 82.2516 32.3578 81.8198 31.9723 81.0874C31.673 80.5187 31.3783 79.9455 31.1239 79.356C30.82 78.6519 30.5565 77.9302 30.2837 77.213C29.0337 73.9272 25.5 69.4735 23.3539 67.5429C21.2404 65.6416 19.4871 64.1895 16.8607 63.4481C16.0071 63.2072 14.5653 63.3665 13.7535 63.7764C12.837 64.2391 12.376 65.1378 12.4831 66.1611C12.6262 67.5293 13.4336 70.017 13.8274 71.3355C14.8146 74.6407 14.3539 76.0793 14.3539 76.0793C15.8461 76.5689 17.3109 77.2812 18.9281 77.5698C19.3745 77.6494 19.6328 77.7182 20.0446 77.9092C20.3919 78.0703 20.7962 78.4746 20.7639 78.8889C20.7306 79.3156 20.0782 79.6458 19.7043 79.7307C18.8367 79.9278 18.3206 80.0318 17.4399 80.1535C15.7701 80.3843 15.7428 80.4298 16.2923 82.0507C16.9659 84.0377 17.412 86.0749 17.4976 88.1795C17.5113 88.5163 17.5421 88.8691 17.4609 89.1881C17.3919 89.4594 17.228 89.7764 17.0066 89.9223C16.7057 90.1205 16.4017 89.8763 16.2218 89.6235C15.5836 88.7267 14.9545 87.8222 14.3576 86.8977C14.0617 86.4394 13.8433 85.9311 13.548 85.3653C13.0375 85.5784 12.5806 85.7357 12.1544 85.953C10.5973 86.7469 9.41681 86.5646 8.28567 85.2419C7.05911 83.8076 6.30805 82.1465 6.13425 80.2247C4.95516 79.7316 4.27989 78.7402 3.67714 77.696C2.31312 75.333 1.45131 72.772 0.833095 70.1317C-0.156322 65.9059 -0.205765 61.6465 0.851808 57.4398C2.21274 52.0265 6.55273 48.196 12.4584 48.176C15.257 48.1665 17.9434 48.789 20.632 49.4662C23.432 50.1715 26.2432 50.8374 29.0645 51.4527C30.5461 51.7759 32.0723 51.7577 33.5637 51.5011C34.3028 51.3739 35.0325 51.0665 35.7081 50.7252C36.6418 50.2535 36.7298 49.9405 36.4788 48.7448C35.779 48.9374 35.088 49.1481 34.3867 49.3152C33.5509 49.5143 32.7128 49.7586 31.8633 49.8264C31.2414 49.876 30.5751 49.7503 29.9727 49.562C29.2225 49.3273 28.9436 48.7481 29.0399 47.9718C29.0512 47.8808 29.0692 47.789 29.0973 47.7018C29.9456 45.0725 29.6821 42.42 29.2684 39.7652C29.169 39.1277 29.0608 38.4916 28.9439 37.8571C28.513 35.5205 29.1542 33.4777 30.651 31.6746C32.7834 29.1057 35.4971 27.6692 38.8504 27.4413C41.0662 27.2907 43.2261 27.494 45.2572 28.4232C46.0593 28.7902 46.8278 29.2741 47.5252 29.8157C48.7522 30.7687 49.5616 32.0196 49.8361 33.5786C49.9001 33.9416 49.9924 34.3 50.0471 34.6642C50.1918 35.6289 50.5665 36.4904 51.1641 37.2595C51.3337 37.4778 51.4931 37.7046 51.6465 37.9346C52.3629 39.0088 52.3611 39.2427 51.4538 40.1458C51.0078 40.5897 50.7664 41.0635 50.8216 41.6966C50.8724 42.2777 50.8859 42.862 50.9192 43.4447C51.0019 44.89 50.5365 45.5308 49.129 45.9056C47.8319 46.2509 47.1542 47.1442 47.2824 48.3852C47.3678 49.2115 47.6261 49.5566 48.387 49.5893C49.0303 49.617 49.6747 49.6931 50.3165 49.6748C53.344 49.5883 56.2602 50.0675 59.0407 51.2941C60.2912 51.8458 61.37 52.6391 62.4189 53.5092C64.8155 55.4975 66.4322 58.0484 67.8771 60.7459C68.177 61.3058 68.5584 61.8573 69.0184 62.2893C70.1933 63.3926 71.6229 63.0902 72.198 61.5846C72.6235 60.4707 72.8794 59.2908 73.19 58.1347C73.6414 56.4545 74.4057 54.9197 75.3544 53.4738C75.6037 53.0937 75.9435 52.7728 76.1909 52.484C76.3857 50.0055 75.1734 48.1476 73.7162 46.3885C73.4825 46.1063 73.2511 45.8087 73.0903 45.4828C72.7293 44.7511 73.0698 44.2504 73.8864 44.3337C74.2753 44.3733 74.6592 44.5276 75.0287 44.6723C75.6575 44.9184 76.2631 45.2249 76.8967 45.4564C77.6349 45.7259 77.8524 45.5985 78.1467 44.8466C78.6733 43.5017 79.1484 42.1332 79.7478 40.8213C80.1654 39.9072 80.6897 39.0235 81.2843 38.2126C81.958 37.2937 82.7344 37.4375 83.109 38.5099C83.244 38.8963 83.2593 39.3559 83.2116 39.7686C83.0814 40.8938 82.8884 42.0118 82.7191 43.1406C83.3944 43.4196 84.0048 43.6816 84.6226 43.925C85.9134 44.4336 86.377 45.4928 86.4673 46.7593C86.5764 48.2902 86.2428 49.7621 85.6395 51.1578C85.2761 51.9985 84.3198 53.6665 84.3198 53.6665C84.3198 53.6665 85.029 55.3814 85.2126 56.1723C85.5987 57.8355 85.5725 59.5547 85.3709 61.2955C84.8589 65.7149 83.4044 69.7799 80.7442 73.3809C80.3426 73.9246 79.9044 74.4416 79.4823 74.9701C77.6476 77.2674 75.169 78.0069 72.3495 77.897C69.6252 77.7908 67.1926 76.8622 64.9797 75.2927C64.4043 74.8846 64.0205 74.4093 63.7868 73.7292C62.9174 71.1991 61.8903 68.7342 60.5009 66.4354C60.3437 66.1753 60.1613 65.8211 60.0324 65.6532C59.9034 65.4853 59.8151 65.5689 59.8796 65.7373ZM47.61 30.7906C47.7857 31.4744 47.5236 32.2696 47.4029 32.6092C47.0937 33.4786 46.6176 34.2704 46.0729 35.0324C45.0243 36.4994 43.69 37.6753 42.2704 38.7626C40.3002 40.2715 38.1188 40.8257 35.6758 40.2137C35.2014 40.0948 34.7102 39.9912 34.2243 39.9797C33.2256 39.9561 32.4849 40.8651 32.5317 41.9842C32.5733 42.9809 33.2813 43.6468 34.2736 43.6062C34.5177 43.5962 34.7606 43.5431 35.0027 43.5015C35.488 43.418 35.8455 43.5511 36.0191 44.0509C36.541 45.5531 37.2444 46.998 37.3979 48.6146C37.4733 49.4082 37.5602 50.205 37.7156 50.9858C37.9489 52.1574 38.3611 53.253 39.5776 53.7665C41.8216 54.7136 43.9625 54.3677 46.0115 53.1709C46.5286 52.8688 46.8787 52.4129 47.1067 51.8467C47.2839 51.4067 47.2945 50.9945 46.9959 50.6383C46.26 49.7603 46.3482 48.7511 46.5235 47.7448C46.7086 46.6824 47.3344 45.9934 48.4128 45.7228C49.7627 45.384 50.0893 44.8984 49.9963 43.4827C49.9582 42.9017 49.9395 42.3192 49.8965 41.7387C49.8445 41.0391 50.1129 40.5094 50.6385 40.0445C51.411 39.3614 51.4134 39.1959 50.8992 38.3272C50.8055 38.1689 50.7154 38.0026 50.5923 37.8686C49.5547 36.7384 49.0708 35.3721 48.8482 33.8844C48.7848 33.461 48.6888 33.0371 48.5543 32.6311C48.4032 32.1749 47.9398 31.0798 47.61 30.7906ZM36.4537 48.3225C36.0709 46.7562 35.5624 45.3624 34.8993 43.9975C34.3721 43.9991 33.878 44.0459 33.3949 43.9929C32.2069 43.8626 31.4964 42.9864 31.5368 41.7668C31.5782 40.5172 32.3033 39.6576 33.477 39.6194C34.237 39.5947 35.022 39.6522 35.7611 39.8225C37.3686 40.1928 38.8247 39.8825 40.1597 38.9885C41.0779 38.3735 41.971 37.7112 42.8169 37.0007C44.5264 35.5647 45.6964 33.734 46.5075 31.6719C46.9396 30.5733 46.7109 29.8759 45.7558 29.1951C44.8847 28.574 43.8977 28.2596 42.8492 28.1016C41.4351 27.8884 40.0274 27.9783 38.6192 28.1632C35.2568 28.6047 32.7397 30.3498 30.9014 33.1463C30.1491 34.2906 29.7874 35.5511 29.9174 36.9095C30.0195 37.9762 30.2202 39.0341 30.3954 40.093C30.6973 41.9189 30.8536 43.7545 30.6554 45.599C30.5772 46.327 30.3568 47.0396 30.2061 47.7603C30.0155 48.6714 30.352 49.183 31.2762 49.3234C31.668 49.3829 32.0924 49.4413 32.4683 49.3545C33.7789 49.0516 35.0749 48.6851 36.4537 48.3225ZM19.7832 79.0082C20.2328 78.6876 19.1131 78.4343 18.8324 78.3472C17.1316 77.8197 15.4379 77.2648 13.7205 76.7968C11.8868 76.2971 10.183 76.6485 8.66582 77.8137C7.9511 78.3626 7.49733 79.0685 7.41101 79.9835C7.26704 81.5103 7.7819 82.8445 8.72992 83.9871C9.72315 85.1842 10.6269 85.6973 12.2778 84.8453C12.3323 84.8172 12.3901 84.7951 12.447 84.7717C13.2527 84.4396 13.9774 84.5891 14.5382 85.2352C14.8527 85.5974 15.0814 86.0443 15.2983 86.4781C15.627 87.1357 15.8997 87.8211 16.2241 88.4809C16.3013 88.6377 16.5937 89.086 16.7756 89.0061C16.9575 88.9261 16.7243 88.0635 16.6437 87.7126C16.3411 86.3969 16.0225 85.085 15.6882 83.7771C15.4603 82.8848 15.1508 82.0113 14.9612 81.1118C14.7132 79.9351 15.2823 79.2678 16.4746 79.2484C16.7498 79.244 17.026 79.3108 17.3012 79.3068C18.0258 79.2964 19.3337 79.3287 19.7832 79.0082ZM73.7739 45.1032C73.6071 45.2125 73.7958 45.407 73.8601 45.4789C74.01 45.6466 74.2469 45.9387 74.4577 46.1514C75.6666 47.3715 76.5908 48.7512 76.9775 50.4561C77.2031 51.4506 77.8362 52.1314 78.7521 52.558C79.9286 53.1058 81.1653 53.2671 82.4378 53.0503C83.2909 52.905 84.0052 52.4834 84.421 51.6951C85.0416 50.9052 85.7735 48.2097 85.7066 46.1423C85.4617 47.0572 84.2563 49.2535 83.0555 49.5182C81.8547 49.7829 81.828 48.9406 81.8876 48.2468C81.6914 48.3825 81.5723 48.5311 81.4421 48.6067C80.7296 49.0205 80.0271 48.8346 79.8543 48.0418C79.8158 47.8655 79.8178 47.5349 79.8593 47.3662C80.085 46.4483 80.2475 45.5011 80.5975 44.6303C81.1818 43.1764 81.7932 41.7385 82.0988 40.1941C82.184 39.7637 82.3687 38.7478 82.1906 38.4372C82.0124 38.1266 81.4676 39.6542 81.2686 40.0855C80.4591 41.8398 79.6503 43.5951 78.8837 45.3682C78.2425 46.8512 77.6019 47.0983 76.1688 46.3134C75.8731 46.1515 75.5923 45.9626 75.3034 45.788C75.0146 45.6134 74.735 45.4185 74.4302 45.2785C74.2956 45.2168 73.9407 44.9939 73.7739 45.1032ZM80.6639 48.2412C80.9212 48.2562 81.1343 48.1054 81.2458 48.0052C82.2786 47.0779 82.5538 46.1476 82.8576 44.9463C82.9759 44.4786 82.816 44.1131 82.6234 44.0619C82.4189 44.0075 82.019 44.2229 81.8837 44.393C81.1529 45.3125 80.6663 46.3309 80.5433 47.4315C80.4758 48.0362 80.5798 48.2364 80.6639 48.2412ZM82.6919 48.9746C82.9059 49.0852 83.079 48.9094 83.117 48.8722C83.8526 48.1509 84.2458 47.5503 84.966 46.1851C85.0094 46.1029 85.1154 45.1408 84.6624 44.983C84.2093 44.8253 83.9473 45.0004 83.6865 45.4662C83.1648 46.3982 82.7269 47.4099 82.6009 48.3436C82.5783 48.5108 82.4779 48.864 82.6919 48.9746Z" fill="#0C0E1E"/>
</g>
<g clip-path="url(#clip2_7_694)">
<path d="M83.6017 17.0186C84.7071 17.0128 85.763 17.22 86.7519 17.7013C89.1618 18.8741 90.5665 21.1422 89.7305 24.2237C89.2955 25.8266 88.3721 27.128 86.9822 28.0518C86.0577 28.6663 85.0773 29.1973 84.1208 29.7639C83.4263 30.1754 82.7583 30.5878 82.4316 31.4042C82.2473 31.8648 81.8943 31.8453 81.5926 31.427C81.256 30.9602 81.2512 30.4532 81.4397 29.9309C81.7 29.2097 82.178 28.6333 82.7839 28.1987C83.6098 27.6063 84.4954 27.097 85.3442 26.5354C86.0375 26.0765 86.7321 25.6162 87.3941 25.1145C88.141 24.5486 88.3011 23.7516 88.1377 22.8737C87.8902 21.5439 87.2267 20.4687 86.1309 19.6608C85.4027 19.1239 84.5909 18.8443 83.6937 19.0009C82.8772 19.1435 82.0255 19.2635 81.2808 19.5969C80.1174 20.1178 79.6131 20.9257 79.9853 22.2035C80.1142 22.646 80.2752 23.0791 80.4149 23.5185C80.5359 23.8989 80.6881 24.2754 80.7545 24.6659C80.8875 25.4468 80.7059 26.1497 80.0285 26.6345C79.3391 27.128 78.5737 27.1453 77.8237 26.8127C77.1252 26.503 76.6041 25.9925 76.3203 25.2572C75.6979 23.6447 75.8562 22.1041 76.7973 20.6702C78.3974 18.2322 80.7276 17.1091 83.6017 17.0186ZM84.1749 34.3491C84.1682 33.607 83.5604 33.0246 82.7914 33.0235C82.021 33.0224 81.3783 33.599 81.3548 34.3123C81.3291 35.091 81.9463 35.7263 82.7441 35.7425C83.5252 35.7583 84.1819 35.1188 84.1749 34.3491Z" fill="#0C0E1E"/>
</g>
</g>
<defs>
<clipPath id="clip0_7_694">
<rect width="90" height="90" fill="white"/>
</clipPath>
<clipPath id="clip1_7_694">
<rect width="86.4474" height="62.5307" fill="white" transform="matrix(0.999996 -0.00289623 0.00209026 0.999998 -0.000488281 27.5125)"/>
</clipPath>
<clipPath id="clip2_7_694">
<rect width="14.0267" height="18.7217" fill="white" transform="matrix(0.999996 -0.00289639 0.00209017 0.999998 75.9346 17.0408)"/>
</clipPath>
</defs>
</svg>
