<svg width="90" height="90" viewBox="0 0 90 90" fill="none" xmlns="http://www.w3.org/2000/svg">
<g clip-path="url(#clip0_11_1600)">
<path d="M53.1116 9.16387C65.5911 12.865 74.3729 20.7328 79.3416 32.8836C81.514 38.2374 82.3229 43.824 81.93 49.5736C81.4447 56.8594 79.0412 63.4469 74.5116 69.1266C66.1457 79.6248 55.1222 84.257 41.9031 82.6974C30.348 81.3473 21.2195 75.4581 14.6793 65.7514C9.31774 57.8603 7.1916 49.0847 8.27778 39.6108C9.17908 31.8361 12.299 24.9925 17.6143 19.2197C22.0746 14.3547 27.5286 11.1425 33.8608 9.32681C40.2854 7.48789 46.6407 7.67411 53.1116 9.16387ZM52.0947 48.6192C52.164 48.6192 52.2334 48.6425 52.2796 48.6425C52.8574 44.406 53.6431 40.1927 53.9666 35.9562C54.1746 33.1862 53.62 30.3696 53.4813 27.5531C53.3889 25.7141 52.4876 24.3873 50.9854 23.4795C49.5988 22.6415 48.0504 22.1527 46.4096 22.3156C45.1848 22.4553 43.9368 22.6182 42.712 22.8277C41.048 23.1071 39.8232 24.0614 39.2686 25.6443C38.6215 27.5531 37.9744 29.5084 37.6971 31.5102C37.1886 35.0019 36.9113 38.54 36.634 42.0782C36.4491 44.4758 36.426 46.8501 36.842 49.2477C37.3042 51.8547 38.5984 53.8333 41.0249 54.8343C42.8969 55.6024 44.8612 56.0912 46.918 56.0447C49.3677 55.9981 50.3615 55.2533 51.0548 52.8557C51.4707 51.4823 51.7712 50.0391 52.0947 48.6192ZM41.8107 63.2141C41.672 64.4711 41.5565 65.5186 41.4409 66.5428C41.3023 67.7765 41.1174 69.0335 41.048 70.2672C41.0249 70.6629 41.1867 71.2682 41.4871 71.4777C42.7582 72.4786 45.0923 71.594 45.4621 69.9879C45.6701 69.1266 45.7163 68.2421 45.8087 67.3575C45.9012 66.4264 45.9012 65.4953 46.0398 64.5642C46.1785 63.6564 46.6869 63.0745 47.6807 63.0047C48.3509 62.9581 49.0211 62.8417 49.6681 62.7486C51.6094 62.5158 53.1347 61.5847 54.5444 60.2346C56.2777 58.5587 56.9479 56.3706 57.6181 54.1825C57.8492 53.4609 57.7567 52.6229 57.6643 51.8547C57.5949 51.1564 57.2252 50.5047 56.4394 50.4115C55.6768 50.3184 55.1684 50.8538 54.891 51.5056C54.6599 52.0875 54.5213 52.6927 54.3595 53.298C54.1053 54.2058 53.8511 55.0903 53.5969 55.9981C53.1578 57.7207 51.9792 58.6983 50.4077 59.3501C46.3634 60.9795 42.4809 60.0251 38.6215 58.6983C38.3441 58.6052 38.0899 58.3724 37.8588 58.1629C37.1886 57.6043 36.4722 57.0689 35.8714 56.4171C35.3398 55.8585 34.8545 55.23 34.531 54.5549C34.1381 53.7169 33.9763 52.7626 33.699 51.878C33.5603 51.4358 33.4679 50.9469 33.2368 50.5745C32.7746 49.7831 31.9657 49.8063 31.5266 50.5978C31.3649 50.8538 31.2493 51.1797 31.2262 51.4823C31.1569 53.7868 31.18 56.1145 32.659 58.0466C33.5141 59.1406 34.5079 60.1881 35.594 61.0261C36.3798 61.6313 37.3966 62.0037 38.3673 62.3296C39.4534 62.7253 40.5627 62.9115 41.8107 63.2141Z" fill="#0C0E1E"/>
</g>
<defs>
<clipPath id="clip0_11_1600">
<rect width="74" height="75" fill="white" transform="translate(8 8)"/>
</clipPath>
</defs>
</svg>
