<svg width="90" height="90" viewBox="0 0 90 90" fill="none" xmlns="http://www.w3.org/2000/svg">
<g clip-path="url(#clip0_340_5441)">
<path d="M46.5716 66.8886C9.3982 80.926 8.11961 77.0132 30.7737 51.7788C23.0178 47.7967 14.8641 44.7622 6.9072 41.0972C-0.345833 35.6857 34.3683 34.6855 35.0221 32.731C41.3621 24.1554 45.9189 13.469 54.1543 7.14062C58.0387 11.6564 54.5849 33.8296 55.2852 36.2413C93.0963 45.113 101.226 47.0475 62.6071 55.9318C65.95 63.9094 70.6636 71.4619 72.0631 80.3425C68.029 86.7447 49.2416 68.5039 46.5714 66.8889L46.5716 66.8886Z" fill="#0C0E1E"/>
<path d="M69.4021 81.8023C64.3334 81.8023 54.9716 73.9462 49.8386 69.6387C48.3202 68.3647 47.1131 67.3517 46.5605 67.0034C26.3471 74.6342 17.7773 76.5759 16.005 73.9295C14.3931 71.5225 18.4877 65.3181 30.6077 51.8099C25.9159 49.4083 20.9938 47.3133 16.2322 45.2871C13.1531 43.9766 9.96912 42.6216 6.86435 41.1915L6.84597 41.1805C6.03429 40.575 5.69626 39.9822 5.84128 39.419C6.47975 36.9397 16.7342 35.6269 24.9739 34.572C29.9835 33.9307 34.7151 33.3251 34.9249 32.6985L34.9398 32.6695C37.0066 29.8739 38.9163 26.8013 40.7631 23.8298C44.5815 17.6857 48.5298 11.3326 54.0923 7.05847L54.1685 7L54.2312 7.07314C56.9291 10.2096 56.1274 21.7204 55.597 29.3372C55.3639 32.6834 55.1787 35.3437 55.3682 36.155C76.4133 41.0929 88.0065 43.8162 88 46.8972C87.9951 49.2982 81.1489 51.7686 62.7489 56.0053C63.6891 58.2389 64.753 60.4775 65.7826 62.6442C68.4268 68.2081 71.161 73.9615 72.1643 80.3263L72.1702 80.3651L72.1494 80.3982C71.6735 81.1531 70.9727 81.6089 70.0667 81.7527C69.8547 81.7862 69.6329 81.8025 69.4023 81.8025L69.4021 81.8023ZM46.5815 66.7747L46.6236 66.8003C47.1691 67.1303 48.3435 68.1156 49.9689 69.4796C55.081 73.7696 64.4078 81.5961 69.391 81.5963C69.6149 81.5963 69.8293 81.5806 70.0346 81.5482C70.8673 81.4161 71.5134 81.0029 71.9558 80.3197C70.9523 74.0004 68.2305 68.2726 65.5979 62.7334C64.5499 60.5281 63.4662 58.2478 62.5128 55.9722L62.4652 55.8584L62.5841 55.8311C77.7129 52.3506 87.7898 49.4994 87.7956 46.8965C87.8017 43.977 75.5538 41.1031 55.262 36.342L55.204 36.3284L55.1873 36.2705C54.963 35.4988 55.1435 32.9082 55.3933 29.3225C55.9172 21.7995 56.7069 10.4605 54.1389 7.28264C48.6462 11.5334 44.7271 17.8399 40.9361 23.9398C39.0897 26.9106 37.1804 29.9824 35.112 32.7817C34.8215 33.4869 31.2513 33.9768 24.9997 34.7769C17.2526 35.7689 6.64254 37.1271 6.03899 39.4711C5.91746 39.9428 6.2271 40.4599 6.95871 41.0078C10.058 42.4351 13.2369 43.7881 16.3114 45.0966C21.1165 47.1414 26.0855 49.2562 30.8195 51.6867L30.9388 51.7481L30.8489 51.8483C18.8951 65.1638 14.6433 71.5275 16.1742 73.8134C17.861 76.3319 26.6572 74.2983 46.5353 66.792L46.5815 66.7747Z" fill="#0C0E1E"/>
<path d="M28.4357 26.2201C24.8879 29.2864 20.8146 21.4696 17.5916 19.626C17.0556 14.9656 28.141 24.4361 28.4357 26.2201Z" fill="#0C0E1E"/>
<path d="M26.6993 27.0239C24.76 27.0239 22.7478 24.837 20.9212 22.8517C19.7206 21.5468 18.5866 20.3141 17.5411 19.716L17.4958 19.6902L17.4898 19.6379C17.371 18.6038 17.8289 18.3177 18.2341 18.2596C20.6528 17.9177 28.281 24.6589 28.5361 26.2031L28.5457 26.2605L28.5018 26.2985C27.9134 26.807 27.31 27.0239 26.6993 27.0239ZM17.6873 19.5625C18.747 20.185 19.8763 21.4123 21.0707 22.7106C23.5078 25.3595 26.0278 28.0989 28.3225 26.181C27.9085 24.6196 20.4902 18.1437 18.2625 18.464C17.8091 18.5288 17.6208 18.8885 17.6873 19.5625Z" fill="#0C0E1E"/>
<path d="M78.9661 21.7593C80.547 23.9632 74.7411 27.0625 73.2958 28.3986C71.3665 29.3769 68.4449 34.2295 68.4517 29.4252C71.6575 26.6336 75.0433 24.0284 78.9659 21.7593H78.9661Z" fill="#0C0E1E"/>
<path d="M69.2177 31.6169C69.1319 31.6169 69.0504 31.6012 68.9734 31.5678C68.5461 31.3818 68.3478 30.7008 68.3496 29.425V29.3777L68.3852 29.3469C72.0867 26.1239 75.4329 23.6844 78.9155 21.6698L78.9952 21.6235L79.0489 21.6985C79.2948 22.0413 79.3851 22.4248 79.3167 22.8382C79.0646 24.3617 76.6792 26.053 74.9378 27.2879C74.273 27.7592 73.6991 28.1664 73.3651 28.4749L73.342 28.491C72.7785 28.7767 72.1151 29.4135 71.4738 30.0292C70.6266 30.8428 69.82 31.6169 69.2183 31.6169H69.2177ZM68.5539 29.4726C68.5569 30.5936 68.7252 31.2347 69.0541 31.3779C69.549 31.5942 70.455 30.7221 71.3325 29.8796C71.9801 29.2577 72.6496 28.6151 73.2373 28.3127C73.582 27.9966 74.1562 27.5893 74.82 27.1189C76.532 25.9049 78.8767 24.2421 79.1147 22.8041C79.1696 22.4727 79.1104 22.175 78.9347 21.8965C75.5044 23.8888 72.2019 26.2991 68.5537 29.4726H68.5539Z" fill="#0C0E1E"/>
<path d="M32.4472 24.1202C30.3931 27.6966 27.8032 21.8608 25.7035 20.5901C24.3945 19.3102 19.966 15.2962 23.8192 15.85C26.7938 18.5423 29.5932 21.2348 32.4472 24.1202Z" fill="#0C0E1E"/>
<path d="M30.9645 25.3677C29.8861 25.3677 28.7768 24.0405 27.7029 22.7551C26.9768 21.8868 26.2913 21.0663 25.6506 20.6785L25.632 20.6643C25.5362 20.5707 25.4237 20.4624 25.2991 20.3424C23.6079 18.7139 21.8365 16.9075 22.2317 16.0817C22.4018 15.7261 22.9263 15.6171 23.833 15.7474L23.8636 15.7518L23.8865 15.7726C26.7654 18.3782 29.5889 21.0847 32.5186 24.0471L32.5742 24.1031L32.5347 24.1719C32.1028 24.9243 31.6265 25.3136 31.0787 25.3623C31.0407 25.3658 31.0025 25.3675 30.9641 25.3675L30.9645 25.3677ZM25.7658 20.5077C26.4324 20.9155 27.1255 21.7444 27.8589 22.6219C28.9373 23.9121 30.0503 25.2508 31.0613 25.1568C31.5219 25.1158 31.9336 24.782 32.3184 24.1365C29.4196 21.2072 26.6234 18.5277 23.774 15.9478C23.0062 15.8408 22.5368 15.9185 22.4157 16.1718C22.0524 16.9313 24.4265 19.2168 25.4402 20.1928C25.5617 20.3097 25.6716 20.4155 25.766 20.5075L25.7658 20.5077Z" fill="#0C0E1E"/>
<path d="M11.6385 55.6184C10.066 58.1033 5.47085 57.8516 2.19411 59.0132C1.03419 58.9913 0.527245 56.8239 2.05297 56.464C4.56338 56.125 11.8877 52.5914 11.6385 55.6184Z" fill="#0C0E1E"/>
<path d="M2.2105 59.1172L2.19212 59.1168C1.50973 59.1038 1.07305 58.442 1.00871 57.8259C0.951318 57.2759 1.18416 56.5631 2.02974 56.3635C2.74645 56.2662 3.86899 55.9049 5.0573 55.5224C7.55321 54.7189 10.382 53.809 11.3784 54.6113C11.6555 54.8348 11.7772 55.1766 11.7401 55.6272L11.738 55.6528L11.7243 55.6743C10.6541 57.3658 8.28748 57.8042 5.78177 58.2682C4.56977 58.4928 3.31671 58.7251 2.22766 59.111L2.2105 59.1172ZM10.199 54.5053C8.8898 54.5053 6.84774 55.1627 5.11919 55.7191C3.9221 56.1044 2.79138 56.4685 2.06651 56.5664C1.36124 56.7336 1.16088 57.3156 1.21194 57.804C1.26647 58.3267 1.62309 58.8874 2.17803 58.9096C3.2779 58.522 4.53177 58.2897 5.745 58.0649C8.19454 57.6112 10.5091 57.1823 11.5385 55.5844C11.564 55.2148 11.4696 54.9491 11.2509 54.7726C11.0168 54.584 10.6516 54.5053 10.199 54.5053Z" fill="#0C0E1E"/>
<path d="M76.7609 17.4753C77.9674 19.1177 71.8107 22.53 70.7846 23.8686C68.6947 25.1434 64.9115 30.4129 64.8794 26.1905C68.8643 23.2544 72.4886 20.3255 76.7609 17.4753Z" fill="#0C0E1E"/>
<path d="M65.6539 27.9049C65.5528 27.9049 65.4576 27.8867 65.3692 27.8483C64.978 27.6776 64.7844 27.1357 64.7773 26.1915L64.7769 26.1384L64.8193 26.1072C66.0871 25.1731 67.3373 24.2254 68.5465 23.3087C71.1241 21.3546 73.7897 19.334 76.7045 17.3894L76.7852 17.3354L76.8428 17.414C76.9898 17.6142 77.0452 17.847 77.0074 18.1063C76.836 19.2771 74.8013 20.8027 73.0062 22.1488C72.0295 22.8812 71.1859 23.5136 70.8653 23.9322L70.8371 23.9572C70.246 24.3178 69.4925 25.0264 68.7638 25.7115C67.5679 26.8357 66.4306 27.9049 65.6539 27.9049ZM64.9821 26.2427C64.9948 27.0522 65.1521 27.5284 65.4503 27.6586C66.0928 27.939 67.4384 26.6754 68.6245 25.5603C69.3882 24.8423 70.1096 24.164 70.7156 23.7905C71.0613 23.35 71.9071 22.7159 72.8845 21.9829C74.5605 20.7261 76.6465 19.1623 76.8052 18.0761C76.8301 17.9055 76.806 17.7549 76.7313 17.6191C73.8548 19.5428 71.219 21.5409 68.6688 23.4742C67.4727 24.381 66.2364 25.3181 64.9819 26.2429L64.9821 26.2427Z" fill="#0C0E1E"/>
<path d="M85.4098 68.7324C83.8511 66.5878 79.1273 64.4779 80.8207 61.5488C82.1234 62.9713 89.0543 67.0421 85.4098 68.7324Z" fill="#0C0E1E"/>
<path d="M85.3766 68.8612L85.3274 68.7935C84.863 68.1542 84.1152 67.5206 83.324 66.8495C81.5354 65.333 79.508 63.6142 80.7325 61.4967L80.8019 61.3765L80.8957 61.4785C81.189 61.7988 81.7843 62.2647 82.4737 62.8041C84.2647 64.2057 86.7175 66.1251 86.5517 67.5869C86.4937 68.098 86.1238 68.5148 85.4524 68.8261L85.3768 68.8612H85.3766ZM80.843 61.7201C79.8477 63.6322 81.681 65.1867 83.4551 66.691C84.2284 67.3468 84.9604 67.9675 85.4414 68.603C85.9963 68.3288 86.3013 67.9792 86.3484 67.5635C86.501 66.2173 84.1009 64.339 82.3483 62.9675C81.7198 62.4756 81.1685 62.0442 80.843 61.7203V61.7201Z" fill="#0C0E1E"/>
<path d="M4.67851 63.2288C2.85253 60.226 11.3445 59.7954 13.1497 59.3127C11.6211 61.7319 7.43115 61.9305 4.67851 63.2288Z" fill="#0C0E1E"/>
<path d="M4.63895 63.3613L4.59136 63.2828C4.29602 62.7968 4.2421 62.3425 4.43144 61.9322C5.11505 60.45 8.86524 59.8907 11.3468 59.5204C12.106 59.4072 12.7619 59.3095 13.1232 59.2128L13.3765 59.145L13.2353 59.3684C12.2 61.007 9.97083 61.6464 7.8152 62.2652C6.74576 62.572 5.63997 62.8894 4.72147 63.3224L4.63916 63.3613H4.63895ZM12.9146 59.4731C12.5378 59.5516 12.01 59.6303 11.3765 59.7248C9.08623 60.0663 5.25333 60.6382 4.61628 62.0193C4.46554 62.3462 4.49904 62.6991 4.71922 63.0958C5.63466 62.6757 6.71431 62.366 7.75924 62.0662C9.77843 61.4867 11.863 60.8888 12.9146 59.4731Z" fill="#0C0E1E"/>
<path d="M45.1303 75.2645C46.633 75.0157 47.4594 80.5505 46.8689 81.8871C43.9342 81.4827 44.7817 77.9062 45.1303 75.2645Z" fill="#0C0E1E"/>
<path d="M46.9308 82.0003L46.855 81.9898C46.1328 81.8904 45.5822 81.5917 45.2182 81.102C44.351 79.9353 44.6512 77.8729 44.9159 76.0533C44.9557 75.7796 44.995 75.5106 45.0293 75.2509L45.0393 75.175L45.1138 75.1626C45.4253 75.1106 45.7219 75.2659 45.9941 75.6234C46.9964 76.9399 47.4719 80.7758 46.9621 81.9293L46.931 81.9999L46.9308 82.0003ZM45.2207 75.3602C45.189 75.5953 45.1537 75.8374 45.1179 76.0835C44.8589 77.863 44.5656 79.8799 45.3814 80.9778C45.7029 81.4105 46.169 81.671 46.8046 81.7735C47.2349 80.603 46.7607 76.969 45.8322 75.7498C45.6328 75.4881 45.4271 75.3527 45.2207 75.3602Z" fill="#0C0E1E"/>
<path d="M41.9733 72.5605C42.7169 72.6998 42.8478 73.2888 42.8785 73.8035C42.9898 75.6807 42.5885 77.479 41.8828 79.2104C41.8417 79.311 41.7408 79.3867 41.5974 79.5577C41.1763 79.3705 40.7394 79.1763 40.2964 78.9794C40.6399 76.7117 41.0613 74.57 41.9735 72.5605H41.9733Z" fill="#0C0E1E"/>
<path d="M41.6262 79.6832L40.1836 79.0421L40.1956 78.9636C40.5686 76.501 40.9979 74.4624 41.8809 72.5172L41.914 72.4441L41.9922 72.4588C42.8159 72.6129 42.9507 73.2963 42.9808 73.7972C43.0849 75.5542 42.7567 77.3378 41.9775 79.2497C41.944 79.3318 41.8848 79.395 41.8098 79.4751C41.7712 79.5165 41.7261 79.5644 41.6758 79.6245L41.6266 79.6832H41.6262ZM40.4093 78.9167L41.57 79.4326C41.6031 79.395 41.634 79.3623 41.6613 79.333C41.7242 79.2661 41.7694 79.2175 41.7886 79.1712C42.5557 77.2888 42.879 75.5349 42.7767 73.81C42.7481 73.3325 42.6358 72.8296 42.0322 72.679C41.1914 74.5593 40.772 76.5382 40.4093 78.9167Z" fill="#0C0E1E"/>
<path d="M82.9032 71.8323C80.8822 69.7607 79.6089 66.6204 80.4308 65.0955C81.0963 67.1297 84.9698 69.102 82.9032 71.8323Z" fill="#0C0E1E"/>
<path d="M82.9131 71.9893L82.8308 71.905C80.9066 69.9323 79.4471 66.7055 80.3413 65.046L80.454 64.8369L80.5279 65.0629C80.7418 65.7166 81.3004 66.3679 81.8919 67.0573C83.0757 68.4375 84.4176 70.0017 82.9848 71.895L82.9134 71.9893H82.9131ZM80.4236 65.3615C79.8846 66.8282 80.9791 69.6631 82.8929 71.6734C84.109 69.9575 82.904 68.5523 81.7375 67.1927C81.2007 66.5668 80.6903 65.9718 80.4236 65.3615Z" fill="#0C0E1E"/>
</g>
<defs>
<clipPath id="clip0_340_5441">
<rect width="87" height="75" fill="white" transform="translate(1 7)"/>
</clipPath>
</defs>
</svg>
