<svg width="90" height="90" viewBox="0 0 90 90" fill="none" xmlns="http://www.w3.org/2000/svg">
<g clip-path="url(#clip0_9_851)">
<mask id="mask0_9_851" style="mask-type:luminance" maskUnits="userSpaceOnUse" x="21" y="50" width="28" height="27">
<path d="M21.375 50.2876H48.0375V76.8811H21.375V50.2876Z" fill="white"/>
</mask>
<g mask="url(#mask0_9_851)">
<path d="M39.9633 69.8926C39.9244 69.7801 39.7184 69.1595 39.7755 68.9669C40.0323 69.0347 40.1977 69.0368 40.3976 69.0489C41.7191 69.1293 42.9354 68.9176 43.9771 67.9907C44.6009 67.4357 44.915 66.9169 45.112 66.1274C45.1598 65.9359 45.1494 65.5015 45.1476 65.2998C45.1476 65.2998 45.2975 65.1963 45.3117 64.7504C45.3211 64.4567 45.3296 64.0013 45.2547 63.6981C45.1668 63.3424 44.8921 63.1209 44.5685 62.9817C44.3247 62.8767 44.0581 62.8088 43.7949 62.7676C43.2649 62.6846 42.7369 62.6538 42.3932 63.1773C41.6661 62.9431 41.0825 62.4371 40.8338 61.7681C40.6918 61.3862 40.6076 60.9809 40.5201 60.5811C40.4445 60.2354 40.3841 59.8861 40.3166 59.5387C40.2861 59.3051 40.2324 59.0048 40.1491 58.6225C39.4644 55.477 33.9718 55.7004 32.6769 55.9252C31.4713 56.1344 29.9556 57.2012 29.6056 57.6374C29.2556 58.0737 28.6906 58.6112 28.3428 59.9489C27.9758 61.3607 28.9796 67.5363 28.3998 69.011C27.9188 70.2343 27.2315 71.3515 26.3626 72.3525C26.1691 72.5755 25.9783 72.8045 25.8027 73.0431C26.0219 73.2368 26.2503 73.4237 26.488 73.6034C26.8003 73.1665 27.1141 72.7307 27.4228 72.2913C28.1373 71.2747 28.6295 70.1475 29.0242 68.9771C29.0318 68.9544 29.2452 68.2537 29.2526 68.2319C29.5406 67.3778 28.7331 61.6794 29.2205 59.8473C29.5094 58.7611 30.2018 58.2274 30.708 57.8728C31.7805 57.1216 32.6985 56.5565 35.7805 56.5672C38.8625 56.5779 39.534 59.3967 39.534 59.3967C39.5748 59.5384 39.6252 59.6813 39.6529 59.8283C39.7571 60.3823 39.8341 60.9419 39.9559 61.4918C40.1897 62.5479 40.8095 63.3165 41.7788 63.7893C41.9142 63.8553 42.2335 63.994 42.2335 63.994C42.2335 63.994 42.2626 64.2388 42.3247 64.3786C42.6244 65.0531 43.167 65.4721 43.9048 65.5848C44.1381 65.6204 44.4005 65.626 44.6412 65.5021C44.6412 65.5021 44.6801 65.9984 44.6273 66.2227C44.4448 66.9985 43.9662 67.5291 43.2319 67.7904C42.765 67.9565 42.2683 68.0654 41.7759 68.1282C40.6635 68.27 39.5462 68.2767 38.4484 68.0076C38.0407 67.9077 37.6506 67.7361 37.253 67.5959C37.1496 67.5594 37.0001 67.4099 36.897 67.5363C36.783 67.676 36.8871 67.8595 36.9987 67.9579C37.1415 68.0838 37.2907 68.2241 37.4631 68.291C37.9875 68.4942 38.5214 68.6746 39.0582 68.8428C39.2218 68.8941 39.3434 68.9306 39.3434 68.9306C39.3434 68.9306 39.5828 70.5163 39.832 71.1744C40.2542 72.2895 40.799 73.3425 41.4278 74.346C41.6957 74.1843 41.955 74.0141 42.2057 73.8358C41.8817 73.3719 41.5515 72.9121 41.2491 72.4345C40.6579 71.5007 40.3255 70.9398 39.9633 69.8925L39.9633 69.8926Z" fill="#0C0E1E"/>
<path d="M29.5642 68.3435C31.176 67.5587 32.1136 66.2403 32.4715 64.5044C32.5773 63.9912 32.5957 63.4605 32.6762 62.9412C32.7467 62.4857 32.8424 62.0338 32.9394 61.583C32.9683 61.4488 33.1322 60.1495 33.1181 59.9554C33.0833 59.4771 32.9613 59.0147 32.6714 58.622C32.0026 57.7157 31.101 57.2944 29.9758 57.3959C29.5179 57.4372 29.0535 57.4807 28.6456 57.7349C28.519 57.8139 28.0438 58.1627 28.0176 58.1878C27.2866 58.8888 26.7329 59.7219 26.2551 60.6043C25.6435 61.7339 25.0186 62.8513 24.1822 63.8369C23.7757 64.3157 23.6583 64.9179 23.5663 65.5132C23.5309 65.7428 23.5774 66.0029 23.6504 66.2283C23.8974 66.9904 24.4045 67.5608 25.0589 68.004C26.0141 68.6508 27.0795 68.8528 28.2137 68.7651C28.2948 68.7588 29.2901 68.477 29.5642 68.3435ZM25.4575 67.1097C24.5414 66.5517 24.2858 65.6099 24.7405 64.6281C25.0464 63.9676 25.4361 63.344 25.8117 62.7178C26.5115 61.5514 27.2585 60.4163 28.1555 59.3879C28.2473 59.2827 28.4601 59.0206 29.0629 58.6008C29.862 58.0443 31.2221 58.5592 31.5349 59.1572C31.8479 59.7552 32.0252 60.5235 31.9909 60.8048C31.9538 61.1097 31.8826 61.4103 31.8376 61.7145C31.7213 62.5006 31.6227 63.2893 31.4965 64.0737C31.2722 65.4664 30.6027 66.589 29.3636 67.2955C28.0395 68.0505 26.7053 67.8698 25.4574 67.1096L25.4575 67.1097Z" fill="#0C0E1E"/>
<path d="M34.4942 76.8811C16.4862 75.8353 17.6272 51.2479 34.1804 50.2876C53.1771 50.4968 52.0266 76.6054 34.4942 76.8811ZM34.5702 75.6451C51.6749 74.5231 50.9713 52.1511 34.979 51.5046C17.5606 52.1321 18.4544 75.3693 34.5702 75.6451Z" fill="#0C0E1E"/>
</g>
<mask id="mask1_9_851" style="mask-type:luminance" maskUnits="userSpaceOnUse" x="9" y="13" width="35" height="35">
<path d="M9.6748 13.1626H43.8186V47.218H9.6748V13.1626Z" fill="white"/>
</mask>
<g mask="url(#mask1_9_851)">
<path d="M34.403 40.8441C33.5443 40.5211 32.6601 40.181 31.7844 39.8494C31.3763 39.6963 31.1212 39.6028 31.2487 39.0502C31.4188 38.3275 31.5123 37.5793 31.6143 36.8481C31.6568 36.5591 31.6908 36.2615 31.7333 35.9724C32.0139 35.9299 32.2775 35.8874 32.524 35.8449C35.5338 35.3687 36.4435 35.2327 36.2649 31.3557C36.1884 30.7436 36.3925 30.3185 36.9196 29.9784C37.4212 29.6468 37.6167 29.1877 37.4212 28.7541C37.2681 28.3885 36.9196 28.2099 36.571 28.0314C36.1714 27.8274 35.7888 27.6318 35.7463 27.1642C35.5508 26.382 35.4402 25.6763 35.3382 25.0047C35.0746 23.3468 34.8536 21.9099 33.4932 20.218C32.4389 18.8151 30.9001 18.0925 28.7831 18.0245C27.0316 17.9649 25.1526 18.3645 23.3927 18.8066C21.8878 19.1892 20.6635 19.7589 19.6603 20.5326C17.5688 22.1309 16.6931 24.5541 15.8514 26.9006C15.5538 27.7338 15.2477 28.5925 14.8906 29.4002C14.0489 31.3982 12.4676 31.7043 10.8011 32.0359C10.6556 32.0645 10.5097 32.0933 10.3638 32.1232C10.3899 32.3958 10.4229 32.6678 10.4625 32.9386C11.9078 32.7489 13.3305 32.1303 14.7121 31.0922C15.8173 30.14 16.3359 28.6436 16.8291 27.1897C17.0416 26.5606 17.2457 25.9654 17.5007 25.4128C19.4987 19.6569 22.704 19.3763 28.0093 18.9257C28.1624 18.9087 28.3154 18.9002 28.4684 18.9002C29.7693 18.9002 30.917 19.6143 32.0223 20.3115L32.2349 20.4476C32.4815 20.5836 32.6259 20.7451 32.5409 21.1277C31.8438 24.2225 30.0838 26.2715 27.3206 27.2152C26.581 27.4703 25.7563 27.5213 24.9655 27.5638C24.685 27.5808 24.4044 27.5978 24.1238 27.6233C23.7072 27.6829 23.2566 27.6914 22.772 27.7084C21.3861 27.7339 19.9492 27.7679 19.2776 29.1537C18.929 29.8679 19.1586 30.4291 19.4052 30.7776C19.9068 31.4748 20.9695 31.9169 21.8792 31.7979C22.0153 31.7809 22.1258 31.8234 22.2023 31.8999C22.2788 31.9765 22.3044 32.0955 22.2873 32.24C22.1938 33.0052 22.0833 33.7789 21.9728 34.5271C21.8112 35.6494 21.6412 36.8142 21.5392 37.9704C21.5137 38.3275 21.3606 38.4126 21.0886 38.4636C20.5529 38.5571 20.0003 38.6421 19.4647 38.7271C17.4411 39.0488 15.3653 39.3745 13.3977 40.0418C16.0472 43.5349 20.4121 46.0323 26.5828 46.3109C31.2617 46.1526 34.9958 44.5337 37.7278 42.0982C37.6767 42.0796 37.6257 42.0608 37.5742 42.0429C36.5114 41.6518 35.4402 41.2437 34.4029 40.8441H34.403ZM30.424 38.1149C30.3645 38.6931 30.305 39.2287 30.152 39.6538C30.135 39.7133 30.118 39.7728 30.1095 39.8409C29.9734 40.3765 29.8544 40.8867 29.2848 41.3033C29.1062 41.4393 28.7746 41.5498 28.5196 41.5583C26.088 41.9154 23.7159 40.8356 22.3215 38.7356C22.7211 37.2307 22.8147 35.6748 22.9082 34.17C22.9507 33.4728 22.9932 32.7501 23.0698 32.0359C23.0953 31.7384 23.0442 31.5258 22.8997 31.3728C22.7551 31.2197 22.5256 31.1517 22.194 31.1602C21.3863 31.2027 20.4341 30.6756 20.1195 29.9955C19.9665 29.6724 19.8985 29.1793 20.3831 28.6606C20.7317 28.3886 21.1908 28.448 21.6329 28.5076C21.8879 28.5416 22.1515 28.5756 22.3811 28.5501L22.6786 28.5331C23.9879 28.465 25.3313 28.3885 26.5811 28.0655C30.186 26.9092 32.6006 24.6051 33.3912 21.5613C33.4338 21.6464 33.4848 21.7314 33.5273 21.8079C33.6548 22.0374 33.7653 22.233 33.8078 22.454C34.0374 23.5338 34.2414 24.6391 34.4285 25.7103C34.5476 26.3735 34.6665 27.0537 34.8026 27.7253C34.9301 28.363 35.4148 28.6266 35.9164 28.8221C36.2054 28.9326 36.367 29.0686 36.3925 29.2387C36.452 29.6213 35.8568 30.0974 35.4998 30.3949C35.1597 30.752 35.1512 31.2026 35.1427 31.6447V31.7468C35.1257 32.512 35.0832 33.2941 35.0152 34.0679C34.9642 34.6715 34.8366 34.748 34.2585 34.8245H34.233C33.4678 34.9266 32.6771 35.0371 31.9034 35.1986C30.6961 35.5047 30.5516 36.8905 30.424 38.1148V38.1149Z" fill="#0C0E1E"/>
<path d="M26.4751 47.218C3.41431 45.8787 4.8754 14.3924 26.0733 13.1626C50.4003 13.4305 48.927 46.8649 26.4751 47.218ZM26.5725 45.6352C48.4765 44.1985 47.5755 15.5491 27.096 14.7211C4.7902 15.5247 5.93469 45.2821 26.5725 45.6352Z" fill="#0C0E1E"/>
</g>
<mask id="mask2_9_851" style="mask-type:luminance" maskUnits="userSpaceOnUse" x="47" y="23" width="39" height="39">
<path d="M47.7002 23.9062H85.0502V61.1596H47.7002V23.9062Z" fill="white"/>
</mask>
<g mask="url(#mask2_9_851)">
<path d="M72.2651 51.1954C72.2651 51.1954 71.9273 50.8793 71.5985 49.8459C71.4858 49.4795 71.3637 49.0943 71.1664 48.7279C74.2478 47.873 76.371 45.6653 76.5776 43.0912C76.8031 40.3949 74.9148 37.8584 71.5327 36.3083C70.1893 32.5317 66.6193 29.4315 63.0307 28.9242C61.0766 28.6518 58.2676 28.99 55.9659 32.2123L55.9565 32.2311C55.2049 34.8334 56.0223 35.5756 56.6705 36.1862C57.2154 36.6841 57.6381 37.0787 57.1026 38.3376V38.347C57.0087 38.9576 56.9993 39.5495 56.9899 40.1132C56.9711 41.4284 56.9429 42.5557 55.9189 43.5703L55.9095 43.5797C55.731 43.9273 55.7874 44.2467 55.8625 44.4534C55.9753 44.7635 56.2195 45.0359 56.4825 45.1486C56.9522 45.4211 57.0838 46.0411 57.0838 46.3324C57.0274 47.8167 57.2529 48.7938 57.7602 49.3198C58.2957 49.8741 59.0943 49.8741 59.8646 49.8835C61.2174 49.8835 62.6266 49.8835 62.8239 52.8334C59.5516 53.6841 56.8745 54.8107 54.749 56.2349C55.0136 56.4455 55.2867 56.6494 55.5684 56.8465C56.1274 56.4664 56.7249 56.1167 57.3656 55.8021C58.7179 55.1085 59.6861 54.8345 60.231 54.5057C60.6067 54.2802 60.851 54.1299 61.0859 54.1299C61.5274 54.1299 61.767 54.9954 63.0071 56.3858C63.2701 56.6864 63.5707 57.0246 63.9183 57.4004C64.3599 57.9265 64.7939 57.8077 65.257 57.7937H65.2664C65.661 57.7937 65.9616 57.4555 66.281 57.0985C66.4971 56.8543 66.7132 56.6006 66.9856 56.4221L67.3427 58.9775C67.3411 58.9769 67.3389 58.9763 67.3373 58.9758C67.4056 59.3905 67.4946 59.8041 67.5861 60.1907C67.9307 60.1622 68.2706 60.1266 68.6052 60.0835C68.5481 59.8795 68.4904 59.6765 68.4324 59.4754C68.0848 58.2259 67.756 57.0422 67.6339 55.8397C68.1788 56.0182 68.6485 56.4033 69.1088 56.7603C69.7195 57.2394 70.2926 57.6998 70.9878 57.6998H71.0159L71.0347 57.681C71.1099 57.5776 71.2508 57.3992 71.4293 57.1737C72.4533 55.8678 73.8742 53.0885 74.2685 51.9526C75.9145 52.0413 78.1304 52.7671 80.3788 53.9C80.5761 53.6675 80.7669 53.4305 80.9509 53.1893C79.426 52.5354 77.6899 51.9787 75.6726 51.4951C74.8409 51.2957 72.265 51.1953 72.265 51.1953L72.2651 51.1954ZM64.7968 56.7603H64.7874C64.3083 56.7509 63.8762 56.1966 63.1622 55.2853C62.8146 54.8344 62.3824 54.2895 61.8563 53.6695C62.8897 53.1809 63.4628 53.6131 64.1768 54.158C64.7781 54.6183 65.4639 55.135 66.6006 55.3041C65.7176 56.3657 65.2196 56.7603 64.7968 56.7603ZM67.0421 54.8907C65.6424 54.9753 64.515 54.2801 63.9513 52.9837C63.8574 52.5891 63.8198 52.2321 63.7916 51.8845C63.7165 51.1329 63.6507 50.4753 62.993 49.8929C62.2978 49.4607 61.4899 49.4513 60.7102 49.4513C59.3949 49.4419 58.2676 49.4325 58.23 47.2155C58.1737 46.9148 58.1737 46.6518 58.1737 46.4169C58.1737 46.0129 58.1737 45.656 57.9388 45.2801L57.9294 45.2707C57.7133 45.064 57.4973 44.9701 57.3 44.8856C57.0181 44.7541 56.8114 44.6601 56.7457 44.2749C56.7738 43.7864 57.0463 43.5233 57.3375 43.2509C57.5442 43.0536 57.7509 42.8563 57.873 42.5745C58.1548 42.0014 58.0703 40.9962 57.9951 40.0286C57.9106 38.9482 57.8166 37.8208 58.2863 37.5202C58.5494 37.3511 58.9627 37.4263 59.564 37.7551C59.9586 37.896 60.3438 38.0181 60.7102 38.1402C62.0442 38.563 63.1903 38.9294 64.0828 40.1037C64.4116 40.6016 64.7217 41.2122 65.0223 41.8041C65.6893 43.1287 66.3281 44.3782 67.1454 44.3782C67.7185 44.3782 68.3103 43.7393 68.968 42.4335C69.4095 42.3114 69.8135 42.3771 70.1141 42.6402C70.396 42.8939 70.5369 43.2885 70.4805 43.683V43.7018C70.565 44.4252 70.2362 44.7916 69.8135 45.2519L69.7665 45.2989C68.9398 46.3981 69.7008 48.1642 70.3772 49.7144C70.7154 50.4941 71.0349 51.2363 71.0912 51.7624C70.5839 53.4346 68.8459 54.778 67.0421 54.8907ZM72.2667 54.394C71.6655 55.3052 71.2029 56.1039 70.5922 56.893C70.0004 57.0527 68.6392 56.0933 68.1601 55.6611C68.1037 55.6048 68.0473 55.5578 68.0004 55.5202C69.9638 55.3699 71.6642 53.9044 72.1903 51.9221C72.5849 51.8846 72.9982 51.8658 73.4304 51.8846C73.0884 52.7223 72.7646 53.6331 72.2667 54.394L72.2667 54.394Z" fill="#0C0E1E"/>
<path d="M66.0781 61.1596C40.8518 59.6945 42.4501 25.2515 65.6385 23.9062C92.2499 24.1993 90.6383 60.7733 66.078 61.1596H66.0781ZM66.1846 59.4281C90.1456 57.8565 89.16 26.5168 66.7574 25.6111C42.3569 26.4901 43.6089 59.0419 66.1846 59.4281Z" fill="#0C0E1E"/>
</g>
</g>
<defs>
<clipPath id="clip0_9_851">
<rect width="90" height="90" fill="white"/>
</clipPath>
</defs>
</svg>
