<svg width="90" height="90" viewBox="0 0 90 90" fill="none" xmlns="http://www.w3.org/2000/svg">
<g clip-path="url(#clip0_11_1567)">
<path d="M84.874 76.6806C84.7638 75.4665 84.5905 73.8167 84.5905 71.6531C83.5827 51.4341 83.0157 37.5968 82.622 28.4446C82.0709 15.2766 81.2047 8.5369 80.0079 8.24116C79.8189 8.19447 79.6142 8.14777 79.3937 8.05438L79.3622 8.03882H79.3307C70.811 8.64585 62.1339 9.14394 53.7244 9.64202C37.7874 10.5915 21.315 11.5565 5.15748 13.1908L5 13.2064V13.3621C6.22835 80.5719 6.9685 80.8209 7.33071 80.9454C7.37795 80.961 7.4252 80.961 7.48819 80.9299C12.622 80.9454 17.7717 80.961 22.9528 80.961C35.9606 80.961 49 80.8987 61.7402 80.8365C65.8976 80.8209 70.0551 80.8053 74.2126 80.7742C76.1339 80.7431 77.7402 80.7431 79.0315 80.7431C82.5118 80.7431 83.9606 80.7431 84.6063 80.0427C85.1417 79.4512 85.0472 78.4706 84.874 76.6806ZM8.27559 14.7785C8.48031 14.7629 8.70079 14.7473 8.95276 14.7473C16.5591 14.4049 23.6929 14.0002 31.252 13.5644C34.1496 13.3932 37.063 13.222 40.0079 13.0663C45.5984 12.864 51.2835 12.4749 56.7795 12.0857C64.1181 11.5721 71.6929 11.0429 79.0472 10.9962C79.4567 14.7473 79.5669 18.5919 79.6772 22.312C79.7402 24.5844 79.8031 26.9348 79.9449 29.254C80.5748 43.0757 81.063 52.9128 81.4252 60.1039C82.1339 74.1124 82.2913 77.4277 81.8189 77.8636C81.7559 77.9258 81.6457 77.9258 81.4409 77.8947C81.2047 77.8636 80.8898 77.8324 80.5118 77.9881C59.5984 78.3772 33.5984 78.8442 9.3622 78.7975C8.93701 67.9486 8.46457 56.9597 8.00787 46.3288C7.55118 35.8847 7.09449 25.0981 6.66929 14.4516C7.18898 14.8563 7.67717 14.8252 8.27559 14.7785Z" fill="#0C0E1E"/>
<path d="M70.5907 15.9305C65.756 13.1132 59.2993 15.0588 58.8111 20.491C59.1261 31.6823 63.8977 33.9237 64.2442 37.1456C63.8662 38.8578 58.3387 37.7838 57.0631 38.3908C41.0946 40.8968 33.693 40.7567 34.5907 42.1887C34.8111 45.7531 33.5985 48.9128 34.2442 50.9207C36.3072 53.3488 42.4489 51.0763 44.8426 51.123C49.6458 50.6249 54.0552 50.3448 58.8741 50.1424C61.5513 50.3759 66.3229 48.835 66.1025 50.9051C66.4017 52.9441 67.2678 55.8548 65.504 56.0416C54.7324 57.6136 43.8033 57.707 32.9529 59.2635C12.7166 62.5322 16.3072 55.9326 16.134 66.5791C10.4332 70.5015 14.3859 73.3032 19.5198 72.6183C22.8741 70.5949 20.3387 67.7309 17.6143 67.1239C17.4253 66.9994 17.3781 66.8437 17.5355 66.4857C18.8111 64.8202 16.8111 60.2753 19.8033 60.9601C28.1655 61.8629 36.2127 59.746 44.7481 58.89C50.3072 58.6876 55.8033 58.7188 61.4568 57.7226C63.7088 57.1623 69.1891 57.707 68.6222 55.9482C68.7009 53.3332 68.3387 48.1345 65.9135 48.4458C56.6064 49.1618 47.4096 49.0996 38.2442 50.6249C37.5828 50.7183 36.3387 51.0452 36.2914 50.5627C36.7796 46.9049 36.5592 42.4377 37.2048 42.3443C43.945 41.068 50.6536 40.6944 57.4096 39.5426C72.6222 38.3597 62.9844 40.0252 67.7088 32.9119C70.6064 27.9622 76.9056 20.5377 70.5907 15.9305ZM18.3387 68.4313C19.6143 70.6883 17.0159 73.4744 15.5355 71.2953C14.6222 69.6765 16.9214 66.4701 18.3387 68.4313ZM67.6143 22.9036C64.6694 24.0399 62.9686 21.3627 65.2206 19.3859C69.3151 17.736 70.2914 21.2849 67.6143 22.9036Z" fill="#0C0E1E"/>
<path d="M17.992 27.0904C21.8031 27.2149 25.1731 27.1994 25.7243 26.4989C26.5905 23.8373 26.6062 18.1716 25.1417 17.7358C22.7322 16.584 9.25189 17.2689 10.1968 18.3117C10.433 27.8687 9.92905 26.7324 17.992 27.0904ZM12.622 25.5806C11.8818 23.6661 11.2991 18.7009 12.6062 18.6697C16.2598 18.4985 20.1023 18.1872 23.8503 18.2962C24.3385 20.0394 24.3228 26.2655 22.8109 26.0631C19.2204 26.39 12.8109 26.5923 12.622 25.5806Z" fill="#0C0E1E"/>
<path d="M24.1496 31.9313C20.4173 26.8882 12.0551 28.9272 14.1496 35.4334C17.2677 40.6944 26.811 38.6865 24.1496 31.9313ZM19.9764 37.1922C14.5905 38.8888 14.5433 32.1803 17.6772 30.2035C25.126 29.2696 22.0551 36.8809 19.9764 37.1922Z" fill="#0C0E1E"/>
<path d="M14.5749 46.1577C19.2993 52.1503 26.2599 47.5586 23.9765 41.784C20.4962 37.7837 11.2363 40.2741 14.5749 46.1577ZM15.8032 44.1965C15.819 42.7179 16.1182 41.8462 16.9528 41.3948C24.1969 37.7682 23.441 46.0955 20.2284 48.0411C18.071 49.1773 15.4095 45.9398 15.8032 44.1965Z" fill="#0C0E1E"/>
<path d="M20.323 32.1959C18.4647 30.406 13.9135 37.2857 18.5907 34.1883C19.1891 34.017 18.7324 35.2156 18.9686 35.5113C19.0474 35.807 20.449 36.3051 20.4332 35.5424C20.3072 34.484 21.1419 32.6318 20.323 32.1959Z" fill="#0C0E1E"/>
<path d="M19.6143 46.6092C22.2915 46.4691 22.0868 42.7802 19.8978 42.3755C16.7639 42.0486 15.7246 46.5936 19.6143 46.6092ZM19.4096 43.1693C20.5435 43.1226 20.1812 45.7219 19.1261 45.9554C17.9765 45.4418 18.4332 43.6674 19.4096 43.1693Z" fill="#0C0E1E"/>
</g>
<defs>
<clipPath id="clip0_11_1567">
<rect width="80" height="73" fill="white" transform="translate(5 8)"/>
</clipPath>
</defs>
</svg>
